<?xml version="1.0" encoding="utf-8" standalone="no"?>
<!DOCTYPE svg PUBLIC "-//W3C//DTD SVG 1.1//EN"
  "http://www.w3.org/Graphics/SVG/1.1/DTD/svg11.dtd">
<!-- Created with matplotlib (http://matplotlib.org/) -->
<svg height="720.570187pt" version="1.1" viewBox="0 0 663.124687 720.570187" width="663.124687pt" xmlns="http://www.w3.org/2000/svg" xmlns:xlink="http://www.w3.org/1999/xlink">
 <defs>
  <style type="text/css">
*{stroke-linecap:butt;stroke-linejoin:round;}
  </style>
 </defs>
 <g id="figure_1">
  <g id="patch_1">
   <path d="M 0 720.570187 
L 663.124687 720.570187 
L 663.124687 0 
L 0 0 
z
" style="fill:#ffffff;"/>
  </g>
  <g id="axes_1">
   <g id="patch_2">
    <path d="M 85.924688 651.228 
L 643.924688 651.228 
L 643.924688 107.628 
L 85.924688 107.628 
z
" style="fill:#eaeaf2;"/>
   </g>
   <g id="matplotlib.axis_1">
    <g id="xtick_1">
     <g id="line2d_1">
      <path clip-path="url(#p6252bb2ce2)" d="M 112.360677 651.228 
L 112.360677 107.628 
" style="fill:none;stroke:#ffffff;stroke-linecap:round;stroke-width:2;"/>
     </g>
     <g id="text_1">
      <!-- 0 -->
      <defs>
       <path d="M 4.15625 35.296875 
Q 4.15625 48 6.765625 55.734375 
Q 9.375 63.484375 14.515625 67.671875 
Q 19.671875 71.875 27.484375 71.875 
Q 33.25 71.875 37.59375 69.546875 
Q 41.9375 67.234375 44.765625 62.859375 
Q 47.609375 58.5 49.21875 52.21875 
Q 50.828125 45.953125 50.828125 35.296875 
Q 50.828125 22.703125 48.234375 14.96875 
Q 45.65625 7.234375 40.5 3 
Q 35.359375 -1.21875 27.484375 -1.21875 
Q 17.140625 -1.21875 11.234375 6.203125 
Q 4.15625 15.140625 4.15625 35.296875 
z
M 13.1875 35.296875 
Q 13.1875 17.671875 17.3125 11.828125 
Q 21.4375 6 27.484375 6 
Q 33.546875 6 37.671875 11.859375 
Q 41.796875 17.71875 41.796875 35.296875 
Q 41.796875 52.984375 37.671875 58.78125 
Q 33.546875 64.59375 27.390625 64.59375 
Q 21.34375 64.59375 17.71875 59.46875 
Q 13.1875 52.9375 13.1875 35.296875 
z
" id="ArialMT-30"/>
      </defs>
      <g style="fill:#262626;" transform="translate(106.243646 682.475187)scale(0.22 -0.22)">
       <use xlink:href="#ArialMT-30"/>
      </g>
     </g>
    </g>
    <g id="xtick_2">
     <g id="line2d_2">
      <path clip-path="url(#p6252bb2ce2)" d="M 231.438433 651.228 
L 231.438433 107.628 
" style="fill:none;stroke:#ffffff;stroke-linecap:round;stroke-width:2;"/>
     </g>
     <g id="text_2">
      <!-- 50 -->
      <defs>
       <path d="M 4.15625 18.75 
L 13.375 19.53125 
Q 14.40625 12.796875 18.140625 9.390625 
Q 21.875 6 27.15625 6 
Q 33.5 6 37.890625 10.78125 
Q 42.28125 15.578125 42.28125 23.484375 
Q 42.28125 31 38.0625 35.34375 
Q 33.84375 39.703125 27 39.703125 
Q 22.75 39.703125 19.328125 37.765625 
Q 15.921875 35.84375 13.96875 32.765625 
L 5.71875 33.84375 
L 12.640625 70.609375 
L 48.25 70.609375 
L 48.25 62.203125 
L 19.671875 62.203125 
L 15.828125 42.96875 
Q 22.265625 47.46875 29.34375 47.46875 
Q 38.71875 47.46875 45.15625 40.96875 
Q 51.609375 34.46875 51.609375 24.265625 
Q 51.609375 14.546875 45.953125 7.46875 
Q 39.0625 -1.21875 27.15625 -1.21875 
Q 17.390625 -1.21875 11.203125 4.25 
Q 5.03125 9.71875 4.15625 18.75 
z
" id="ArialMT-35"/>
      </defs>
      <g style="fill:#262626;" transform="translate(219.204371 682.475187)scale(0.22 -0.22)">
       <use xlink:href="#ArialMT-35"/>
       <use x="55.615234" xlink:href="#ArialMT-30"/>
      </g>
     </g>
    </g>
    <g id="xtick_3">
     <g id="line2d_3">
      <path clip-path="url(#p6252bb2ce2)" d="M 350.516189 651.228 
L 350.516189 107.628 
" style="fill:none;stroke:#ffffff;stroke-linecap:round;stroke-width:2;"/>
     </g>
     <g id="text_3">
      <!-- 100 -->
      <defs>
       <path d="M 37.25 0 
L 28.46875 0 
L 28.46875 56 
Q 25.296875 52.984375 20.140625 49.953125 
Q 14.984375 46.921875 10.890625 45.40625 
L 10.890625 53.90625 
Q 18.265625 57.375 23.78125 62.296875 
Q 29.296875 67.234375 31.59375 71.875 
L 37.25 71.875 
z
" id="ArialMT-31"/>
      </defs>
      <g style="fill:#262626;" transform="translate(332.165096 682.475187)scale(0.22 -0.22)">
       <use xlink:href="#ArialMT-31"/>
       <use x="55.615234" xlink:href="#ArialMT-30"/>
       <use x="111.230469" xlink:href="#ArialMT-30"/>
      </g>
     </g>
    </g>
    <g id="xtick_4">
     <g id="line2d_4">
      <path clip-path="url(#p6252bb2ce2)" d="M 469.593945 651.228 
L 469.593945 107.628 
" style="fill:none;stroke:#ffffff;stroke-linecap:round;stroke-width:2;"/>
     </g>
     <g id="text_4">
      <!-- 150 -->
      <g style="fill:#262626;" transform="translate(451.242851 682.475187)scale(0.22 -0.22)">
       <use xlink:href="#ArialMT-31"/>
       <use x="55.615234" xlink:href="#ArialMT-35"/>
       <use x="111.230469" xlink:href="#ArialMT-30"/>
      </g>
     </g>
    </g>
    <g id="xtick_5">
     <g id="line2d_5">
      <path clip-path="url(#p6252bb2ce2)" d="M 588.671701 651.228 
L 588.671701 107.628 
" style="fill:none;stroke:#ffffff;stroke-linecap:round;stroke-width:2;"/>
     </g>
     <g id="text_5">
      <!-- 200 -->
      <defs>
       <path d="M 50.34375 8.453125 
L 50.34375 0 
L 3.03125 0 
Q 2.9375 3.171875 4.046875 6.109375 
Q 5.859375 10.9375 9.828125 15.625 
Q 13.8125 20.3125 21.34375 26.46875 
Q 33.015625 36.03125 37.109375 41.625 
Q 41.21875 47.21875 41.21875 52.203125 
Q 41.21875 57.421875 37.46875 61 
Q 33.734375 64.59375 27.734375 64.59375 
Q 21.390625 64.59375 17.578125 60.78125 
Q 13.765625 56.984375 13.71875 50.25 
L 4.6875 51.171875 
Q 5.609375 61.28125 11.65625 66.578125 
Q 17.71875 71.875 27.9375 71.875 
Q 38.234375 71.875 44.234375 66.15625 
Q 50.25 60.453125 50.25 52 
Q 50.25 47.703125 48.484375 43.546875 
Q 46.734375 39.40625 42.65625 34.8125 
Q 38.578125 30.21875 29.109375 22.21875 
Q 21.1875 15.578125 18.9375 13.203125 
Q 16.703125 10.84375 15.234375 8.453125 
z
" id="ArialMT-32"/>
      </defs>
      <g style="fill:#262626;" transform="translate(570.320607 682.475187)scale(0.22 -0.22)">
       <use xlink:href="#ArialMT-32"/>
       <use x="55.615234" xlink:href="#ArialMT-30"/>
       <use x="111.230469" xlink:href="#ArialMT-30"/>
      </g>
     </g>
    </g>
    <g id="text_6">
     <!-- Dengue Cases per 10,000 People -->
     <defs>
      <path d="M 7.71875 0 
L 7.71875 71.578125 
L 32.375 71.578125 
Q 40.71875 71.578125 45.125 70.5625 
Q 51.265625 69.140625 55.609375 65.4375 
Q 61.28125 60.640625 64.078125 53.1875 
Q 66.890625 45.75 66.890625 36.1875 
Q 66.890625 28.03125 64.984375 21.734375 
Q 63.09375 15.4375 60.109375 11.296875 
Q 57.125 7.171875 53.578125 4.796875 
Q 50.046875 2.4375 45.046875 1.21875 
Q 40.046875 0 33.546875 0 
z
M 17.1875 8.453125 
L 32.46875 8.453125 
Q 39.546875 8.453125 43.578125 9.765625 
Q 47.609375 11.078125 50 13.484375 
Q 53.375 16.84375 55.25 22.53125 
Q 57.125 28.21875 57.125 36.328125 
Q 57.125 47.5625 53.4375 53.59375 
Q 49.75 59.625 44.484375 61.671875 
Q 40.671875 63.140625 32.234375 63.140625 
L 17.1875 63.140625 
z
" id="ArialMT-44"/>
      <path d="M 42.09375 16.703125 
L 51.171875 15.578125 
Q 49.03125 7.625 43.21875 3.21875 
Q 37.40625 -1.171875 28.375 -1.171875 
Q 17 -1.171875 10.328125 5.828125 
Q 3.65625 12.84375 3.65625 25.484375 
Q 3.65625 38.578125 10.390625 45.796875 
Q 17.140625 53.03125 27.875 53.03125 
Q 38.28125 53.03125 44.875 45.953125 
Q 51.46875 38.875 51.46875 26.03125 
Q 51.46875 25.25 51.421875 23.6875 
L 12.75 23.6875 
Q 13.234375 15.140625 17.578125 10.59375 
Q 21.921875 6.0625 28.421875 6.0625 
Q 33.25 6.0625 36.671875 8.59375 
Q 40.09375 11.140625 42.09375 16.703125 
z
M 13.234375 30.90625 
L 42.1875 30.90625 
Q 41.609375 37.453125 38.875 40.71875 
Q 34.671875 45.796875 27.984375 45.796875 
Q 21.921875 45.796875 17.796875 41.75 
Q 13.671875 37.703125 13.234375 30.90625 
z
" id="ArialMT-65"/>
      <path d="M 6.59375 0 
L 6.59375 51.859375 
L 14.5 51.859375 
L 14.5 44.484375 
Q 20.21875 53.03125 31 53.03125 
Q 35.6875 53.03125 39.625 51.34375 
Q 43.5625 49.65625 45.515625 46.921875 
Q 47.46875 44.1875 48.25 40.4375 
Q 48.734375 37.984375 48.734375 31.890625 
L 48.734375 0 
L 39.9375 0 
L 39.9375 31.546875 
Q 39.9375 36.921875 38.90625 39.578125 
Q 37.890625 42.234375 35.28125 43.8125 
Q 32.671875 45.40625 29.15625 45.40625 
Q 23.53125 45.40625 19.453125 41.84375 
Q 15.375 38.28125 15.375 28.328125 
L 15.375 0 
z
" id="ArialMT-6e"/>
      <path d="M 4.984375 -4.296875 
L 13.53125 -5.5625 
Q 14.0625 -9.515625 16.5 -11.328125 
Q 19.78125 -13.765625 25.4375 -13.765625 
Q 31.546875 -13.765625 34.859375 -11.328125 
Q 38.1875 -8.890625 39.359375 -4.5 
Q 40.046875 -1.8125 39.984375 6.78125 
Q 34.234375 0 25.640625 0 
Q 14.9375 0 9.078125 7.71875 
Q 3.21875 15.4375 3.21875 26.21875 
Q 3.21875 33.640625 5.90625 39.90625 
Q 8.59375 46.1875 13.6875 49.609375 
Q 18.796875 53.03125 25.6875 53.03125 
Q 34.859375 53.03125 40.828125 45.609375 
L 40.828125 51.859375 
L 48.921875 51.859375 
L 48.921875 7.03125 
Q 48.921875 -5.078125 46.453125 -10.125 
Q 44 -15.1875 38.640625 -18.109375 
Q 33.296875 -21.046875 25.484375 -21.046875 
Q 16.21875 -21.046875 10.5 -16.875 
Q 4.78125 -12.703125 4.984375 -4.296875 
z
M 12.25 26.859375 
Q 12.25 16.65625 16.296875 11.96875 
Q 20.359375 7.28125 26.46875 7.28125 
Q 32.515625 7.28125 36.609375 11.9375 
Q 40.71875 16.609375 40.71875 26.5625 
Q 40.71875 36.078125 36.5 40.90625 
Q 32.28125 45.75 26.3125 45.75 
Q 20.453125 45.75 16.34375 40.984375 
Q 12.25 36.234375 12.25 26.859375 
z
" id="ArialMT-67"/>
      <path d="M 40.578125 0 
L 40.578125 7.625 
Q 34.515625 -1.171875 24.125 -1.171875 
Q 19.53125 -1.171875 15.546875 0.578125 
Q 11.578125 2.34375 9.640625 5 
Q 7.71875 7.671875 6.9375 11.53125 
Q 6.390625 14.109375 6.390625 19.734375 
L 6.390625 51.859375 
L 15.1875 51.859375 
L 15.1875 23.09375 
Q 15.1875 16.21875 15.71875 13.8125 
Q 16.546875 10.359375 19.234375 8.375 
Q 21.921875 6.390625 25.875 6.390625 
Q 29.828125 6.390625 33.296875 8.421875 
Q 36.765625 10.453125 38.203125 13.9375 
Q 39.65625 17.4375 39.65625 24.078125 
L 39.65625 51.859375 
L 48.4375 51.859375 
L 48.4375 0 
z
" id="ArialMT-75"/>
      <path id="ArialMT-20"/>
      <path d="M 58.796875 25.09375 
L 68.265625 22.703125 
Q 65.28125 11.03125 57.546875 4.90625 
Q 49.8125 -1.21875 38.625 -1.21875 
Q 27.046875 -1.21875 19.796875 3.484375 
Q 12.546875 8.203125 8.765625 17.140625 
Q 4.984375 26.078125 4.984375 36.328125 
Q 4.984375 47.515625 9.25 55.828125 
Q 13.53125 64.15625 21.40625 68.46875 
Q 29.296875 72.796875 38.765625 72.796875 
Q 49.515625 72.796875 56.828125 67.328125 
Q 64.15625 61.859375 67.046875 51.953125 
L 57.71875 49.75 
Q 55.21875 57.5625 50.484375 61.125 
Q 45.75 64.703125 38.578125 64.703125 
Q 30.328125 64.703125 24.78125 60.734375 
Q 19.234375 56.78125 16.984375 50.109375 
Q 14.75 43.453125 14.75 36.375 
Q 14.75 27.25 17.40625 20.4375 
Q 20.0625 13.625 25.671875 10.25 
Q 31.296875 6.890625 37.84375 6.890625 
Q 45.796875 6.890625 51.3125 11.46875 
Q 56.84375 16.0625 58.796875 25.09375 
z
" id="ArialMT-43"/>
      <path d="M 40.4375 6.390625 
Q 35.546875 2.25 31.03125 0.53125 
Q 26.515625 -1.171875 21.34375 -1.171875 
Q 12.796875 -1.171875 8.203125 3 
Q 3.609375 7.171875 3.609375 13.671875 
Q 3.609375 17.484375 5.34375 20.625 
Q 7.078125 23.78125 9.890625 25.6875 
Q 12.703125 27.59375 16.21875 28.5625 
Q 18.796875 29.25 24.03125 29.890625 
Q 34.671875 31.15625 39.703125 32.90625 
Q 39.75 34.71875 39.75 35.203125 
Q 39.75 40.578125 37.25 42.78125 
Q 33.890625 45.75 27.25 45.75 
Q 21.046875 45.75 18.09375 43.578125 
Q 15.140625 41.40625 13.71875 35.890625 
L 5.125 37.0625 
Q 6.296875 42.578125 8.984375 45.96875 
Q 11.671875 49.359375 16.75 51.1875 
Q 21.828125 53.03125 28.515625 53.03125 
Q 35.15625 53.03125 39.296875 51.46875 
Q 43.453125 49.90625 45.40625 47.53125 
Q 47.359375 45.171875 48.140625 41.546875 
Q 48.578125 39.3125 48.578125 33.453125 
L 48.578125 21.734375 
Q 48.578125 9.46875 49.140625 6.21875 
Q 49.703125 2.984375 51.375 0 
L 42.1875 0 
Q 40.828125 2.734375 40.4375 6.390625 
z
M 39.703125 26.03125 
Q 34.90625 24.078125 25.34375 22.703125 
Q 19.921875 21.921875 17.671875 20.9375 
Q 15.4375 19.96875 14.203125 18.09375 
Q 12.984375 16.21875 12.984375 13.921875 
Q 12.984375 10.40625 15.640625 8.0625 
Q 18.3125 5.71875 23.4375 5.71875 
Q 28.515625 5.71875 32.46875 7.9375 
Q 36.421875 10.15625 38.28125 14.015625 
Q 39.703125 17 39.703125 22.796875 
z
" id="ArialMT-61"/>
      <path d="M 3.078125 15.484375 
L 11.765625 16.84375 
Q 12.5 11.625 15.84375 8.84375 
Q 19.1875 6.0625 25.203125 6.0625 
Q 31.25 6.0625 34.171875 8.515625 
Q 37.109375 10.984375 37.109375 14.3125 
Q 37.109375 17.28125 34.515625 19 
Q 32.71875 20.171875 25.53125 21.96875 
Q 15.875 24.421875 12.140625 26.203125 
Q 8.40625 27.984375 6.46875 31.125 
Q 4.546875 34.28125 4.546875 38.09375 
Q 4.546875 41.546875 6.125 44.5 
Q 7.71875 47.46875 10.453125 49.421875 
Q 12.5 50.921875 16.03125 51.96875 
Q 19.578125 53.03125 23.640625 53.03125 
Q 29.734375 53.03125 34.34375 51.265625 
Q 38.96875 49.515625 41.15625 46.5 
Q 43.359375 43.5 44.1875 38.484375 
L 35.59375 37.3125 
Q 35.015625 41.3125 32.203125 43.546875 
Q 29.390625 45.796875 24.265625 45.796875 
Q 18.21875 45.796875 15.625 43.796875 
Q 13.03125 41.796875 13.03125 39.109375 
Q 13.03125 37.40625 14.109375 36.03125 
Q 15.1875 34.625 17.484375 33.6875 
Q 18.796875 33.203125 25.25 31.453125 
Q 34.578125 28.953125 38.25 27.359375 
Q 41.9375 25.78125 44.03125 22.75 
Q 46.140625 19.734375 46.140625 15.234375 
Q 46.140625 10.84375 43.578125 6.953125 
Q 41.015625 3.078125 36.171875 0.953125 
Q 31.34375 -1.171875 25.25 -1.171875 
Q 15.140625 -1.171875 9.84375 3.03125 
Q 4.546875 7.234375 3.078125 15.484375 
z
" id="ArialMT-73"/>
      <path d="M 6.59375 -19.875 
L 6.59375 51.859375 
L 14.59375 51.859375 
L 14.59375 45.125 
Q 17.4375 49.078125 21 51.046875 
Q 24.5625 53.03125 29.640625 53.03125 
Q 36.28125 53.03125 41.359375 49.609375 
Q 46.4375 46.1875 49.015625 39.953125 
Q 51.609375 33.734375 51.609375 26.3125 
Q 51.609375 18.359375 48.75 11.984375 
Q 45.90625 5.609375 40.453125 2.21875 
Q 35.015625 -1.171875 29 -1.171875 
Q 24.609375 -1.171875 21.109375 0.6875 
Q 17.625 2.546875 15.375 5.375 
L 15.375 -19.875 
z
M 14.546875 25.640625 
Q 14.546875 15.625 18.59375 10.84375 
Q 22.65625 6.0625 28.421875 6.0625 
Q 34.28125 6.0625 38.453125 11.015625 
Q 42.625 15.96875 42.625 26.375 
Q 42.625 36.28125 38.546875 41.203125 
Q 34.46875 46.140625 28.8125 46.140625 
Q 23.1875 46.140625 18.859375 40.890625 
Q 14.546875 35.640625 14.546875 25.640625 
z
" id="ArialMT-70"/>
      <path d="M 6.5 0 
L 6.5 51.859375 
L 14.40625 51.859375 
L 14.40625 44 
Q 17.4375 49.515625 20 51.265625 
Q 22.5625 53.03125 25.640625 53.03125 
Q 30.078125 53.03125 34.671875 50.203125 
L 31.640625 42.046875 
Q 28.421875 43.953125 25.203125 43.953125 
Q 22.3125 43.953125 20.015625 42.21875 
Q 17.71875 40.484375 16.75 37.40625 
Q 15.28125 32.71875 15.28125 27.15625 
L 15.28125 0 
z
" id="ArialMT-72"/>
      <path d="M 8.890625 0 
L 8.890625 10.015625 
L 18.890625 10.015625 
L 18.890625 0 
Q 18.890625 -5.515625 16.9375 -8.90625 
Q 14.984375 -12.3125 10.75 -14.15625 
L 8.296875 -10.40625 
Q 11.078125 -9.1875 12.390625 -6.8125 
Q 13.71875 -4.4375 13.875 0 
z
" id="ArialMT-2c"/>
      <path d="M 7.71875 0 
L 7.71875 71.578125 
L 34.71875 71.578125 
Q 41.84375 71.578125 45.609375 70.90625 
Q 50.875 70.015625 54.4375 67.546875 
Q 58.015625 65.09375 60.1875 60.640625 
Q 62.359375 56.203125 62.359375 50.875 
Q 62.359375 41.75 56.546875 35.421875 
Q 50.734375 29.109375 35.546875 29.109375 
L 17.1875 29.109375 
L 17.1875 0 
z
M 17.1875 37.546875 
L 35.6875 37.546875 
Q 44.875 37.546875 48.734375 40.96875 
Q 52.59375 44.390625 52.59375 50.59375 
Q 52.59375 55.078125 50.3125 58.265625 
Q 48.046875 61.46875 44.34375 62.5 
Q 41.9375 63.140625 35.5 63.140625 
L 17.1875 63.140625 
z
" id="ArialMT-50"/>
      <path d="M 3.328125 25.921875 
Q 3.328125 40.328125 11.328125 47.265625 
Q 18.015625 53.03125 27.640625 53.03125 
Q 38.328125 53.03125 45.109375 46.015625 
Q 51.90625 39.015625 51.90625 26.65625 
Q 51.90625 16.65625 48.90625 10.90625 
Q 45.90625 5.171875 40.15625 2 
Q 34.421875 -1.171875 27.640625 -1.171875 
Q 16.75 -1.171875 10.03125 5.8125 
Q 3.328125 12.796875 3.328125 25.921875 
z
M 12.359375 25.921875 
Q 12.359375 15.96875 16.703125 11.015625 
Q 21.046875 6.0625 27.640625 6.0625 
Q 34.1875 6.0625 38.53125 11.03125 
Q 42.875 16.015625 42.875 26.21875 
Q 42.875 35.84375 38.5 40.796875 
Q 34.125 45.75 27.640625 45.75 
Q 21.046875 45.75 16.703125 40.8125 
Q 12.359375 35.890625 12.359375 25.921875 
z
" id="ArialMT-6f"/>
      <path d="M 6.390625 0 
L 6.390625 71.578125 
L 15.1875 71.578125 
L 15.1875 0 
z
" id="ArialMT-6c"/>
     </defs>
     <g style="fill:#262626;" transform="translate(184.140938 708.318937)scale(0.24 -0.24)">
      <use xlink:href="#ArialMT-44"/>
      <use x="72.216797" xlink:href="#ArialMT-65"/>
      <use x="127.832031" xlink:href="#ArialMT-6e"/>
      <use x="183.447266" xlink:href="#ArialMT-67"/>
      <use x="239.0625" xlink:href="#ArialMT-75"/>
      <use x="294.677734" xlink:href="#ArialMT-65"/>
      <use x="350.292969" xlink:href="#ArialMT-20"/>
      <use x="378.076172" xlink:href="#ArialMT-43"/>
      <use x="450.292969" xlink:href="#ArialMT-61"/>
      <use x="505.908203" xlink:href="#ArialMT-73"/>
      <use x="555.908203" xlink:href="#ArialMT-65"/>
      <use x="611.523438" xlink:href="#ArialMT-73"/>
      <use x="661.523438" xlink:href="#ArialMT-20"/>
      <use x="689.306641" xlink:href="#ArialMT-70"/>
      <use x="744.921875" xlink:href="#ArialMT-65"/>
      <use x="800.537109" xlink:href="#ArialMT-72"/>
      <use x="833.837891" xlink:href="#ArialMT-20"/>
      <use x="861.621094" xlink:href="#ArialMT-31"/>
      <use x="917.236328" xlink:href="#ArialMT-30"/>
      <use x="972.851562" xlink:href="#ArialMT-2c"/>
      <use x="1000.634766" xlink:href="#ArialMT-30"/>
      <use x="1056.25" xlink:href="#ArialMT-30"/>
      <use x="1111.865234" xlink:href="#ArialMT-30"/>
      <use x="1167.480469" xlink:href="#ArialMT-20"/>
      <use x="1195.263672" xlink:href="#ArialMT-50"/>
      <use x="1261.962891" xlink:href="#ArialMT-65"/>
      <use x="1317.578125" xlink:href="#ArialMT-6f"/>
      <use x="1373.193359" xlink:href="#ArialMT-70"/>
      <use x="1428.808594" xlink:href="#ArialMT-6c"/>
      <use x="1451.025391" xlink:href="#ArialMT-65"/>
     </g>
    </g>
   </g>
   <g id="matplotlib.axis_2">
    <g id="ytick_1">
     <g id="line2d_6">
      <path clip-path="url(#p6252bb2ce2)" d="M 85.924688 592.045269 
L 643.924688 592.045269 
" style="fill:none;stroke:#ffffff;stroke-linecap:round;stroke-width:2;"/>
     </g>
     <g id="text_7">
      <!-- 0 -->
      <g style="fill:#262626;" transform="translate(58.190625 599.918862)scale(0.22 -0.22)">
       <use xlink:href="#ArialMT-30"/>
      </g>
     </g>
    </g>
    <g id="ytick_2">
     <g id="line2d_7">
      <path clip-path="url(#p6252bb2ce2)" d="M 85.924688 478.706148 
L 643.924688 478.706148 
" style="fill:none;stroke:#ffffff;stroke-linecap:round;stroke-width:2;"/>
     </g>
     <g id="text_8">
      <!-- 50 -->
      <g style="fill:#262626;" transform="translate(45.956563 486.579741)scale(0.22 -0.22)">
       <use xlink:href="#ArialMT-35"/>
       <use x="55.615234" xlink:href="#ArialMT-30"/>
      </g>
     </g>
    </g>
    <g id="ytick_3">
     <g id="line2d_8">
      <path clip-path="url(#p6252bb2ce2)" d="M 85.924688 365.367026 
L 643.924688 365.367026 
" style="fill:none;stroke:#ffffff;stroke-linecap:round;stroke-width:2;"/>
     </g>
     <g id="text_9">
      <!-- 100 -->
      <g style="fill:#262626;" transform="translate(33.7225 373.24062)scale(0.22 -0.22)">
       <use xlink:href="#ArialMT-31"/>
       <use x="55.615234" xlink:href="#ArialMT-30"/>
       <use x="111.230469" xlink:href="#ArialMT-30"/>
      </g>
     </g>
    </g>
    <g id="ytick_4">
     <g id="line2d_9">
      <path clip-path="url(#p6252bb2ce2)" d="M 85.924688 252.027905 
L 643.924688 252.027905 
" style="fill:none;stroke:#ffffff;stroke-linecap:round;stroke-width:2;"/>
     </g>
     <g id="text_10">
      <!-- 150 -->
      <g style="fill:#262626;" transform="translate(33.7225 259.901499)scale(0.22 -0.22)">
       <use xlink:href="#ArialMT-31"/>
       <use x="55.615234" xlink:href="#ArialMT-35"/>
       <use x="111.230469" xlink:href="#ArialMT-30"/>
      </g>
     </g>
    </g>
    <g id="ytick_5">
     <g id="line2d_10">
      <path clip-path="url(#p6252bb2ce2)" d="M 85.924688 138.688784 
L 643.924688 138.688784 
" style="fill:none;stroke:#ffffff;stroke-linecap:round;stroke-width:2;"/>
     </g>
     <g id="text_11">
      <!-- 200 -->
      <g style="fill:#262626;" transform="translate(33.7225 146.562378)scale(0.22 -0.22)">
       <use xlink:href="#ArialMT-32"/>
       <use x="55.615234" xlink:href="#ArialMT-30"/>
       <use x="111.230469" xlink:href="#ArialMT-30"/>
      </g>
     </g>
    </g>
    <g id="text_12">
     <!-- Predicted Dengue Cases -->
     <defs>
      <path d="M 40.234375 0 
L 40.234375 6.546875 
Q 35.296875 -1.171875 25.734375 -1.171875 
Q 19.53125 -1.171875 14.328125 2.25 
Q 9.125 5.671875 6.265625 11.796875 
Q 3.421875 17.921875 3.421875 25.875 
Q 3.421875 33.640625 6 39.96875 
Q 8.59375 46.296875 13.765625 49.65625 
Q 18.953125 53.03125 25.34375 53.03125 
Q 30.03125 53.03125 33.6875 51.046875 
Q 37.359375 49.078125 39.65625 45.90625 
L 39.65625 71.578125 
L 48.390625 71.578125 
L 48.390625 0 
z
M 12.453125 25.875 
Q 12.453125 15.921875 16.640625 10.984375 
Q 20.84375 6.0625 26.5625 6.0625 
Q 32.328125 6.0625 36.34375 10.765625 
Q 40.375 15.484375 40.375 25.140625 
Q 40.375 35.796875 36.265625 40.765625 
Q 32.171875 45.75 26.171875 45.75 
Q 20.3125 45.75 16.375 40.96875 
Q 12.453125 36.1875 12.453125 25.875 
z
" id="ArialMT-64"/>
      <path d="M 6.640625 61.46875 
L 6.640625 71.578125 
L 15.4375 71.578125 
L 15.4375 61.46875 
z
M 6.640625 0 
L 6.640625 51.859375 
L 15.4375 51.859375 
L 15.4375 0 
z
" id="ArialMT-69"/>
      <path d="M 40.4375 19 
L 49.078125 17.875 
Q 47.65625 8.9375 41.8125 3.875 
Q 35.984375 -1.171875 27.484375 -1.171875 
Q 16.84375 -1.171875 10.375 5.78125 
Q 3.90625 12.75 3.90625 25.734375 
Q 3.90625 34.125 6.6875 40.421875 
Q 9.46875 46.734375 15.15625 49.875 
Q 20.84375 53.03125 27.546875 53.03125 
Q 35.984375 53.03125 41.359375 48.75 
Q 46.734375 44.484375 48.25 36.625 
L 39.703125 35.296875 
Q 38.484375 40.53125 35.375 43.15625 
Q 32.28125 45.796875 27.875 45.796875 
Q 21.234375 45.796875 17.078125 41.03125 
Q 12.9375 36.28125 12.9375 25.984375 
Q 12.9375 15.53125 16.9375 10.796875 
Q 20.953125 6.0625 27.390625 6.0625 
Q 32.5625 6.0625 36.03125 9.234375 
Q 39.5 12.40625 40.4375 19 
z
" id="ArialMT-63"/>
      <path d="M 25.78125 7.859375 
L 27.046875 0.09375 
Q 23.34375 -0.6875 20.40625 -0.6875 
Q 15.625 -0.6875 12.984375 0.828125 
Q 10.359375 2.34375 9.28125 4.8125 
Q 8.203125 7.28125 8.203125 15.1875 
L 8.203125 45.015625 
L 1.765625 45.015625 
L 1.765625 51.859375 
L 8.203125 51.859375 
L 8.203125 64.703125 
L 16.9375 69.96875 
L 16.9375 51.859375 
L 25.78125 51.859375 
L 25.78125 45.015625 
L 16.9375 45.015625 
L 16.9375 14.703125 
Q 16.9375 10.9375 17.40625 9.859375 
Q 17.875 8.796875 18.921875 8.15625 
Q 19.96875 7.515625 21.921875 7.515625 
Q 23.390625 7.515625 25.78125 7.859375 
z
" id="ArialMT-74"/>
     </defs>
     <g style="fill:#262626;" transform="translate(24.67125 512.832375)rotate(-90)scale(0.24 -0.24)">
      <use xlink:href="#ArialMT-50"/>
      <use x="66.699219" xlink:href="#ArialMT-72"/>
      <use x="100" xlink:href="#ArialMT-65"/>
      <use x="155.615234" xlink:href="#ArialMT-64"/>
      <use x="211.230469" xlink:href="#ArialMT-69"/>
      <use x="233.447266" xlink:href="#ArialMT-63"/>
      <use x="283.447266" xlink:href="#ArialMT-74"/>
      <use x="311.230469" xlink:href="#ArialMT-65"/>
      <use x="366.845703" xlink:href="#ArialMT-64"/>
      <use x="422.460938" xlink:href="#ArialMT-20"/>
      <use x="450.244141" xlink:href="#ArialMT-44"/>
      <use x="522.460938" xlink:href="#ArialMT-65"/>
      <use x="578.076172" xlink:href="#ArialMT-6e"/>
      <use x="633.691406" xlink:href="#ArialMT-67"/>
      <use x="689.306641" xlink:href="#ArialMT-75"/>
      <use x="744.921875" xlink:href="#ArialMT-65"/>
      <use x="800.537109" xlink:href="#ArialMT-20"/>
      <use x="828.320312" xlink:href="#ArialMT-43"/>
      <use x="900.537109" xlink:href="#ArialMT-61"/>
      <use x="956.152344" xlink:href="#ArialMT-73"/>
      <use x="1006.152344" xlink:href="#ArialMT-65"/>
      <use x="1061.767578" xlink:href="#ArialMT-73"/>
     </g>
    </g>
   </g>
   <g id="PathCollection_1">
    <defs>
     <path d="M 0 6 
C 1.591219 6 3.117479 5.367802 4.242641 4.242641 
C 5.367802 3.117479 6 1.591219 6 0 
C 6 -1.591219 5.367802 -3.117479 4.242641 -4.242641 
C 3.117479 -5.367802 1.591219 -6 0 -6 
C -1.591219 -6 -3.117479 -5.367802 -4.242641 -4.242641 
C -5.367802 -3.117479 -6 -1.591219 -6 0 
C -6 1.591219 -5.367802 3.117479 -4.242641 4.242641 
C -3.117479 5.367802 -1.591219 6 0 6 
z
" id="md085cf5b7b" style="stroke:#4c72b0;stroke-opacity:0.65;"/>
    </defs>
    <g clip-path="url(#p6252bb2ce2)">
     <use style="fill:#4c72b0;fill-opacity:0.65;stroke:#4c72b0;stroke-opacity:0.65;" x="370.66079" xlink:href="#md085cf5b7b" y="421.714651"/>
     <use style="fill:#4c72b0;fill-opacity:0.65;stroke:#4c72b0;stroke-opacity:0.65;" x="419.350022" xlink:href="#md085cf5b7b" y="370.836689"/>
     <use style="fill:#4c72b0;fill-opacity:0.65;stroke:#4c72b0;stroke-opacity:0.65;" x="521.501458" xlink:href="#md085cf5b7b" y="356.818868"/>
     <use style="fill:#4c72b0;fill-opacity:0.65;stroke:#4c72b0;stroke-opacity:0.65;" x="469.047995" xlink:href="#md085cf5b7b" y="340.904282"/>
     <use style="fill:#4c72b0;fill-opacity:0.65;stroke:#4c72b0;stroke-opacity:0.65;" x="461.362607" xlink:href="#md085cf5b7b" y="378.195425"/>
     <use style="fill:#4c72b0;fill-opacity:0.65;stroke:#4c72b0;stroke-opacity:0.65;" x="595.344996" xlink:href="#md085cf5b7b" y="363.46396"/>
     <use style="fill:#4c72b0;fill-opacity:0.65;stroke:#4c72b0;stroke-opacity:0.65;" x="336.4631" xlink:href="#md085cf5b7b" y="446.333329"/>
     <use style="fill:#4c72b0;fill-opacity:0.65;stroke:#4c72b0;stroke-opacity:0.65;" x="429.264658" xlink:href="#md085cf5b7b" y="355.077736"/>
     <use style="fill:#4c72b0;fill-opacity:0.65;stroke:#4c72b0;stroke-opacity:0.65;" x="193.365954" xlink:href="#md085cf5b7b" y="410.034159"/>
     <use style="fill:#4c72b0;fill-opacity:0.65;stroke:#4c72b0;stroke-opacity:0.65;" x="153.098876" xlink:href="#md085cf5b7b" y="626.36434"/>
     <use style="fill:#4c72b0;fill-opacity:0.65;stroke:#4c72b0;stroke-opacity:0.65;" x="161.194637" xlink:href="#md085cf5b7b" y="528.193839"/>
     <use style="fill:#4c72b0;fill-opacity:0.65;stroke:#4c72b0;stroke-opacity:0.65;" x="215.768214" xlink:href="#md085cf5b7b" y="453.743297"/>
     <use style="fill:#4c72b0;fill-opacity:0.65;stroke:#4c72b0;stroke-opacity:0.65;" x="147.766615" xlink:href="#md085cf5b7b" y="456.916337"/>
     <use style="fill:#4c72b0;fill-opacity:0.65;stroke:#4c72b0;stroke-opacity:0.65;" x="144.762788" xlink:href="#md085cf5b7b" y="474.285374"/>
     <use style="fill:#4c72b0;fill-opacity:0.65;stroke:#4c72b0;stroke-opacity:0.65;" x="295.998662" xlink:href="#md085cf5b7b" y="405.359724"/>
     <use style="fill:#4c72b0;fill-opacity:0.65;stroke:#4c72b0;stroke-opacity:0.65;" x="206.061207" xlink:href="#md085cf5b7b" y="511.166668"/>
     <use style="fill:#4c72b0;fill-opacity:0.65;stroke:#4c72b0;stroke-opacity:0.65;" x="200.471241" xlink:href="#md085cf5b7b" y="464.71635"/>
     <use style="fill:#4c72b0;fill-opacity:0.65;stroke:#4c72b0;stroke-opacity:0.65;" x="225.161607" xlink:href="#md085cf5b7b" y="454.128444"/>
     <use style="fill:#4c72b0;fill-opacity:0.65;stroke:#4c72b0;stroke-opacity:0.65;" x="303.384688" xlink:href="#md085cf5b7b" y="432.594768"/>
     <use style="fill:#4c72b0;fill-opacity:0.65;stroke:#4c72b0;stroke-opacity:0.65;" x="258.608085" xlink:href="#md085cf5b7b" y="394.290768"/>
     <use style="fill:#4c72b0;fill-opacity:0.65;stroke:#4c72b0;stroke-opacity:0.65;" x="225.115329" xlink:href="#md085cf5b7b" y="523.115764"/>
     <use style="fill:#4c72b0;fill-opacity:0.65;stroke:#4c72b0;stroke-opacity:0.65;" x="331.824754" xlink:href="#md085cf5b7b" y="379.04833"/>
     <use style="fill:#4c72b0;fill-opacity:0.65;stroke:#4c72b0;stroke-opacity:0.65;" x="210.920144" xlink:href="#md085cf5b7b" y="383.250441"/>
     <use style="fill:#4c72b0;fill-opacity:0.65;stroke:#4c72b0;stroke-opacity:0.65;" x="252.31865" xlink:href="#md085cf5b7b" y="434.75181"/>
     <use style="fill:#4c72b0;fill-opacity:0.65;stroke:#4c72b0;stroke-opacity:0.65;" x="164.44375" xlink:href="#md085cf5b7b" y="539.821793"/>
     <use style="fill:#4c72b0;fill-opacity:0.65;stroke:#4c72b0;stroke-opacity:0.65;" x="208.624021" xlink:href="#md085cf5b7b" y="531.871318"/>
     <use style="fill:#4c72b0;fill-opacity:0.65;stroke:#4c72b0;stroke-opacity:0.65;" x="262.810678" xlink:href="#md085cf5b7b" y="434.753049"/>
     <use style="fill:#4c72b0;fill-opacity:0.65;stroke:#4c72b0;stroke-opacity:0.65;" x="340.754208" xlink:href="#md085cf5b7b" y="493.950445"/>
     <use style="fill:#4c72b0;fill-opacity:0.65;stroke:#4c72b0;stroke-opacity:0.65;" x="195.408469" xlink:href="#md085cf5b7b" y="531.469791"/>
     <use style="fill:#4c72b0;fill-opacity:0.65;stroke:#4c72b0;stroke-opacity:0.65;" x="199.958107" xlink:href="#md085cf5b7b" y="540.074398"/>
     <use style="fill:#4c72b0;fill-opacity:0.65;stroke:#4c72b0;stroke-opacity:0.65;" x="185.395846" xlink:href="#md085cf5b7b" y="598.102638"/>
     <use style="fill:#4c72b0;fill-opacity:0.65;stroke:#4c72b0;stroke-opacity:0.65;" x="239.590571" xlink:href="#md085cf5b7b" y="389.249075"/>
     <use style="fill:#4c72b0;fill-opacity:0.65;stroke:#4c72b0;stroke-opacity:0.65;" x="151.980839" xlink:href="#md085cf5b7b" y="436.789794"/>
     <use style="fill:#4c72b0;fill-opacity:0.65;stroke:#4c72b0;stroke-opacity:0.65;" x="134.504379" xlink:href="#md085cf5b7b" y="519.169651"/>
     <use style="fill:#4c72b0;fill-opacity:0.65;stroke:#4c72b0;stroke-opacity:0.65;" x="199.894864" xlink:href="#md085cf5b7b" y="457.997881"/>
     <use style="fill:#4c72b0;fill-opacity:0.65;stroke:#4c72b0;stroke-opacity:0.65;" x="173.187047" xlink:href="#md085cf5b7b" y="508.676572"/>
     <use style="fill:#4c72b0;fill-opacity:0.65;stroke:#4c72b0;stroke-opacity:0.65;" x="184.109702" xlink:href="#md085cf5b7b" y="444.614036"/>
     <use style="fill:#4c72b0;fill-opacity:0.65;stroke:#4c72b0;stroke-opacity:0.65;" x="226.273094" xlink:href="#md085cf5b7b" y="387.96959"/>
     <use style="fill:#4c72b0;fill-opacity:0.65;stroke:#4c72b0;stroke-opacity:0.65;" x="246.776205" xlink:href="#md085cf5b7b" y="529.714986"/>
     <use style="fill:#4c72b0;fill-opacity:0.65;stroke:#4c72b0;stroke-opacity:0.65;" x="167.546043" xlink:href="#md085cf5b7b" y="560.538776"/>
     <use style="fill:#4c72b0;fill-opacity:0.65;stroke:#4c72b0;stroke-opacity:0.65;" x="190.604788" xlink:href="#md085cf5b7b" y="503.339932"/>
     <use style="fill:#4c72b0;fill-opacity:0.65;stroke:#4c72b0;stroke-opacity:0.65;" x="181.621759" xlink:href="#md085cf5b7b" y="487.773856"/>
     <use style="fill:#4c72b0;fill-opacity:0.65;stroke:#4c72b0;stroke-opacity:0.65;" x="161.864681" xlink:href="#md085cf5b7b" y="525.170599"/>
     <use style="fill:#4c72b0;fill-opacity:0.65;stroke:#4c72b0;stroke-opacity:0.65;" x="167.788648" xlink:href="#md085cf5b7b" y="554.662766"/>
     <use style="fill:#4c72b0;fill-opacity:0.65;stroke:#4c72b0;stroke-opacity:0.65;" x="140.085417" xlink:href="#md085cf5b7b" y="469.562721"/>
     <use style="fill:#4c72b0;fill-opacity:0.65;stroke:#4c72b0;stroke-opacity:0.65;" x="158.042681" xlink:href="#md085cf5b7b" y="585.26455"/>
     <use style="fill:#4c72b0;fill-opacity:0.65;stroke:#4c72b0;stroke-opacity:0.65;" x="157.319916" xlink:href="#md085cf5b7b" y="446.791836"/>
    </g>
   </g>
   <g id="PolyCollection_1">
    <defs>
     <path d="M 111.288324 -219.539844 
L 111.288324 -168.163968 
L 116.412291 -171.093587 
L 121.536258 -173.940944 
L 126.660225 -176.782425 
L 131.784192 -179.734355 
L 136.908159 -182.506261 
L 142.032126 -185.251879 
L 147.156092 -187.931168 
L 152.280059 -190.661847 
L 157.404026 -193.392526 
L 162.527993 -196.201518 
L 167.65196 -198.90671 
L 172.775927 -201.669125 
L 177.899894 -204.437965 
L 183.023861 -207.341912 
L 188.147828 -210.385365 
L 193.271795 -213.128453 
L 198.395762 -215.860502 
L 203.519729 -218.58733 
L 208.643696 -221.34476 
L 213.767663 -224.053822 
L 218.89163 -226.827514 
L 224.015597 -229.329247 
L 229.139564 -231.831465 
L 234.26353 -234.369749 
L 239.387497 -237.065277 
L 244.511464 -239.415361 
L 249.635431 -242.150658 
L 254.759398 -244.826706 
L 259.883365 -247.161412 
L 265.007332 -249.662697 
L 270.131299 -252.088271 
L 275.255266 -254.298845 
L 280.379233 -256.740099 
L 285.5032 -258.91843 
L 290.627167 -261.207213 
L 295.751134 -263.543385 
L 300.875101 -265.941465 
L 305.999068 -268.323011 
L 311.123035 -270.711631 
L 316.247002 -272.988661 
L 321.370968 -275.457792 
L 326.494935 -277.701567 
L 331.618902 -279.771669 
L 336.742869 -281.970344 
L 341.866836 -284.334068 
L 346.990803 -286.231347 
L 352.11477 -288.353737 
L 357.238737 -290.412106 
L 362.362704 -292.099121 
L 367.486671 -294.267924 
L 372.610638 -296.489586 
L 377.734605 -298.572944 
L 382.858572 -300.652782 
L 387.982539 -302.750235 
L 393.106506 -304.526102 
L 398.230473 -306.517722 
L 403.35444 -308.725766 
L 408.478407 -310.468455 
L 413.602373 -312.451017 
L 418.72634 -314.690256 
L 423.850307 -316.918839 
L 428.974274 -318.921873 
L 434.098241 -320.816496 
L 439.222208 -322.706147 
L 444.346175 -324.603666 
L 449.470142 -326.629689 
L 454.594109 -328.552055 
L 459.718076 -330.442558 
L 464.842043 -332.33497 
L 469.96601 -334.22563 
L 475.089977 -336.113289 
L 480.213944 -338.083559 
L 485.337911 -340.066635 
L 490.461878 -342.095423 
L 495.585845 -343.824613 
L 500.709811 -345.608496 
L 505.833778 -347.455469 
L 510.957745 -349.242151 
L 516.081712 -351.10706 
L 521.205679 -352.998439 
L 526.329646 -354.889178 
L 531.453613 -356.780243 
L 536.57758 -358.512412 
L 541.701547 -360.146253 
L 546.825514 -362.053344 
L 551.949481 -364.008702 
L 557.073448 -365.96406 
L 562.197415 -367.919418 
L 567.321382 -369.874776 
L 572.445349 -371.749953 
L 577.569316 -373.483802 
L 582.693283 -375.217651 
L 587.817249 -376.951501 
L 592.941216 -378.687383 
L 598.065183 -380.428422 
L 603.18915 -382.385953 
L 608.313117 -384.470795 
L 613.437084 -386.223047 
L 618.561051 -387.951988 
L 618.561051 -470.283809 
L 618.561051 -470.283809 
L 613.437084 -467.46089 
L 608.313117 -464.637789 
L 603.18915 -461.782458 
L 598.065183 -458.68331 
L 592.941216 -455.583061 
L 587.817249 -452.482812 
L 582.693283 -449.382563 
L 577.569316 -446.282314 
L 572.445349 -443.182065 
L 567.321382 -440.364138 
L 562.197415 -437.751627 
L 557.073448 -435.129879 
L 551.949481 -432.139938 
L 546.825514 -429.06291 
L 541.701547 -425.985881 
L 536.57758 -422.953282 
L 531.453613 -420.168219 
L 526.329646 -417.312824 
L 521.205679 -414.347783 
L 516.081712 -411.430077 
L 510.957745 -408.756329 
L 505.833778 -405.945089 
L 500.709811 -403.125071 
L 495.585845 -400.030341 
L 490.461878 -396.931094 
L 485.337911 -393.897181 
L 480.213944 -390.781707 
L 475.089977 -387.793539 
L 469.96601 -384.790477 
L 464.842043 -381.93781 
L 459.718076 -378.993081 
L 454.594109 -375.949846 
L 449.470142 -373.23264 
L 444.346175 -370.516322 
L 439.222208 -367.774197 
L 434.098241 -364.828501 
L 428.974274 -362.16134 
L 423.850307 -359.49418 
L 418.72634 -356.827019 
L 413.602373 -354.159859 
L 408.478407 -351.440129 
L 403.35444 -348.633898 
L 398.230473 -345.866368 
L 393.106506 -343.004131 
L 387.982539 -340.318453 
L 382.858572 -337.425623 
L 377.734605 -334.719185 
L 372.610638 -331.706603 
L 367.486671 -328.742333 
L 362.362704 -326.352851 
L 357.238737 -324.214668 
L 352.11477 -321.495251 
L 346.990803 -318.975576 
L 341.866836 -316.169021 
L 336.742869 -313.422511 
L 331.618902 -310.560929 
L 326.494935 -307.900733 
L 321.370968 -305.394232 
L 316.247002 -302.891437 
L 311.123035 -300.38752 
L 305.999068 -297.703652 
L 300.875101 -295.225687 
L 295.751134 -292.531587 
L 290.627167 -290.136267 
L 285.5032 -287.756584 
L 280.379233 -285.347747 
L 275.255266 -283.110301 
L 270.131299 -280.994308 
L 265.007332 -279.025392 
L 259.883365 -276.885079 
L 254.759398 -274.655579 
L 249.635431 -272.426079 
L 244.511464 -270.196579 
L 239.387497 -267.962613 
L 234.26353 -266.137558 
L 229.139564 -264.18817 
L 224.015597 -262.45701 
L 218.89163 -260.611456 
L 213.767663 -258.531513 
L 208.643696 -256.438836 
L 203.519729 -254.324915 
L 198.395762 -252.109292 
L 193.271795 -249.876468 
L 188.147828 -247.789668 
L 183.023861 -245.975581 
L 177.899894 -243.924771 
L 172.775927 -242.195839 
L 167.65196 -240.370629 
L 162.527993 -238.487093 
L 157.404026 -236.57222 
L 152.280059 -234.671518 
L 147.156092 -232.860101 
L 142.032126 -230.958714 
L 136.908159 -229.073089 
L 131.784192 -227.084303 
L 126.660225 -225.134863 
L 121.536258 -223.373229 
L 116.412291 -221.535311 
L 111.288324 -219.539844 
z
" id="md8ff0eb552" style="stroke:#ffffff;stroke-opacity:0.15;stroke-width:2;"/>
    </defs>
    <g clip-path="url(#p6252bb2ce2)">
     <use style="fill:#4c72b0;fill-opacity:0.15;stroke:#ffffff;stroke-opacity:0.15;stroke-width:2;" x="0" xlink:href="#md8ff0eb552" y="720.570187"/>
    </g>
   </g>
   <g id="line2d_11">
    <path clip-path="url(#p6252bb2ce2)" d="M 111.288324 523.971535 
L 116.412291 521.720376 
L 121.536258 519.469217 
L 126.660225 517.218058 
L 131.784192 514.966899 
L 136.908159 512.715739 
L 142.032126 510.46458 
L 147.156092 508.213421 
L 152.280059 505.962262 
L 157.404026 503.711103 
L 162.527993 501.459944 
L 167.65196 499.208785 
L 172.775927 496.957626 
L 177.899894 494.706467 
L 183.023861 492.455308 
L 188.147828 490.204149 
L 193.271795 487.95299 
L 198.395762 485.701831 
L 203.519729 483.450671 
L 208.643696 481.199512 
L 213.767663 478.948353 
L 218.89163 476.697194 
L 224.015597 474.446035 
L 229.139564 472.194876 
L 234.26353 469.943717 
L 239.387497 467.692558 
L 244.511464 465.441399 
L 249.635431 463.19024 
L 254.759398 460.939081 
L 259.883365 458.687922 
L 265.007332 456.436763 
L 270.131299 454.185603 
L 275.255266 451.934444 
L 280.379233 449.683285 
L 285.5032 447.432126 
L 290.627167 445.180967 
L 295.751134 442.929808 
L 300.875101 440.678649 
L 305.999068 438.42749 
L 311.123035 436.176331 
L 316.247002 433.925172 
L 321.370968 431.674013 
L 326.494935 429.422854 
L 331.618902 427.171695 
L 336.742869 424.920535 
L 341.866836 422.669376 
L 346.990803 420.418217 
L 352.11477 418.167058 
L 357.238737 415.915899 
L 362.362704 413.66474 
L 367.486671 411.413581 
L 372.610638 409.162422 
L 377.734605 406.911263 
L 382.858572 404.660104 
L 387.982539 402.408945 
L 393.106506 400.157786 
L 398.230473 397.906627 
L 403.35444 395.655467 
L 408.478407 393.404308 
L 413.602373 391.153149 
L 418.72634 388.90199 
L 423.850307 386.650831 
L 428.974274 384.399672 
L 434.098241 382.148513 
L 439.222208 379.897354 
L 444.346175 377.646195 
L 449.470142 375.395036 
L 454.594109 373.143877 
L 459.718076 370.892718 
L 464.842043 368.641559 
L 469.96601 366.390399 
L 475.089977 364.13924 
L 480.213944 361.888081 
L 485.337911 359.636922 
L 490.461878 357.385763 
L 495.585845 355.134604 
L 500.709811 352.883445 
L 505.833778 350.632286 
L 510.957745 348.381127 
L 516.081712 346.129968 
L 521.205679 343.878809 
L 526.329646 341.62765 
L 531.453613 339.376491 
L 536.57758 337.125331 
L 541.701547 334.874172 
L 546.825514 332.623013 
L 551.949481 330.371854 
L 557.073448 328.120695 
L 562.197415 325.869536 
L 567.321382 323.618377 
L 572.445349 321.367218 
L 577.569316 319.116059 
L 582.693283 316.8649 
L 587.817249 314.613741 
L 592.941216 312.362582 
L 598.065183 310.111423 
L 603.18915 307.860263 
L 608.313117 305.609104 
L 613.437084 303.357945 
L 618.561051 301.106786 
" style="fill:none;stroke:#4c72b0;stroke-linecap:round;stroke-width:4.5;"/>
   </g>
   <g id="line2d_12">
    <path clip-path="url(#p6252bb2ce2)" d="M 134.504379 570.968724 
L 595.344996 132.337091 
" style="fill:none;stroke:#808080;stroke-dasharray:11.1,4.8;stroke-dashoffset:0;stroke-width:3;"/>
   </g>
   <g id="patch_3">
    <path d="M 85.924688 651.228 
L 85.924688 107.628 
" style="fill:none;stroke:#ffffff;stroke-linecap:square;stroke-linejoin:miter;stroke-width:2.5;"/>
   </g>
   <g id="patch_4">
    <path d="M 643.924688 651.228 
L 643.924688 107.628 
" style="fill:none;stroke:#ffffff;stroke-linecap:square;stroke-linejoin:miter;stroke-width:2.5;"/>
   </g>
   <g id="patch_5">
    <path d="M 85.924688 651.228 
L 643.924688 651.228 
" style="fill:none;stroke:#ffffff;stroke-linecap:square;stroke-linejoin:miter;stroke-width:2.5;"/>
   </g>
   <g id="patch_6">
    <path d="M 85.924688 107.628 
L 643.924688 107.628 
" style="fill:none;stroke:#ffffff;stroke-linecap:square;stroke-linejoin:miter;stroke-width:2.5;"/>
   </g>
   <g id="text_13">
    <!-- Krabi (47 data points), BS per Person as Features -->
    <defs>
     <path d="M 7.328125 0 
L 7.328125 71.578125 
L 16.796875 71.578125 
L 16.796875 36.078125 
L 52.34375 71.578125 
L 65.1875 71.578125 
L 35.15625 42.578125 
L 66.5 0 
L 54 0 
L 28.515625 36.234375 
L 16.796875 24.8125 
L 16.796875 0 
z
" id="ArialMT-4b"/>
     <path d="M 14.703125 0 
L 6.546875 0 
L 6.546875 71.578125 
L 15.328125 71.578125 
L 15.328125 46.046875 
Q 20.90625 53.03125 29.546875 53.03125 
Q 34.328125 53.03125 38.59375 51.09375 
Q 42.875 49.171875 45.625 45.671875 
Q 48.390625 42.1875 49.953125 37.25 
Q 51.515625 32.328125 51.515625 26.703125 
Q 51.515625 13.375 44.921875 6.09375 
Q 38.328125 -1.171875 29.109375 -1.171875 
Q 19.921875 -1.171875 14.703125 6.5 
z
M 14.59375 26.3125 
Q 14.59375 17 17.140625 12.84375 
Q 21.296875 6.0625 28.375 6.0625 
Q 34.125 6.0625 38.328125 11.0625 
Q 42.53125 16.0625 42.53125 25.984375 
Q 42.53125 36.140625 38.5 40.96875 
Q 34.46875 45.796875 28.765625 45.796875 
Q 23 45.796875 18.796875 40.796875 
Q 14.59375 35.796875 14.59375 26.3125 
z
" id="ArialMT-62"/>
     <path d="M 23.390625 -21.046875 
Q 16.109375 -11.859375 11.078125 0.4375 
Q 6.0625 12.75 6.0625 25.921875 
Q 6.0625 37.546875 9.8125 48.1875 
Q 14.203125 60.546875 23.390625 72.796875 
L 29.6875 72.796875 
Q 23.78125 62.640625 21.875 58.296875 
Q 18.890625 51.5625 17.1875 44.234375 
Q 15.09375 35.109375 15.09375 25.875 
Q 15.09375 2.390625 29.6875 -21.046875 
z
" id="ArialMT-28"/>
     <path d="M 32.328125 0 
L 32.328125 17.140625 
L 1.265625 17.140625 
L 1.265625 25.203125 
L 33.9375 71.578125 
L 41.109375 71.578125 
L 41.109375 25.203125 
L 50.78125 25.203125 
L 50.78125 17.140625 
L 41.109375 17.140625 
L 41.109375 0 
z
M 32.328125 25.203125 
L 32.328125 57.46875 
L 9.90625 25.203125 
z
" id="ArialMT-34"/>
     <path d="M 4.734375 62.203125 
L 4.734375 70.65625 
L 51.078125 70.65625 
L 51.078125 63.8125 
Q 44.234375 56.546875 37.515625 44.484375 
Q 30.8125 32.421875 27.15625 19.671875 
Q 24.515625 10.6875 23.78125 0 
L 14.75 0 
Q 14.890625 8.453125 18.0625 20.40625 
Q 21.234375 32.375 27.171875 43.484375 
Q 33.109375 54.59375 39.796875 62.203125 
z
" id="ArialMT-37"/>
     <path d="M 12.359375 -21.046875 
L 6.0625 -21.046875 
Q 20.65625 2.390625 20.65625 25.875 
Q 20.65625 35.0625 18.5625 44.09375 
Q 16.890625 51.421875 13.921875 58.15625 
Q 12.015625 62.546875 6.0625 72.796875 
L 12.359375 72.796875 
Q 21.53125 60.546875 25.921875 48.1875 
Q 29.6875 37.546875 29.6875 25.921875 
Q 29.6875 12.75 24.625 0.4375 
Q 19.578125 -11.859375 12.359375 -21.046875 
z
" id="ArialMT-29"/>
     <path d="M 7.328125 0 
L 7.328125 71.578125 
L 34.1875 71.578125 
Q 42.390625 71.578125 47.34375 69.40625 
Q 52.296875 67.234375 55.09375 62.71875 
Q 57.90625 58.203125 57.90625 53.265625 
Q 57.90625 48.6875 55.421875 44.625 
Q 52.9375 40.578125 47.90625 38.09375 
Q 54.390625 36.1875 57.875 31.59375 
Q 61.375 27 61.375 20.75 
Q 61.375 15.71875 59.25 11.390625 
Q 57.125 7.078125 54 4.734375 
Q 50.875 2.390625 46.15625 1.1875 
Q 41.453125 0 34.625 0 
z
M 16.796875 41.5 
L 32.28125 41.5 
Q 38.578125 41.5 41.3125 42.328125 
Q 44.921875 43.40625 46.75 45.890625 
Q 48.578125 48.390625 48.578125 52.15625 
Q 48.578125 55.71875 46.875 58.421875 
Q 45.171875 61.140625 41.984375 62.140625 
Q 38.8125 63.140625 31.109375 63.140625 
L 16.796875 63.140625 
z
M 16.796875 8.453125 
L 34.625 8.453125 
Q 39.203125 8.453125 41.0625 8.796875 
Q 44.34375 9.375 46.53125 10.734375 
Q 48.734375 12.109375 50.140625 14.71875 
Q 51.5625 17.328125 51.5625 20.75 
Q 51.5625 24.75 49.515625 27.703125 
Q 47.46875 30.671875 43.828125 31.859375 
Q 40.1875 33.0625 33.34375 33.0625 
L 16.796875 33.0625 
z
" id="ArialMT-42"/>
     <path d="M 4.5 23 
L 13.421875 23.78125 
Q 14.0625 18.40625 16.375 14.96875 
Q 18.703125 11.53125 23.578125 9.40625 
Q 28.46875 7.28125 34.578125 7.28125 
Q 39.984375 7.28125 44.140625 8.890625 
Q 48.296875 10.5 50.3125 13.296875 
Q 52.34375 16.109375 52.34375 19.4375 
Q 52.34375 22.796875 50.390625 25.3125 
Q 48.4375 27.828125 43.953125 29.546875 
Q 41.0625 30.671875 31.203125 33.03125 
Q 21.34375 35.40625 17.390625 37.5 
Q 12.25 40.1875 9.734375 44.15625 
Q 7.234375 48.140625 7.234375 53.078125 
Q 7.234375 58.5 10.296875 63.203125 
Q 13.375 67.921875 19.28125 70.359375 
Q 25.203125 72.796875 32.421875 72.796875 
Q 40.375 72.796875 46.453125 70.234375 
Q 52.546875 67.671875 55.8125 62.6875 
Q 59.078125 57.71875 59.328125 51.421875 
L 50.25 50.734375 
Q 49.515625 57.515625 45.28125 60.984375 
Q 41.0625 64.453125 32.8125 64.453125 
Q 24.21875 64.453125 20.28125 61.296875 
Q 16.359375 58.15625 16.359375 53.71875 
Q 16.359375 49.859375 19.140625 47.359375 
Q 21.875 44.875 33.421875 42.265625 
Q 44.96875 39.65625 49.265625 37.703125 
Q 55.515625 34.8125 58.484375 30.390625 
Q 61.46875 25.984375 61.46875 20.21875 
Q 61.46875 14.5 58.203125 9.4375 
Q 54.9375 4.390625 48.796875 1.578125 
Q 42.671875 -1.21875 35.015625 -1.21875 
Q 25.296875 -1.21875 18.71875 1.609375 
Q 12.15625 4.4375 8.421875 10.125 
Q 4.6875 15.828125 4.5 23 
z
" id="ArialMT-53"/>
     <path d="M 8.203125 0 
L 8.203125 71.578125 
L 56.5 71.578125 
L 56.5 63.140625 
L 17.671875 63.140625 
L 17.671875 40.96875 
L 51.265625 40.96875 
L 51.265625 32.515625 
L 17.671875 32.515625 
L 17.671875 0 
z
" id="ArialMT-46"/>
    </defs>
    <g style="fill:#262626;" transform="translate(98.804062 24.9525)scale(0.24 -0.24)">
     <use xlink:href="#ArialMT-4b"/>
     <use x="66.699219" xlink:href="#ArialMT-72"/>
     <use x="100" xlink:href="#ArialMT-61"/>
     <use x="155.615234" xlink:href="#ArialMT-62"/>
     <use x="211.230469" xlink:href="#ArialMT-69"/>
     <use x="233.447266" xlink:href="#ArialMT-20"/>
     <use x="261.230469" xlink:href="#ArialMT-28"/>
     <use x="294.53125" xlink:href="#ArialMT-34"/>
     <use x="350.146484" xlink:href="#ArialMT-37"/>
     <use x="405.761719" xlink:href="#ArialMT-20"/>
     <use x="433.544922" xlink:href="#ArialMT-64"/>
     <use x="489.160156" xlink:href="#ArialMT-61"/>
     <use x="544.775391" xlink:href="#ArialMT-74"/>
     <use x="572.558594" xlink:href="#ArialMT-61"/>
     <use x="628.173828" xlink:href="#ArialMT-20"/>
     <use x="655.957031" xlink:href="#ArialMT-70"/>
     <use x="711.572266" xlink:href="#ArialMT-6f"/>
     <use x="767.1875" xlink:href="#ArialMT-69"/>
     <use x="789.404297" xlink:href="#ArialMT-6e"/>
     <use x="845.019531" xlink:href="#ArialMT-74"/>
     <use x="872.802734" xlink:href="#ArialMT-73"/>
     <use x="922.802734" xlink:href="#ArialMT-29"/>
     <use x="956.103516" xlink:href="#ArialMT-2c"/>
     <use x="983.886719" xlink:href="#ArialMT-20"/>
     <use x="1011.669922" xlink:href="#ArialMT-42"/>
     <use x="1078.369141" xlink:href="#ArialMT-53"/>
     <use x="1145.068359" xlink:href="#ArialMT-20"/>
     <use x="1172.851562" xlink:href="#ArialMT-70"/>
     <use x="1228.466797" xlink:href="#ArialMT-65"/>
     <use x="1284.082031" xlink:href="#ArialMT-72"/>
     <use x="1317.382812" xlink:href="#ArialMT-20"/>
     <use x="1345.166016" xlink:href="#ArialMT-50"/>
     <use x="1411.865234" xlink:href="#ArialMT-65"/>
     <use x="1467.480469" xlink:href="#ArialMT-72"/>
     <use x="1500.78125" xlink:href="#ArialMT-73"/>
     <use x="1550.78125" xlink:href="#ArialMT-6f"/>
     <use x="1606.396484" xlink:href="#ArialMT-6e"/>
     <use x="1662.011719" xlink:href="#ArialMT-20"/>
     <use x="1689.794922" xlink:href="#ArialMT-61"/>
     <use x="1745.410156" xlink:href="#ArialMT-73"/>
     <use x="1795.410156" xlink:href="#ArialMT-20"/>
     <use x="1823.193359" xlink:href="#ArialMT-46"/>
     <use x="1884.277344" xlink:href="#ArialMT-65"/>
     <use x="1939.892578" xlink:href="#ArialMT-61"/>
     <use x="1995.507812" xlink:href="#ArialMT-74"/>
     <use x="2023.291016" xlink:href="#ArialMT-75"/>
     <use x="2078.90625" xlink:href="#ArialMT-72"/>
     <use x="2112.207031" xlink:href="#ArialMT-65"/>
     <use x="2167.822266" xlink:href="#ArialMT-73"/>
    </g>
    <!-- R-squared: 0.4616 -->
    <defs>
     <path d="M 7.859375 0 
L 7.859375 71.578125 
L 39.59375 71.578125 
Q 49.171875 71.578125 54.140625 69.640625 
Q 59.125 67.71875 62.109375 62.828125 
Q 65.09375 57.953125 65.09375 52.046875 
Q 65.09375 44.4375 60.15625 39.203125 
Q 55.21875 33.984375 44.921875 32.5625 
Q 48.6875 30.765625 50.640625 29 
Q 54.78125 25.203125 58.5 19.484375 
L 70.953125 0 
L 59.03125 0 
L 49.5625 14.890625 
Q 45.40625 21.34375 42.71875 24.75 
Q 40.046875 28.171875 37.921875 29.53125 
Q 35.796875 30.90625 33.59375 31.453125 
Q 31.984375 31.78125 28.328125 31.78125 
L 17.328125 31.78125 
L 17.328125 0 
z
M 17.328125 39.984375 
L 37.703125 39.984375 
Q 44.1875 39.984375 47.84375 41.328125 
Q 51.515625 42.671875 53.421875 45.625 
Q 55.328125 48.578125 55.328125 52.046875 
Q 55.328125 57.125 51.640625 60.390625 
Q 47.953125 63.671875 39.984375 63.671875 
L 17.328125 63.671875 
z
" id="ArialMT-52"/>
     <path d="M 3.171875 21.484375 
L 3.171875 30.328125 
L 30.171875 30.328125 
L 30.171875 21.484375 
z
" id="ArialMT-2d"/>
     <path d="M 39.65625 -19.875 
L 39.65625 5.515625 
Q 37.59375 2.640625 33.90625 0.734375 
Q 30.21875 -1.171875 26.078125 -1.171875 
Q 16.84375 -1.171875 10.171875 6.203125 
Q 3.515625 13.578125 3.515625 26.421875 
Q 3.515625 34.234375 6.21875 40.421875 
Q 8.9375 46.625 14.078125 49.828125 
Q 19.234375 53.03125 25.390625 53.03125 
Q 35.015625 53.03125 40.53125 44.921875 
L 40.53125 51.859375 
L 48.4375 51.859375 
L 48.4375 -19.875 
z
M 12.546875 26.078125 
Q 12.546875 16.0625 16.75 11.0625 
Q 20.953125 6.0625 26.8125 6.0625 
Q 32.421875 6.0625 36.46875 10.8125 
Q 40.53125 15.578125 40.53125 25.296875 
Q 40.53125 35.640625 36.25 40.859375 
Q 31.984375 46.09375 26.21875 46.09375 
Q 20.515625 46.09375 16.53125 41.234375 
Q 12.546875 36.375 12.546875 26.078125 
z
" id="ArialMT-71"/>
     <path d="M 9.03125 41.84375 
L 9.03125 51.859375 
L 19.046875 51.859375 
L 19.046875 41.84375 
z
M 9.03125 0 
L 9.03125 10.015625 
L 19.046875 10.015625 
L 19.046875 0 
z
" id="ArialMT-3a"/>
     <path d="M 9.078125 0 
L 9.078125 10.015625 
L 19.09375 10.015625 
L 19.09375 0 
z
" id="ArialMT-2e"/>
     <path d="M 49.75 54.046875 
L 41.015625 53.375 
Q 39.84375 58.546875 37.703125 60.890625 
Q 34.125 64.65625 28.90625 64.65625 
Q 24.703125 64.65625 21.53125 62.3125 
Q 17.390625 59.28125 14.984375 53.46875 
Q 12.59375 47.65625 12.5 36.921875 
Q 15.671875 41.75 20.265625 44.09375 
Q 24.859375 46.4375 29.890625 46.4375 
Q 38.671875 46.4375 44.84375 39.96875 
Q 51.03125 33.5 51.03125 23.25 
Q 51.03125 16.5 48.125 10.71875 
Q 45.21875 4.9375 40.140625 1.859375 
Q 35.0625 -1.21875 28.609375 -1.21875 
Q 17.625 -1.21875 10.6875 6.859375 
Q 3.765625 14.9375 3.765625 33.5 
Q 3.765625 54.25 11.421875 63.671875 
Q 18.109375 71.875 29.4375 71.875 
Q 37.890625 71.875 43.28125 67.140625 
Q 48.6875 62.40625 49.75 54.046875 
z
M 13.875 23.1875 
Q 13.875 18.65625 15.796875 14.5 
Q 17.71875 10.359375 21.1875 8.171875 
Q 24.65625 6 28.46875 6 
Q 34.03125 6 38.03125 10.484375 
Q 42.046875 14.984375 42.046875 22.703125 
Q 42.046875 30.125 38.078125 34.390625 
Q 34.125 38.671875 28.125 38.671875 
Q 22.171875 38.671875 18.015625 34.390625 
Q 13.875 30.125 13.875 23.1875 
z
" id="ArialMT-36"/>
    </defs>
    <g style="fill:#262626;" transform="translate(265.534688 50.70375)scale(0.24 -0.24)">
     <use xlink:href="#ArialMT-52"/>
     <use x="72.216797" xlink:href="#ArialMT-2d"/>
     <use x="105.517578" xlink:href="#ArialMT-73"/>
     <use x="155.517578" xlink:href="#ArialMT-71"/>
     <use x="211.132812" xlink:href="#ArialMT-75"/>
     <use x="266.748047" xlink:href="#ArialMT-61"/>
     <use x="322.363281" xlink:href="#ArialMT-72"/>
     <use x="355.664062" xlink:href="#ArialMT-65"/>
     <use x="411.279297" xlink:href="#ArialMT-64"/>
     <use x="466.894531" xlink:href="#ArialMT-3a"/>
     <use x="494.677734" xlink:href="#ArialMT-20"/>
     <use x="522.460938" xlink:href="#ArialMT-30"/>
     <use x="578.076172" xlink:href="#ArialMT-2e"/>
     <use x="605.859375" xlink:href="#ArialMT-34"/>
     <use x="661.474609" xlink:href="#ArialMT-36"/>
     <use x="717.089844" xlink:href="#ArialMT-31"/>
     <use x="772.705078" xlink:href="#ArialMT-36"/>
    </g>
    <!-- Pearson: 0.6794, p-value: 0.0 -->
    <defs>
     <path d="M 5.46875 16.546875 
L 13.921875 17.328125 
Q 14.984375 11.375 18.015625 8.6875 
Q 21.046875 6 25.78125 6 
Q 29.828125 6 32.875 7.859375 
Q 35.9375 9.71875 37.890625 12.8125 
Q 39.84375 15.921875 41.15625 21.1875 
Q 42.484375 26.46875 42.484375 31.9375 
Q 42.484375 32.515625 42.4375 33.6875 
Q 39.796875 29.5 35.234375 26.875 
Q 30.671875 24.265625 25.34375 24.265625 
Q 16.453125 24.265625 10.296875 30.703125 
Q 4.15625 37.15625 4.15625 47.703125 
Q 4.15625 58.59375 10.578125 65.234375 
Q 17 71.875 26.65625 71.875 
Q 33.640625 71.875 39.421875 68.109375 
Q 45.21875 64.359375 48.21875 57.390625 
Q 51.21875 50.4375 51.21875 37.25 
Q 51.21875 23.53125 48.234375 15.40625 
Q 45.265625 7.28125 39.375 3.03125 
Q 33.5 -1.21875 25.59375 -1.21875 
Q 17.1875 -1.21875 11.859375 3.4375 
Q 6.546875 8.109375 5.46875 16.546875 
z
M 41.453125 48.140625 
Q 41.453125 55.71875 37.421875 60.15625 
Q 33.40625 64.59375 27.734375 64.59375 
Q 21.875 64.59375 17.53125 59.8125 
Q 13.1875 55.03125 13.1875 47.40625 
Q 13.1875 40.578125 17.3125 36.296875 
Q 21.4375 32.03125 27.484375 32.03125 
Q 33.59375 32.03125 37.515625 36.296875 
Q 41.453125 40.578125 41.453125 48.140625 
z
" id="ArialMT-39"/>
     <path d="M 21 0 
L 1.265625 51.859375 
L 10.546875 51.859375 
L 21.6875 20.796875 
Q 23.484375 15.765625 25 10.359375 
Q 26.171875 14.453125 28.265625 20.21875 
L 39.796875 51.859375 
L 48.828125 51.859375 
L 29.203125 0 
z
" id="ArialMT-76"/>
    </defs>
    <g style="fill:#262626;" transform="translate(207.495937 76.17375)scale(0.24 -0.24)">
     <use xlink:href="#ArialMT-50"/>
     <use x="66.699219" xlink:href="#ArialMT-65"/>
     <use x="122.314453" xlink:href="#ArialMT-61"/>
     <use x="177.929688" xlink:href="#ArialMT-72"/>
     <use x="211.230469" xlink:href="#ArialMT-73"/>
     <use x="261.230469" xlink:href="#ArialMT-6f"/>
     <use x="316.845703" xlink:href="#ArialMT-6e"/>
     <use x="372.460938" xlink:href="#ArialMT-3a"/>
     <use x="400.244141" xlink:href="#ArialMT-20"/>
     <use x="428.027344" xlink:href="#ArialMT-30"/>
     <use x="483.642578" xlink:href="#ArialMT-2e"/>
     <use x="511.425781" xlink:href="#ArialMT-36"/>
     <use x="567.041016" xlink:href="#ArialMT-37"/>
     <use x="622.65625" xlink:href="#ArialMT-39"/>
     <use x="678.271484" xlink:href="#ArialMT-34"/>
     <use x="733.886719" xlink:href="#ArialMT-2c"/>
     <use x="761.669922" xlink:href="#ArialMT-20"/>
     <use x="789.453125" xlink:href="#ArialMT-70"/>
     <use x="845.068359" xlink:href="#ArialMT-2d"/>
     <use x="878.369141" xlink:href="#ArialMT-76"/>
     <use x="928.369141" xlink:href="#ArialMT-61"/>
     <use x="983.984375" xlink:href="#ArialMT-6c"/>
     <use x="1006.201172" xlink:href="#ArialMT-75"/>
     <use x="1061.816406" xlink:href="#ArialMT-65"/>
     <use x="1117.431641" xlink:href="#ArialMT-3a"/>
     <use x="1145.214844" xlink:href="#ArialMT-20"/>
     <use x="1172.998047" xlink:href="#ArialMT-30"/>
     <use x="1228.613281" xlink:href="#ArialMT-2e"/>
     <use x="1256.396484" xlink:href="#ArialMT-30"/>
    </g>
    <!-- Spearman: 0.6731, p-value: 0.0 -->
    <defs>
     <path d="M 6.59375 0 
L 6.59375 51.859375 
L 14.453125 51.859375 
L 14.453125 44.578125 
Q 16.890625 48.390625 20.9375 50.703125 
Q 25 53.03125 30.171875 53.03125 
Q 35.9375 53.03125 39.625 50.640625 
Q 43.3125 48.25 44.828125 43.953125 
Q 50.984375 53.03125 60.84375 53.03125 
Q 68.5625 53.03125 72.703125 48.75 
Q 76.859375 44.484375 76.859375 35.59375 
L 76.859375 0 
L 68.109375 0 
L 68.109375 32.671875 
Q 68.109375 37.9375 67.25 40.25 
Q 66.40625 42.578125 64.15625 43.984375 
Q 61.921875 45.40625 58.890625 45.40625 
Q 53.421875 45.40625 49.796875 41.765625 
Q 46.1875 38.140625 46.1875 30.125 
L 46.1875 0 
L 37.40625 0 
L 37.40625 33.6875 
Q 37.40625 39.546875 35.25 42.46875 
Q 33.109375 45.40625 28.21875 45.40625 
Q 24.515625 45.40625 21.359375 43.453125 
Q 18.21875 41.5 16.796875 37.734375 
Q 15.375 33.984375 15.375 26.90625 
L 15.375 0 
z
" id="ArialMT-6d"/>
     <path d="M 4.203125 18.890625 
L 12.984375 20.0625 
Q 14.5 12.59375 18.140625 9.296875 
Q 21.78125 6 27 6 
Q 33.203125 6 37.46875 10.296875 
Q 41.75 14.59375 41.75 20.953125 
Q 41.75 27 37.796875 30.921875 
Q 33.84375 34.859375 27.734375 34.859375 
Q 25.25 34.859375 21.53125 33.890625 
L 22.515625 41.609375 
Q 23.390625 41.5 23.921875 41.5 
Q 29.546875 41.5 34.03125 44.421875 
Q 38.53125 47.359375 38.53125 53.46875 
Q 38.53125 58.296875 35.25 61.46875 
Q 31.984375 64.65625 26.8125 64.65625 
Q 21.6875 64.65625 18.265625 61.421875 
Q 14.84375 58.203125 13.875 51.765625 
L 5.078125 53.328125 
Q 6.6875 62.15625 12.390625 67.015625 
Q 18.109375 71.875 26.609375 71.875 
Q 32.46875 71.875 37.390625 69.359375 
Q 42.328125 66.84375 44.9375 62.5 
Q 47.5625 58.15625 47.5625 53.265625 
Q 47.5625 48.640625 45.0625 44.828125 
Q 42.578125 41.015625 37.703125 38.765625 
Q 44.046875 37.3125 47.5625 32.6875 
Q 51.078125 28.078125 51.078125 21.140625 
Q 51.078125 11.765625 44.234375 5.25 
Q 37.40625 -1.265625 26.953125 -1.265625 
Q 17.53125 -1.265625 11.296875 4.34375 
Q 5.078125 9.96875 4.203125 18.890625 
z
" id="ArialMT-33"/>
    </defs>
    <g style="fill:#262626;" transform="translate(196.827188 101.90925)scale(0.24 -0.24)">
     <use xlink:href="#ArialMT-53"/>
     <use x="66.699219" xlink:href="#ArialMT-70"/>
     <use x="122.314453" xlink:href="#ArialMT-65"/>
     <use x="177.929688" xlink:href="#ArialMT-61"/>
     <use x="233.544922" xlink:href="#ArialMT-72"/>
     <use x="266.845703" xlink:href="#ArialMT-6d"/>
     <use x="350.146484" xlink:href="#ArialMT-61"/>
     <use x="405.761719" xlink:href="#ArialMT-6e"/>
     <use x="461.376953" xlink:href="#ArialMT-3a"/>
     <use x="489.160156" xlink:href="#ArialMT-20"/>
     <use x="516.943359" xlink:href="#ArialMT-30"/>
     <use x="572.558594" xlink:href="#ArialMT-2e"/>
     <use x="600.341797" xlink:href="#ArialMT-36"/>
     <use x="655.957031" xlink:href="#ArialMT-37"/>
     <use x="711.572266" xlink:href="#ArialMT-33"/>
     <use x="767.1875" xlink:href="#ArialMT-31"/>
     <use x="822.802734" xlink:href="#ArialMT-2c"/>
     <use x="850.585938" xlink:href="#ArialMT-20"/>
     <use x="878.369141" xlink:href="#ArialMT-70"/>
     <use x="933.984375" xlink:href="#ArialMT-2d"/>
     <use x="967.285156" xlink:href="#ArialMT-76"/>
     <use x="1017.285156" xlink:href="#ArialMT-61"/>
     <use x="1072.900391" xlink:href="#ArialMT-6c"/>
     <use x="1095.117188" xlink:href="#ArialMT-75"/>
     <use x="1150.732422" xlink:href="#ArialMT-65"/>
     <use x="1206.347656" xlink:href="#ArialMT-3a"/>
     <use x="1234.130859" xlink:href="#ArialMT-20"/>
     <use x="1261.914062" xlink:href="#ArialMT-30"/>
     <use x="1317.529297" xlink:href="#ArialMT-2e"/>
     <use x="1345.3125" xlink:href="#ArialMT-30"/>
    </g>
   </g>
  </g>
 </g>
 <defs>
  <clipPath id="p6252bb2ce2">
   <rect height="543.6" width="558" x="85.924688" y="107.628"/>
  </clipPath>
 </defs>
</svg>
