<?xml version="1.0" encoding="utf-8" standalone="no"?>
<!DOCTYPE svg PUBLIC "-//W3C//DTD SVG 1.1//EN"
  "http://www.w3.org/Graphics/SVG/1.1/DTD/svg11.dtd">
<!-- Created with matplotlib (http://matplotlib.org/) -->
<svg height="720.570187pt" version="1.1" viewBox="0 0 663.602812 720.570187" width="663.602812pt" xmlns="http://www.w3.org/2000/svg" xmlns:xlink="http://www.w3.org/1999/xlink">
 <defs>
  <style type="text/css">
*{stroke-linecap:butt;stroke-linejoin:round;}
  </style>
 </defs>
 <g id="figure_1">
  <g id="patch_1">
   <path d="M 0 720.570187 
L 663.602812 720.570187 
L 663.602812 0 
L 0 0 
z
" style="fill:#ffffff;"/>
  </g>
  <g id="axes_1">
   <g id="patch_2">
    <path d="M 85.924688 651.228 
L 643.924688 651.228 
L 643.924688 107.628 
L 85.924688 107.628 
z
" style="fill:#eaeaf2;"/>
   </g>
   <g id="matplotlib.axis_1">
    <g id="xtick_1">
     <g id="line2d_1">
      <path clip-path="url(#pab18a149b6)" d="M 91.764468 651.228 
L 91.764468 107.628 
" style="fill:none;stroke:#ffffff;stroke-linecap:round;stroke-width:2;"/>
     </g>
     <g id="text_1">
      <!-- 0 -->
      <defs>
       <path d="M 4.15625 35.296875 
Q 4.15625 48 6.765625 55.734375 
Q 9.375 63.484375 14.515625 67.671875 
Q 19.671875 71.875 27.484375 71.875 
Q 33.25 71.875 37.59375 69.546875 
Q 41.9375 67.234375 44.765625 62.859375 
Q 47.609375 58.5 49.21875 52.21875 
Q 50.828125 45.953125 50.828125 35.296875 
Q 50.828125 22.703125 48.234375 14.96875 
Q 45.65625 7.234375 40.5 3 
Q 35.359375 -1.21875 27.484375 -1.21875 
Q 17.140625 -1.21875 11.234375 6.203125 
Q 4.15625 15.140625 4.15625 35.296875 
z
M 13.1875 35.296875 
Q 13.1875 17.671875 17.3125 11.828125 
Q 21.4375 6 27.484375 6 
Q 33.546875 6 37.671875 11.859375 
Q 41.796875 17.71875 41.796875 35.296875 
Q 41.796875 52.984375 37.671875 58.78125 
Q 33.546875 64.59375 27.390625 64.59375 
Q 21.34375 64.59375 17.71875 59.46875 
Q 13.1875 52.9375 13.1875 35.296875 
z
" id="ArialMT-30"/>
      </defs>
      <g style="fill:#262626;" transform="translate(85.647437 682.475187)scale(0.22 -0.22)">
       <use xlink:href="#ArialMT-30"/>
      </g>
     </g>
    </g>
    <g id="xtick_2">
     <g id="line2d_2">
      <path clip-path="url(#pab18a149b6)" d="M 194.541103 651.228 
L 194.541103 107.628 
" style="fill:none;stroke:#ffffff;stroke-linecap:round;stroke-width:2;"/>
     </g>
     <g id="text_2">
      <!-- 50 -->
      <defs>
       <path d="M 4.15625 18.75 
L 13.375 19.53125 
Q 14.40625 12.796875 18.140625 9.390625 
Q 21.875 6 27.15625 6 
Q 33.5 6 37.890625 10.78125 
Q 42.28125 15.578125 42.28125 23.484375 
Q 42.28125 31 38.0625 35.34375 
Q 33.84375 39.703125 27 39.703125 
Q 22.75 39.703125 19.328125 37.765625 
Q 15.921875 35.84375 13.96875 32.765625 
L 5.71875 33.84375 
L 12.640625 70.609375 
L 48.25 70.609375 
L 48.25 62.203125 
L 19.671875 62.203125 
L 15.828125 42.96875 
Q 22.265625 47.46875 29.34375 47.46875 
Q 38.71875 47.46875 45.15625 40.96875 
Q 51.609375 34.46875 51.609375 24.265625 
Q 51.609375 14.546875 45.953125 7.46875 
Q 39.0625 -1.21875 27.15625 -1.21875 
Q 17.390625 -1.21875 11.203125 4.25 
Q 5.03125 9.71875 4.15625 18.75 
z
" id="ArialMT-35"/>
      </defs>
      <g style="fill:#262626;" transform="translate(182.30704 682.475187)scale(0.22 -0.22)">
       <use xlink:href="#ArialMT-35"/>
       <use x="55.615234" xlink:href="#ArialMT-30"/>
      </g>
     </g>
    </g>
    <g id="xtick_3">
     <g id="line2d_3">
      <path clip-path="url(#pab18a149b6)" d="M 297.317737 651.228 
L 297.317737 107.628 
" style="fill:none;stroke:#ffffff;stroke-linecap:round;stroke-width:2;"/>
     </g>
     <g id="text_3">
      <!-- 100 -->
      <defs>
       <path d="M 37.25 0 
L 28.46875 0 
L 28.46875 56 
Q 25.296875 52.984375 20.140625 49.953125 
Q 14.984375 46.921875 10.890625 45.40625 
L 10.890625 53.90625 
Q 18.265625 57.375 23.78125 62.296875 
Q 29.296875 67.234375 31.59375 71.875 
L 37.25 71.875 
z
" id="ArialMT-31"/>
      </defs>
      <g style="fill:#262626;" transform="translate(278.966644 682.475187)scale(0.22 -0.22)">
       <use xlink:href="#ArialMT-31"/>
       <use x="55.615234" xlink:href="#ArialMT-30"/>
       <use x="111.230469" xlink:href="#ArialMT-30"/>
      </g>
     </g>
    </g>
    <g id="xtick_4">
     <g id="line2d_4">
      <path clip-path="url(#pab18a149b6)" d="M 400.094372 651.228 
L 400.094372 107.628 
" style="fill:none;stroke:#ffffff;stroke-linecap:round;stroke-width:2;"/>
     </g>
     <g id="text_4">
      <!-- 150 -->
      <g style="fill:#262626;" transform="translate(381.743278 682.475187)scale(0.22 -0.22)">
       <use xlink:href="#ArialMT-31"/>
       <use x="55.615234" xlink:href="#ArialMT-35"/>
       <use x="111.230469" xlink:href="#ArialMT-30"/>
      </g>
     </g>
    </g>
    <g id="xtick_5">
     <g id="line2d_5">
      <path clip-path="url(#pab18a149b6)" d="M 502.871006 651.228 
L 502.871006 107.628 
" style="fill:none;stroke:#ffffff;stroke-linecap:round;stroke-width:2;"/>
     </g>
     <g id="text_5">
      <!-- 200 -->
      <defs>
       <path d="M 50.34375 8.453125 
L 50.34375 0 
L 3.03125 0 
Q 2.9375 3.171875 4.046875 6.109375 
Q 5.859375 10.9375 9.828125 15.625 
Q 13.8125 20.3125 21.34375 26.46875 
Q 33.015625 36.03125 37.109375 41.625 
Q 41.21875 47.21875 41.21875 52.203125 
Q 41.21875 57.421875 37.46875 61 
Q 33.734375 64.59375 27.734375 64.59375 
Q 21.390625 64.59375 17.578125 60.78125 
Q 13.765625 56.984375 13.71875 50.25 
L 4.6875 51.171875 
Q 5.609375 61.28125 11.65625 66.578125 
Q 17.71875 71.875 27.9375 71.875 
Q 38.234375 71.875 44.234375 66.15625 
Q 50.25 60.453125 50.25 52 
Q 50.25 47.703125 48.484375 43.546875 
Q 46.734375 39.40625 42.65625 34.8125 
Q 38.578125 30.21875 29.109375 22.21875 
Q 21.1875 15.578125 18.9375 13.203125 
Q 16.703125 10.84375 15.234375 8.453125 
z
" id="ArialMT-32"/>
      </defs>
      <g style="fill:#262626;" transform="translate(484.519913 682.475187)scale(0.22 -0.22)">
       <use xlink:href="#ArialMT-32"/>
       <use x="55.615234" xlink:href="#ArialMT-30"/>
       <use x="111.230469" xlink:href="#ArialMT-30"/>
      </g>
     </g>
    </g>
    <g id="xtick_6">
     <g id="line2d_6">
      <path clip-path="url(#pab18a149b6)" d="M 605.647641 651.228 
L 605.647641 107.628 
" style="fill:none;stroke:#ffffff;stroke-linecap:round;stroke-width:2;"/>
     </g>
     <g id="text_6">
      <!-- 250 -->
      <g style="fill:#262626;" transform="translate(587.296547 682.475187)scale(0.22 -0.22)">
       <use xlink:href="#ArialMT-32"/>
       <use x="55.615234" xlink:href="#ArialMT-35"/>
       <use x="111.230469" xlink:href="#ArialMT-30"/>
      </g>
     </g>
    </g>
    <g id="text_7">
     <!-- Dengue Cases per 10,000 People -->
     <defs>
      <path d="M 7.71875 0 
L 7.71875 71.578125 
L 32.375 71.578125 
Q 40.71875 71.578125 45.125 70.5625 
Q 51.265625 69.140625 55.609375 65.4375 
Q 61.28125 60.640625 64.078125 53.1875 
Q 66.890625 45.75 66.890625 36.1875 
Q 66.890625 28.03125 64.984375 21.734375 
Q 63.09375 15.4375 60.109375 11.296875 
Q 57.125 7.171875 53.578125 4.796875 
Q 50.046875 2.4375 45.046875 1.21875 
Q 40.046875 0 33.546875 0 
z
M 17.1875 8.453125 
L 32.46875 8.453125 
Q 39.546875 8.453125 43.578125 9.765625 
Q 47.609375 11.078125 50 13.484375 
Q 53.375 16.84375 55.25 22.53125 
Q 57.125 28.21875 57.125 36.328125 
Q 57.125 47.5625 53.4375 53.59375 
Q 49.75 59.625 44.484375 61.671875 
Q 40.671875 63.140625 32.234375 63.140625 
L 17.1875 63.140625 
z
" id="ArialMT-44"/>
      <path d="M 42.09375 16.703125 
L 51.171875 15.578125 
Q 49.03125 7.625 43.21875 3.21875 
Q 37.40625 -1.171875 28.375 -1.171875 
Q 17 -1.171875 10.328125 5.828125 
Q 3.65625 12.84375 3.65625 25.484375 
Q 3.65625 38.578125 10.390625 45.796875 
Q 17.140625 53.03125 27.875 53.03125 
Q 38.28125 53.03125 44.875 45.953125 
Q 51.46875 38.875 51.46875 26.03125 
Q 51.46875 25.25 51.421875 23.6875 
L 12.75 23.6875 
Q 13.234375 15.140625 17.578125 10.59375 
Q 21.921875 6.0625 28.421875 6.0625 
Q 33.25 6.0625 36.671875 8.59375 
Q 40.09375 11.140625 42.09375 16.703125 
z
M 13.234375 30.90625 
L 42.1875 30.90625 
Q 41.609375 37.453125 38.875 40.71875 
Q 34.671875 45.796875 27.984375 45.796875 
Q 21.921875 45.796875 17.796875 41.75 
Q 13.671875 37.703125 13.234375 30.90625 
z
" id="ArialMT-65"/>
      <path d="M 6.59375 0 
L 6.59375 51.859375 
L 14.5 51.859375 
L 14.5 44.484375 
Q 20.21875 53.03125 31 53.03125 
Q 35.6875 53.03125 39.625 51.34375 
Q 43.5625 49.65625 45.515625 46.921875 
Q 47.46875 44.1875 48.25 40.4375 
Q 48.734375 37.984375 48.734375 31.890625 
L 48.734375 0 
L 39.9375 0 
L 39.9375 31.546875 
Q 39.9375 36.921875 38.90625 39.578125 
Q 37.890625 42.234375 35.28125 43.8125 
Q 32.671875 45.40625 29.15625 45.40625 
Q 23.53125 45.40625 19.453125 41.84375 
Q 15.375 38.28125 15.375 28.328125 
L 15.375 0 
z
" id="ArialMT-6e"/>
      <path d="M 4.984375 -4.296875 
L 13.53125 -5.5625 
Q 14.0625 -9.515625 16.5 -11.328125 
Q 19.78125 -13.765625 25.4375 -13.765625 
Q 31.546875 -13.765625 34.859375 -11.328125 
Q 38.1875 -8.890625 39.359375 -4.5 
Q 40.046875 -1.8125 39.984375 6.78125 
Q 34.234375 0 25.640625 0 
Q 14.9375 0 9.078125 7.71875 
Q 3.21875 15.4375 3.21875 26.21875 
Q 3.21875 33.640625 5.90625 39.90625 
Q 8.59375 46.1875 13.6875 49.609375 
Q 18.796875 53.03125 25.6875 53.03125 
Q 34.859375 53.03125 40.828125 45.609375 
L 40.828125 51.859375 
L 48.921875 51.859375 
L 48.921875 7.03125 
Q 48.921875 -5.078125 46.453125 -10.125 
Q 44 -15.1875 38.640625 -18.109375 
Q 33.296875 -21.046875 25.484375 -21.046875 
Q 16.21875 -21.046875 10.5 -16.875 
Q 4.78125 -12.703125 4.984375 -4.296875 
z
M 12.25 26.859375 
Q 12.25 16.65625 16.296875 11.96875 
Q 20.359375 7.28125 26.46875 7.28125 
Q 32.515625 7.28125 36.609375 11.9375 
Q 40.71875 16.609375 40.71875 26.5625 
Q 40.71875 36.078125 36.5 40.90625 
Q 32.28125 45.75 26.3125 45.75 
Q 20.453125 45.75 16.34375 40.984375 
Q 12.25 36.234375 12.25 26.859375 
z
" id="ArialMT-67"/>
      <path d="M 40.578125 0 
L 40.578125 7.625 
Q 34.515625 -1.171875 24.125 -1.171875 
Q 19.53125 -1.171875 15.546875 0.578125 
Q 11.578125 2.34375 9.640625 5 
Q 7.71875 7.671875 6.9375 11.53125 
Q 6.390625 14.109375 6.390625 19.734375 
L 6.390625 51.859375 
L 15.1875 51.859375 
L 15.1875 23.09375 
Q 15.1875 16.21875 15.71875 13.8125 
Q 16.546875 10.359375 19.234375 8.375 
Q 21.921875 6.390625 25.875 6.390625 
Q 29.828125 6.390625 33.296875 8.421875 
Q 36.765625 10.453125 38.203125 13.9375 
Q 39.65625 17.4375 39.65625 24.078125 
L 39.65625 51.859375 
L 48.4375 51.859375 
L 48.4375 0 
z
" id="ArialMT-75"/>
      <path id="ArialMT-20"/>
      <path d="M 58.796875 25.09375 
L 68.265625 22.703125 
Q 65.28125 11.03125 57.546875 4.90625 
Q 49.8125 -1.21875 38.625 -1.21875 
Q 27.046875 -1.21875 19.796875 3.484375 
Q 12.546875 8.203125 8.765625 17.140625 
Q 4.984375 26.078125 4.984375 36.328125 
Q 4.984375 47.515625 9.25 55.828125 
Q 13.53125 64.15625 21.40625 68.46875 
Q 29.296875 72.796875 38.765625 72.796875 
Q 49.515625 72.796875 56.828125 67.328125 
Q 64.15625 61.859375 67.046875 51.953125 
L 57.71875 49.75 
Q 55.21875 57.5625 50.484375 61.125 
Q 45.75 64.703125 38.578125 64.703125 
Q 30.328125 64.703125 24.78125 60.734375 
Q 19.234375 56.78125 16.984375 50.109375 
Q 14.75 43.453125 14.75 36.375 
Q 14.75 27.25 17.40625 20.4375 
Q 20.0625 13.625 25.671875 10.25 
Q 31.296875 6.890625 37.84375 6.890625 
Q 45.796875 6.890625 51.3125 11.46875 
Q 56.84375 16.0625 58.796875 25.09375 
z
" id="ArialMT-43"/>
      <path d="M 40.4375 6.390625 
Q 35.546875 2.25 31.03125 0.53125 
Q 26.515625 -1.171875 21.34375 -1.171875 
Q 12.796875 -1.171875 8.203125 3 
Q 3.609375 7.171875 3.609375 13.671875 
Q 3.609375 17.484375 5.34375 20.625 
Q 7.078125 23.78125 9.890625 25.6875 
Q 12.703125 27.59375 16.21875 28.5625 
Q 18.796875 29.25 24.03125 29.890625 
Q 34.671875 31.15625 39.703125 32.90625 
Q 39.75 34.71875 39.75 35.203125 
Q 39.75 40.578125 37.25 42.78125 
Q 33.890625 45.75 27.25 45.75 
Q 21.046875 45.75 18.09375 43.578125 
Q 15.140625 41.40625 13.71875 35.890625 
L 5.125 37.0625 
Q 6.296875 42.578125 8.984375 45.96875 
Q 11.671875 49.359375 16.75 51.1875 
Q 21.828125 53.03125 28.515625 53.03125 
Q 35.15625 53.03125 39.296875 51.46875 
Q 43.453125 49.90625 45.40625 47.53125 
Q 47.359375 45.171875 48.140625 41.546875 
Q 48.578125 39.3125 48.578125 33.453125 
L 48.578125 21.734375 
Q 48.578125 9.46875 49.140625 6.21875 
Q 49.703125 2.984375 51.375 0 
L 42.1875 0 
Q 40.828125 2.734375 40.4375 6.390625 
z
M 39.703125 26.03125 
Q 34.90625 24.078125 25.34375 22.703125 
Q 19.921875 21.921875 17.671875 20.9375 
Q 15.4375 19.96875 14.203125 18.09375 
Q 12.984375 16.21875 12.984375 13.921875 
Q 12.984375 10.40625 15.640625 8.0625 
Q 18.3125 5.71875 23.4375 5.71875 
Q 28.515625 5.71875 32.46875 7.9375 
Q 36.421875 10.15625 38.28125 14.015625 
Q 39.703125 17 39.703125 22.796875 
z
" id="ArialMT-61"/>
      <path d="M 3.078125 15.484375 
L 11.765625 16.84375 
Q 12.5 11.625 15.84375 8.84375 
Q 19.1875 6.0625 25.203125 6.0625 
Q 31.25 6.0625 34.171875 8.515625 
Q 37.109375 10.984375 37.109375 14.3125 
Q 37.109375 17.28125 34.515625 19 
Q 32.71875 20.171875 25.53125 21.96875 
Q 15.875 24.421875 12.140625 26.203125 
Q 8.40625 27.984375 6.46875 31.125 
Q 4.546875 34.28125 4.546875 38.09375 
Q 4.546875 41.546875 6.125 44.5 
Q 7.71875 47.46875 10.453125 49.421875 
Q 12.5 50.921875 16.03125 51.96875 
Q 19.578125 53.03125 23.640625 53.03125 
Q 29.734375 53.03125 34.34375 51.265625 
Q 38.96875 49.515625 41.15625 46.5 
Q 43.359375 43.5 44.1875 38.484375 
L 35.59375 37.3125 
Q 35.015625 41.3125 32.203125 43.546875 
Q 29.390625 45.796875 24.265625 45.796875 
Q 18.21875 45.796875 15.625 43.796875 
Q 13.03125 41.796875 13.03125 39.109375 
Q 13.03125 37.40625 14.109375 36.03125 
Q 15.1875 34.625 17.484375 33.6875 
Q 18.796875 33.203125 25.25 31.453125 
Q 34.578125 28.953125 38.25 27.359375 
Q 41.9375 25.78125 44.03125 22.75 
Q 46.140625 19.734375 46.140625 15.234375 
Q 46.140625 10.84375 43.578125 6.953125 
Q 41.015625 3.078125 36.171875 0.953125 
Q 31.34375 -1.171875 25.25 -1.171875 
Q 15.140625 -1.171875 9.84375 3.03125 
Q 4.546875 7.234375 3.078125 15.484375 
z
" id="ArialMT-73"/>
      <path d="M 6.59375 -19.875 
L 6.59375 51.859375 
L 14.59375 51.859375 
L 14.59375 45.125 
Q 17.4375 49.078125 21 51.046875 
Q 24.5625 53.03125 29.640625 53.03125 
Q 36.28125 53.03125 41.359375 49.609375 
Q 46.4375 46.1875 49.015625 39.953125 
Q 51.609375 33.734375 51.609375 26.3125 
Q 51.609375 18.359375 48.75 11.984375 
Q 45.90625 5.609375 40.453125 2.21875 
Q 35.015625 -1.171875 29 -1.171875 
Q 24.609375 -1.171875 21.109375 0.6875 
Q 17.625 2.546875 15.375 5.375 
L 15.375 -19.875 
z
M 14.546875 25.640625 
Q 14.546875 15.625 18.59375 10.84375 
Q 22.65625 6.0625 28.421875 6.0625 
Q 34.28125 6.0625 38.453125 11.015625 
Q 42.625 15.96875 42.625 26.375 
Q 42.625 36.28125 38.546875 41.203125 
Q 34.46875 46.140625 28.8125 46.140625 
Q 23.1875 46.140625 18.859375 40.890625 
Q 14.546875 35.640625 14.546875 25.640625 
z
" id="ArialMT-70"/>
      <path d="M 6.5 0 
L 6.5 51.859375 
L 14.40625 51.859375 
L 14.40625 44 
Q 17.4375 49.515625 20 51.265625 
Q 22.5625 53.03125 25.640625 53.03125 
Q 30.078125 53.03125 34.671875 50.203125 
L 31.640625 42.046875 
Q 28.421875 43.953125 25.203125 43.953125 
Q 22.3125 43.953125 20.015625 42.21875 
Q 17.71875 40.484375 16.75 37.40625 
Q 15.28125 32.71875 15.28125 27.15625 
L 15.28125 0 
z
" id="ArialMT-72"/>
      <path d="M 8.890625 0 
L 8.890625 10.015625 
L 18.890625 10.015625 
L 18.890625 0 
Q 18.890625 -5.515625 16.9375 -8.90625 
Q 14.984375 -12.3125 10.75 -14.15625 
L 8.296875 -10.40625 
Q 11.078125 -9.1875 12.390625 -6.8125 
Q 13.71875 -4.4375 13.875 0 
z
" id="ArialMT-2c"/>
      <path d="M 7.71875 0 
L 7.71875 71.578125 
L 34.71875 71.578125 
Q 41.84375 71.578125 45.609375 70.90625 
Q 50.875 70.015625 54.4375 67.546875 
Q 58.015625 65.09375 60.1875 60.640625 
Q 62.359375 56.203125 62.359375 50.875 
Q 62.359375 41.75 56.546875 35.421875 
Q 50.734375 29.109375 35.546875 29.109375 
L 17.1875 29.109375 
L 17.1875 0 
z
M 17.1875 37.546875 
L 35.6875 37.546875 
Q 44.875 37.546875 48.734375 40.96875 
Q 52.59375 44.390625 52.59375 50.59375 
Q 52.59375 55.078125 50.3125 58.265625 
Q 48.046875 61.46875 44.34375 62.5 
Q 41.9375 63.140625 35.5 63.140625 
L 17.1875 63.140625 
z
" id="ArialMT-50"/>
      <path d="M 3.328125 25.921875 
Q 3.328125 40.328125 11.328125 47.265625 
Q 18.015625 53.03125 27.640625 53.03125 
Q 38.328125 53.03125 45.109375 46.015625 
Q 51.90625 39.015625 51.90625 26.65625 
Q 51.90625 16.65625 48.90625 10.90625 
Q 45.90625 5.171875 40.15625 2 
Q 34.421875 -1.171875 27.640625 -1.171875 
Q 16.75 -1.171875 10.03125 5.8125 
Q 3.328125 12.796875 3.328125 25.921875 
z
M 12.359375 25.921875 
Q 12.359375 15.96875 16.703125 11.015625 
Q 21.046875 6.0625 27.640625 6.0625 
Q 34.1875 6.0625 38.53125 11.03125 
Q 42.875 16.015625 42.875 26.21875 
Q 42.875 35.84375 38.5 40.796875 
Q 34.125 45.75 27.640625 45.75 
Q 21.046875 45.75 16.703125 40.8125 
Q 12.359375 35.890625 12.359375 25.921875 
z
" id="ArialMT-6f"/>
      <path d="M 6.390625 0 
L 6.390625 71.578125 
L 15.1875 71.578125 
L 15.1875 0 
z
" id="ArialMT-6c"/>
     </defs>
     <g style="fill:#262626;" transform="translate(184.140938 708.318937)scale(0.24 -0.24)">
      <use xlink:href="#ArialMT-44"/>
      <use x="72.216797" xlink:href="#ArialMT-65"/>
      <use x="127.832031" xlink:href="#ArialMT-6e"/>
      <use x="183.447266" xlink:href="#ArialMT-67"/>
      <use x="239.0625" xlink:href="#ArialMT-75"/>
      <use x="294.677734" xlink:href="#ArialMT-65"/>
      <use x="350.292969" xlink:href="#ArialMT-20"/>
      <use x="378.076172" xlink:href="#ArialMT-43"/>
      <use x="450.292969" xlink:href="#ArialMT-61"/>
      <use x="505.908203" xlink:href="#ArialMT-73"/>
      <use x="555.908203" xlink:href="#ArialMT-65"/>
      <use x="611.523438" xlink:href="#ArialMT-73"/>
      <use x="661.523438" xlink:href="#ArialMT-20"/>
      <use x="689.306641" xlink:href="#ArialMT-70"/>
      <use x="744.921875" xlink:href="#ArialMT-65"/>
      <use x="800.537109" xlink:href="#ArialMT-72"/>
      <use x="833.837891" xlink:href="#ArialMT-20"/>
      <use x="861.621094" xlink:href="#ArialMT-31"/>
      <use x="917.236328" xlink:href="#ArialMT-30"/>
      <use x="972.851562" xlink:href="#ArialMT-2c"/>
      <use x="1000.634766" xlink:href="#ArialMT-30"/>
      <use x="1056.25" xlink:href="#ArialMT-30"/>
      <use x="1111.865234" xlink:href="#ArialMT-30"/>
      <use x="1167.480469" xlink:href="#ArialMT-20"/>
      <use x="1195.263672" xlink:href="#ArialMT-50"/>
      <use x="1261.962891" xlink:href="#ArialMT-65"/>
      <use x="1317.578125" xlink:href="#ArialMT-6f"/>
      <use x="1373.193359" xlink:href="#ArialMT-70"/>
      <use x="1428.808594" xlink:href="#ArialMT-6c"/>
      <use x="1451.025391" xlink:href="#ArialMT-65"/>
     </g>
    </g>
   </g>
   <g id="matplotlib.axis_2">
    <g id="ytick_1">
     <g id="line2d_7">
      <path clip-path="url(#pab18a149b6)" d="M 85.924688 562.159755 
L 643.924688 562.159755 
" style="fill:none;stroke:#ffffff;stroke-linecap:round;stroke-width:2;"/>
     </g>
     <g id="text_8">
      <!-- 50 -->
      <g style="fill:#262626;" transform="translate(45.956563 570.033349)scale(0.22 -0.22)">
       <use xlink:href="#ArialMT-35"/>
       <use x="55.615234" xlink:href="#ArialMT-30"/>
      </g>
     </g>
    </g>
    <g id="ytick_2">
     <g id="line2d_8">
      <path clip-path="url(#pab18a149b6)" d="M 85.924688 451.934613 
L 643.924688 451.934613 
" style="fill:none;stroke:#ffffff;stroke-linecap:round;stroke-width:2;"/>
     </g>
     <g id="text_9">
      <!-- 100 -->
      <g style="fill:#262626;" transform="translate(33.7225 459.808207)scale(0.22 -0.22)">
       <use xlink:href="#ArialMT-31"/>
       <use x="55.615234" xlink:href="#ArialMT-30"/>
       <use x="111.230469" xlink:href="#ArialMT-30"/>
      </g>
     </g>
    </g>
    <g id="ytick_3">
     <g id="line2d_9">
      <path clip-path="url(#pab18a149b6)" d="M 85.924688 341.709471 
L 643.924688 341.709471 
" style="fill:none;stroke:#ffffff;stroke-linecap:round;stroke-width:2;"/>
     </g>
     <g id="text_10">
      <!-- 150 -->
      <g style="fill:#262626;" transform="translate(33.7225 349.583065)scale(0.22 -0.22)">
       <use xlink:href="#ArialMT-31"/>
       <use x="55.615234" xlink:href="#ArialMT-35"/>
       <use x="111.230469" xlink:href="#ArialMT-30"/>
      </g>
     </g>
    </g>
    <g id="ytick_4">
     <g id="line2d_10">
      <path clip-path="url(#pab18a149b6)" d="M 85.924688 231.484329 
L 643.924688 231.484329 
" style="fill:none;stroke:#ffffff;stroke-linecap:round;stroke-width:2;"/>
     </g>
     <g id="text_11">
      <!-- 200 -->
      <g style="fill:#262626;" transform="translate(33.7225 239.357923)scale(0.22 -0.22)">
       <use xlink:href="#ArialMT-32"/>
       <use x="55.615234" xlink:href="#ArialMT-30"/>
       <use x="111.230469" xlink:href="#ArialMT-30"/>
      </g>
     </g>
    </g>
    <g id="ytick_5">
     <g id="line2d_11">
      <path clip-path="url(#pab18a149b6)" d="M 85.924688 121.259187 
L 643.924688 121.259187 
" style="fill:none;stroke:#ffffff;stroke-linecap:round;stroke-width:2;"/>
     </g>
     <g id="text_12">
      <!-- 250 -->
      <g style="fill:#262626;" transform="translate(33.7225 129.132781)scale(0.22 -0.22)">
       <use xlink:href="#ArialMT-32"/>
       <use x="55.615234" xlink:href="#ArialMT-35"/>
       <use x="111.230469" xlink:href="#ArialMT-30"/>
      </g>
     </g>
    </g>
    <g id="text_13">
     <!-- Predicted Dengue Cases -->
     <defs>
      <path d="M 40.234375 0 
L 40.234375 6.546875 
Q 35.296875 -1.171875 25.734375 -1.171875 
Q 19.53125 -1.171875 14.328125 2.25 
Q 9.125 5.671875 6.265625 11.796875 
Q 3.421875 17.921875 3.421875 25.875 
Q 3.421875 33.640625 6 39.96875 
Q 8.59375 46.296875 13.765625 49.65625 
Q 18.953125 53.03125 25.34375 53.03125 
Q 30.03125 53.03125 33.6875 51.046875 
Q 37.359375 49.078125 39.65625 45.90625 
L 39.65625 71.578125 
L 48.390625 71.578125 
L 48.390625 0 
z
M 12.453125 25.875 
Q 12.453125 15.921875 16.640625 10.984375 
Q 20.84375 6.0625 26.5625 6.0625 
Q 32.328125 6.0625 36.34375 10.765625 
Q 40.375 15.484375 40.375 25.140625 
Q 40.375 35.796875 36.265625 40.765625 
Q 32.171875 45.75 26.171875 45.75 
Q 20.3125 45.75 16.375 40.96875 
Q 12.453125 36.1875 12.453125 25.875 
z
" id="ArialMT-64"/>
      <path d="M 6.640625 61.46875 
L 6.640625 71.578125 
L 15.4375 71.578125 
L 15.4375 61.46875 
z
M 6.640625 0 
L 6.640625 51.859375 
L 15.4375 51.859375 
L 15.4375 0 
z
" id="ArialMT-69"/>
      <path d="M 40.4375 19 
L 49.078125 17.875 
Q 47.65625 8.9375 41.8125 3.875 
Q 35.984375 -1.171875 27.484375 -1.171875 
Q 16.84375 -1.171875 10.375 5.78125 
Q 3.90625 12.75 3.90625 25.734375 
Q 3.90625 34.125 6.6875 40.421875 
Q 9.46875 46.734375 15.15625 49.875 
Q 20.84375 53.03125 27.546875 53.03125 
Q 35.984375 53.03125 41.359375 48.75 
Q 46.734375 44.484375 48.25 36.625 
L 39.703125 35.296875 
Q 38.484375 40.53125 35.375 43.15625 
Q 32.28125 45.796875 27.875 45.796875 
Q 21.234375 45.796875 17.078125 41.03125 
Q 12.9375 36.28125 12.9375 25.984375 
Q 12.9375 15.53125 16.9375 10.796875 
Q 20.953125 6.0625 27.390625 6.0625 
Q 32.5625 6.0625 36.03125 9.234375 
Q 39.5 12.40625 40.4375 19 
z
" id="ArialMT-63"/>
      <path d="M 25.78125 7.859375 
L 27.046875 0.09375 
Q 23.34375 -0.6875 20.40625 -0.6875 
Q 15.625 -0.6875 12.984375 0.828125 
Q 10.359375 2.34375 9.28125 4.8125 
Q 8.203125 7.28125 8.203125 15.1875 
L 8.203125 45.015625 
L 1.765625 45.015625 
L 1.765625 51.859375 
L 8.203125 51.859375 
L 8.203125 64.703125 
L 16.9375 69.96875 
L 16.9375 51.859375 
L 25.78125 51.859375 
L 25.78125 45.015625 
L 16.9375 45.015625 
L 16.9375 14.703125 
Q 16.9375 10.9375 17.40625 9.859375 
Q 17.875 8.796875 18.921875 8.15625 
Q 19.96875 7.515625 21.921875 7.515625 
Q 23.390625 7.515625 25.78125 7.859375 
z
" id="ArialMT-74"/>
     </defs>
     <g style="fill:#262626;" transform="translate(24.67125 512.832375)rotate(-90)scale(0.24 -0.24)">
      <use xlink:href="#ArialMT-50"/>
      <use x="66.699219" xlink:href="#ArialMT-72"/>
      <use x="100" xlink:href="#ArialMT-65"/>
      <use x="155.615234" xlink:href="#ArialMT-64"/>
      <use x="211.230469" xlink:href="#ArialMT-69"/>
      <use x="233.447266" xlink:href="#ArialMT-63"/>
      <use x="283.447266" xlink:href="#ArialMT-74"/>
      <use x="311.230469" xlink:href="#ArialMT-65"/>
      <use x="366.845703" xlink:href="#ArialMT-64"/>
      <use x="422.460938" xlink:href="#ArialMT-20"/>
      <use x="450.244141" xlink:href="#ArialMT-44"/>
      <use x="522.460938" xlink:href="#ArialMT-65"/>
      <use x="578.076172" xlink:href="#ArialMT-6e"/>
      <use x="633.691406" xlink:href="#ArialMT-67"/>
      <use x="689.306641" xlink:href="#ArialMT-75"/>
      <use x="744.921875" xlink:href="#ArialMT-65"/>
      <use x="800.537109" xlink:href="#ArialMT-20"/>
      <use x="828.320312" xlink:href="#ArialMT-43"/>
      <use x="900.537109" xlink:href="#ArialMT-61"/>
      <use x="956.152344" xlink:href="#ArialMT-73"/>
      <use x="1006.152344" xlink:href="#ArialMT-65"/>
      <use x="1061.767578" xlink:href="#ArialMT-73"/>
     </g>
    </g>
   </g>
   <g id="PathCollection_1">
    <defs>
     <path d="M 0 6 
C 1.591219 6 3.117479 5.367802 4.242641 4.242641 
C 5.367802 3.117479 6 1.591219 6 0 
C 6 -1.591219 5.367802 -3.117479 4.242641 -4.242641 
C 3.117479 -5.367802 1.591219 -6 0 -6 
C -1.591219 -6 -3.117479 -5.367802 -4.242641 -4.242641 
C -5.367802 -3.117479 -6 -1.591219 -6 0 
C -6 1.591219 -5.367802 3.117479 -4.242641 4.242641 
C -3.117479 5.367802 -1.591219 6 0 6 
z
" id="m883e9cf87a" style="stroke:#4c72b0;stroke-opacity:0.65;"/>
    </defs>
    <g clip-path="url(#pab18a149b6)">
     <use style="fill:#4c72b0;fill-opacity:0.65;stroke:#4c72b0;stroke-opacity:0.65;" x="217.439003" xlink:href="#m883e9cf87a" y="478.600892"/>
     <use style="fill:#4c72b0;fill-opacity:0.65;stroke:#4c72b0;stroke-opacity:0.65;" x="169.827163" xlink:href="#m883e9cf87a" y="513.749444"/>
     <use style="fill:#4c72b0;fill-opacity:0.65;stroke:#4c72b0;stroke-opacity:0.65;" x="224.691333" xlink:href="#m883e9cf87a" y="524.892911"/>
     <use style="fill:#4c72b0;fill-opacity:0.65;stroke:#4c72b0;stroke-opacity:0.65;" x="247.532029" xlink:href="#m883e9cf87a" y="509.969907"/>
     <use style="fill:#4c72b0;fill-opacity:0.65;stroke:#4c72b0;stroke-opacity:0.65;" x="204.568092" xlink:href="#m883e9cf87a" y="485.034048"/>
     <use style="fill:#4c72b0;fill-opacity:0.65;stroke:#4c72b0;stroke-opacity:0.65;" x="222.412733" xlink:href="#m883e9cf87a" y="488.089732"/>
     <use style="fill:#4c72b0;fill-opacity:0.65;stroke:#4c72b0;stroke-opacity:0.65;" x="229.366578" xlink:href="#m883e9cf87a" y="490.834163"/>
     <use style="fill:#4c72b0;fill-opacity:0.65;stroke:#4c72b0;stroke-opacity:0.65;" x="267.17843" xlink:href="#m883e9cf87a" y="512.085329"/>
     <use style="fill:#4c72b0;fill-opacity:0.65;stroke:#4c72b0;stroke-opacity:0.65;" x="264.669247" xlink:href="#m883e9cf87a" y="508.822775"/>
     <use style="fill:#4c72b0;fill-opacity:0.65;stroke:#4c72b0;stroke-opacity:0.65;" x="215.449817" xlink:href="#m883e9cf87a" y="510.188516"/>
     <use style="fill:#4c72b0;fill-opacity:0.65;stroke:#4c72b0;stroke-opacity:0.65;" x="217.73752" xlink:href="#m883e9cf87a" y="506.255249"/>
     <use style="fill:#4c72b0;fill-opacity:0.65;stroke:#4c72b0;stroke-opacity:0.65;" x="222.646242" xlink:href="#m883e9cf87a" y="449.155279"/>
     <use style="fill:#4c72b0;fill-opacity:0.65;stroke:#4c72b0;stroke-opacity:0.65;" x="311.253053" xlink:href="#m883e9cf87a" y="523.294975"/>
     <use style="fill:#4c72b0;fill-opacity:0.65;stroke:#4c72b0;stroke-opacity:0.65;" x="229.981322" xlink:href="#m883e9cf87a" y="506.795538"/>
     <use style="fill:#4c72b0;fill-opacity:0.65;stroke:#4c72b0;stroke-opacity:0.65;" x="285.600461" xlink:href="#m883e9cf87a" y="492.243287"/>
     <use style="fill:#4c72b0;fill-opacity:0.65;stroke:#4c72b0;stroke-opacity:0.65;" x="281.464255" xlink:href="#m883e9cf87a" y="522.765902"/>
     <use style="fill:#4c72b0;fill-opacity:0.65;stroke:#4c72b0;stroke-opacity:0.65;" x="237.142291" xlink:href="#m883e9cf87a" y="501.599996"/>
     <use style="fill:#4c72b0;fill-opacity:0.65;stroke:#4c72b0;stroke-opacity:0.65;" x="284.020059" xlink:href="#m883e9cf87a" y="538.351101"/>
     <use style="fill:#4c72b0;fill-opacity:0.65;stroke:#4c72b0;stroke-opacity:0.65;" x="191.943439" xlink:href="#m883e9cf87a" y="582.593177"/>
     <use style="fill:#4c72b0;fill-opacity:0.65;stroke:#4c72b0;stroke-opacity:0.65;" x="201.503879" xlink:href="#m883e9cf87a" y="530.723865"/>
     <use style="fill:#4c72b0;fill-opacity:0.65;stroke:#4c72b0;stroke-opacity:0.65;" x="217.719991" xlink:href="#m883e9cf87a" y="505.168925"/>
     <use style="fill:#4c72b0;fill-opacity:0.65;stroke:#4c72b0;stroke-opacity:0.65;" x="201.414887" xlink:href="#m883e9cf87a" y="532.813308"/>
     <use style="fill:#4c72b0;fill-opacity:0.65;stroke:#4c72b0;stroke-opacity:0.65;" x="198.966628" xlink:href="#m883e9cf87a" y="531.731895"/>
     <use style="fill:#4c72b0;fill-opacity:0.65;stroke:#4c72b0;stroke-opacity:0.65;" x="222.558578" xlink:href="#m883e9cf87a" y="522.02742"/>
     <use style="fill:#4c72b0;fill-opacity:0.65;stroke:#4c72b0;stroke-opacity:0.65;" x="166.419088" xlink:href="#m883e9cf87a" y="495.736427"/>
     <use style="fill:#4c72b0;fill-opacity:0.65;stroke:#4c72b0;stroke-opacity:0.65;" x="184.06154" xlink:href="#m883e9cf87a" y="510.54598"/>
     <use style="fill:#4c72b0;fill-opacity:0.65;stroke:#4c72b0;stroke-opacity:0.65;" x="297.176074" xlink:href="#m883e9cf87a" y="501.905986"/>
     <use style="fill:#4c72b0;fill-opacity:0.65;stroke:#4c72b0;stroke-opacity:0.65;" x="237.345794" xlink:href="#m883e9cf87a" y="514.889314"/>
     <use style="fill:#4c72b0;fill-opacity:0.65;stroke:#4c72b0;stroke-opacity:0.65;" x="240.279732" xlink:href="#m883e9cf87a" y="499.329118"/>
     <use style="fill:#4c72b0;fill-opacity:0.65;stroke:#4c72b0;stroke-opacity:0.65;" x="186.405644" xlink:href="#m883e9cf87a" y="493.109734"/>
     <use style="fill:#4c72b0;fill-opacity:0.65;stroke:#4c72b0;stroke-opacity:0.65;" x="297.734277" xlink:href="#m883e9cf87a" y="476.816772"/>
     <use style="fill:#4c72b0;fill-opacity:0.65;stroke:#4c72b0;stroke-opacity:0.65;" x="366.117813" xlink:href="#m883e9cf87a" y="430.445047"/>
     <use style="fill:#4c72b0;fill-opacity:0.65;stroke:#4c72b0;stroke-opacity:0.65;" x="222.163597" xlink:href="#m883e9cf87a" y="505.929156"/>
     <use style="fill:#4c72b0;fill-opacity:0.65;stroke:#4c72b0;stroke-opacity:0.65;" x="267.036179" xlink:href="#m883e9cf87a" y="499.404895"/>
     <use style="fill:#4c72b0;fill-opacity:0.65;stroke:#4c72b0;stroke-opacity:0.65;" x="376.736817" xlink:href="#m883e9cf87a" y="470.418646"/>
     <use style="fill:#4c72b0;fill-opacity:0.65;stroke:#4c72b0;stroke-opacity:0.65;" x="213.360311" xlink:href="#m883e9cf87a" y="499.159994"/>
     <use style="fill:#4c72b0;fill-opacity:0.65;stroke:#4c72b0;stroke-opacity:0.65;" x="264.628395" xlink:href="#m883e9cf87a" y="510.351196"/>
     <use style="fill:#4c72b0;fill-opacity:0.65;stroke:#4c72b0;stroke-opacity:0.65;" x="241.124535" xlink:href="#m883e9cf87a" y="479.549667"/>
     <use style="fill:#4c72b0;fill-opacity:0.65;stroke:#4c72b0;stroke-opacity:0.65;" x="257.3473" xlink:href="#m883e9cf87a" y="494.933549"/>
     <use style="fill:#4c72b0;fill-opacity:0.65;stroke:#4c72b0;stroke-opacity:0.65;" x="217.572562" xlink:href="#m883e9cf87a" y="511.630845"/>
     <use style="fill:#4c72b0;fill-opacity:0.65;stroke:#4c72b0;stroke-opacity:0.65;" x="208.394472" xlink:href="#m883e9cf87a" y="507.863463"/>
     <use style="fill:#4c72b0;fill-opacity:0.65;stroke:#4c72b0;stroke-opacity:0.65;" x="240.256494" xlink:href="#m883e9cf87a" y="495.526484"/>
     <use style="fill:#4c72b0;fill-opacity:0.65;stroke:#4c72b0;stroke-opacity:0.65;" x="255.965884" xlink:href="#m883e9cf87a" y="546.495501"/>
     <use style="fill:#4c72b0;fill-opacity:0.65;stroke:#4c72b0;stroke-opacity:0.65;" x="219.715556" xlink:href="#m883e9cf87a" y="527.657971"/>
     <use style="fill:#4c72b0;fill-opacity:0.65;stroke:#4c72b0;stroke-opacity:0.65;" x="205.938602" xlink:href="#m883e9cf87a" y="489.243562"/>
     <use style="fill:#4c72b0;fill-opacity:0.65;stroke:#4c72b0;stroke-opacity:0.65;" x="237.497711" xlink:href="#m883e9cf87a" y="529.726788"/>
     <use style="fill:#4c72b0;fill-opacity:0.65;stroke:#4c72b0;stroke-opacity:0.65;" x="167.975956" xlink:href="#m883e9cf87a" y="525.952684"/>
     <use style="fill:#4c72b0;fill-opacity:0.65;stroke:#4c72b0;stroke-opacity:0.65;" x="189.78209" xlink:href="#m883e9cf87a" y="544.252567"/>
     <use style="fill:#4c72b0;fill-opacity:0.65;stroke:#4c72b0;stroke-opacity:0.65;" x="241.953399" xlink:href="#m883e9cf87a" y="505.742587"/>
     <use style="fill:#4c72b0;fill-opacity:0.65;stroke:#4c72b0;stroke-opacity:0.65;" x="273.271427" xlink:href="#m883e9cf87a" y="519.726358"/>
     <use style="fill:#4c72b0;fill-opacity:0.65;stroke:#4c72b0;stroke-opacity:0.65;" x="190.794038" xlink:href="#m883e9cf87a" y="517.270915"/>
     <use style="fill:#4c72b0;fill-opacity:0.65;stroke:#4c72b0;stroke-opacity:0.65;" x="232.508474" xlink:href="#m883e9cf87a" y="498.333663"/>
     <use style="fill:#4c72b0;fill-opacity:0.65;stroke:#4c72b0;stroke-opacity:0.65;" x="213.993766" xlink:href="#m883e9cf87a" y="528.2211"/>
     <use style="fill:#4c72b0;fill-opacity:0.65;stroke:#4c72b0;stroke-opacity:0.65;" x="287.619085" xlink:href="#m883e9cf87a" y="497.134761"/>
     <use style="fill:#4c72b0;fill-opacity:0.65;stroke:#4c72b0;stroke-opacity:0.65;" x="228.213105" xlink:href="#m883e9cf87a" y="495.176014"/>
     <use style="fill:#4c72b0;fill-opacity:0.65;stroke:#4c72b0;stroke-opacity:0.65;" x="179.213271" xlink:href="#m883e9cf87a" y="527.274038"/>
     <use style="fill:#4c72b0;fill-opacity:0.65;stroke:#4c72b0;stroke-opacity:0.65;" x="246.612158" xlink:href="#m883e9cf87a" y="517.513861"/>
     <use style="fill:#4c72b0;fill-opacity:0.65;stroke:#4c72b0;stroke-opacity:0.65;" x="561.339064" xlink:href="#m883e9cf87a" y="512.52696"/>
     <use style="fill:#4c72b0;fill-opacity:0.65;stroke:#4c72b0;stroke-opacity:0.65;" x="224.557292" xlink:href="#m883e9cf87a" y="520.362841"/>
     <use style="fill:#4c72b0;fill-opacity:0.65;stroke:#4c72b0;stroke-opacity:0.65;" x="217.563488" xlink:href="#m883e9cf87a" y="509.016293"/>
     <use style="fill:#4c72b0;fill-opacity:0.65;stroke:#4c72b0;stroke-opacity:0.65;" x="185.759637" xlink:href="#m883e9cf87a" y="540.056871"/>
     <use style="fill:#4c72b0;fill-opacity:0.65;stroke:#4c72b0;stroke-opacity:0.65;" x="280.765391" xlink:href="#m883e9cf87a" y="516.642895"/>
     <use style="fill:#4c72b0;fill-opacity:0.65;stroke:#4c72b0;stroke-opacity:0.65;" x="246.788336" xlink:href="#m883e9cf87a" y="517.368454"/>
     <use style="fill:#4c72b0;fill-opacity:0.65;stroke:#4c72b0;stroke-opacity:0.65;" x="406.003702" xlink:href="#m883e9cf87a" y="467.239729"/>
     <use style="fill:#4c72b0;fill-opacity:0.65;stroke:#4c72b0;stroke-opacity:0.65;" x="247.231" xlink:href="#m883e9cf87a" y="470.476089"/>
     <use style="fill:#4c72b0;fill-opacity:0.65;stroke:#4c72b0;stroke-opacity:0.65;" x="283.332727" xlink:href="#m883e9cf87a" y="458.293327"/>
     <use style="fill:#4c72b0;fill-opacity:0.65;stroke:#4c72b0;stroke-opacity:0.65;" x="230.133538" xlink:href="#m883e9cf87a" y="536.128696"/>
     <use style="fill:#4c72b0;fill-opacity:0.65;stroke:#4c72b0;stroke-opacity:0.65;" x="263.829299" xlink:href="#m883e9cf87a" y="519.043182"/>
     <use style="fill:#4c72b0;fill-opacity:0.65;stroke:#4c72b0;stroke-opacity:0.65;" x="233.282757" xlink:href="#m883e9cf87a" y="521.918348"/>
     <use style="fill:#4c72b0;fill-opacity:0.65;stroke:#4c72b0;stroke-opacity:0.65;" x="202.798592" xlink:href="#m883e9cf87a" y="525.878681"/>
     <use style="fill:#4c72b0;fill-opacity:0.65;stroke:#4c72b0;stroke-opacity:0.65;" x="195.89089" xlink:href="#m883e9cf87a" y="464.688678"/>
     <use style="fill:#4c72b0;fill-opacity:0.65;stroke:#4c72b0;stroke-opacity:0.65;" x="276.608646" xlink:href="#m883e9cf87a" y="476.078146"/>
     <use style="fill:#4c72b0;fill-opacity:0.65;stroke:#4c72b0;stroke-opacity:0.65;" x="266.956131" xlink:href="#m883e9cf87a" y="512.469415"/>
     <use style="fill:#4c72b0;fill-opacity:0.65;stroke:#4c72b0;stroke-opacity:0.65;" x="219.732906" xlink:href="#m883e9cf87a" y="507.222479"/>
     <use style="fill:#4c72b0;fill-opacity:0.65;stroke:#4c72b0;stroke-opacity:0.65;" x="198.814323" xlink:href="#m883e9cf87a" y="552.425105"/>
     <use style="fill:#4c72b0;fill-opacity:0.65;stroke:#4c72b0;stroke-opacity:0.65;" x="246.065205" xlink:href="#m883e9cf87a" y="513.772096"/>
     <use style="fill:#4c72b0;fill-opacity:0.65;stroke:#4c72b0;stroke-opacity:0.65;" x="250.277431" xlink:href="#m883e9cf87a" y="510.367304"/>
     <use style="fill:#4c72b0;fill-opacity:0.65;stroke:#4c72b0;stroke-opacity:0.65;" x="325.175814" xlink:href="#m883e9cf87a" y="505.549367"/>
     <use style="fill:#4c72b0;fill-opacity:0.65;stroke:#4c72b0;stroke-opacity:0.65;" x="248.595234" xlink:href="#m883e9cf87a" y="489.862079"/>
     <use style="fill:#4c72b0;fill-opacity:0.65;stroke:#4c72b0;stroke-opacity:0.65;" x="312.127737" xlink:href="#m883e9cf87a" y="491.097371"/>
     <use style="fill:#4c72b0;fill-opacity:0.65;stroke:#4c72b0;stroke-opacity:0.65;" x="235.576066" xlink:href="#m883e9cf87a" y="509.308427"/>
     <use style="fill:#4c72b0;fill-opacity:0.65;stroke:#4c72b0;stroke-opacity:0.65;" x="221.053787" xlink:href="#m883e9cf87a" y="518.934161"/>
     <use style="fill:#4c72b0;fill-opacity:0.65;stroke:#4c72b0;stroke-opacity:0.65;" x="220.583696" xlink:href="#m883e9cf87a" y="505.554016"/>
     <use style="fill:#4c72b0;fill-opacity:0.65;stroke:#4c72b0;stroke-opacity:0.65;" x="206.513223" xlink:href="#m883e9cf87a" y="511.549164"/>
     <use style="fill:#4c72b0;fill-opacity:0.65;stroke:#4c72b0;stroke-opacity:0.65;" x="224.638273" xlink:href="#m883e9cf87a" y="503.670821"/>
     <use style="fill:#4c72b0;fill-opacity:0.65;stroke:#4c72b0;stroke-opacity:0.65;" x="285.325598" xlink:href="#m883e9cf87a" y="503.92789"/>
     <use style="fill:#4c72b0;fill-opacity:0.65;stroke:#4c72b0;stroke-opacity:0.65;" x="250.867088" xlink:href="#m883e9cf87a" y="511.230998"/>
     <use style="fill:#4c72b0;fill-opacity:0.65;stroke:#4c72b0;stroke-opacity:0.65;" x="247.12529" xlink:href="#m883e9cf87a" y="510.361077"/>
     <use style="fill:#4c72b0;fill-opacity:0.65;stroke:#4c72b0;stroke-opacity:0.65;" x="214.774711" xlink:href="#m883e9cf87a" y="510.538713"/>
     <use style="fill:#4c72b0;fill-opacity:0.65;stroke:#4c72b0;stroke-opacity:0.65;" x="188.491124" xlink:href="#m883e9cf87a" y="524.312983"/>
     <use style="fill:#4c72b0;fill-opacity:0.65;stroke:#4c72b0;stroke-opacity:0.65;" x="187.560881" xlink:href="#m883e9cf87a" y="534.107892"/>
     <use style="fill:#4c72b0;fill-opacity:0.65;stroke:#4c72b0;stroke-opacity:0.65;" x="305.805574" xlink:href="#m883e9cf87a" y="508.192361"/>
     <use style="fill:#4c72b0;fill-opacity:0.65;stroke:#4c72b0;stroke-opacity:0.65;" x="248.936732" xlink:href="#m883e9cf87a" y="516.87172"/>
     <use style="fill:#4c72b0;fill-opacity:0.65;stroke:#4c72b0;stroke-opacity:0.65;" x="369.378047" xlink:href="#m883e9cf87a" y="501.072836"/>
     <use style="fill:#4c72b0;fill-opacity:0.65;stroke:#4c72b0;stroke-opacity:0.65;" x="300.939642" xlink:href="#m883e9cf87a" y="526.721824"/>
     <use style="fill:#4c72b0;fill-opacity:0.65;stroke:#4c72b0;stroke-opacity:0.65;" x="297.004476" xlink:href="#m883e9cf87a" y="502.553821"/>
     <use style="fill:#4c72b0;fill-opacity:0.65;stroke:#4c72b0;stroke-opacity:0.65;" x="316.381832" xlink:href="#m883e9cf87a" y="518.957801"/>
     <use style="fill:#4c72b0;fill-opacity:0.65;stroke:#4c72b0;stroke-opacity:0.65;" x="297.042486" xlink:href="#m883e9cf87a" y="508.651829"/>
     <use style="fill:#4c72b0;fill-opacity:0.65;stroke:#4c72b0;stroke-opacity:0.65;" x="297.075848" xlink:href="#m883e9cf87a" y="486.674224"/>
     <use style="fill:#4c72b0;fill-opacity:0.65;stroke:#4c72b0;stroke-opacity:0.65;" x="180.679194" xlink:href="#m883e9cf87a" y="497.863114"/>
     <use style="fill:#4c72b0;fill-opacity:0.65;stroke:#4c72b0;stroke-opacity:0.65;" x="221.509544" xlink:href="#m883e9cf87a" y="502.390906"/>
     <use style="fill:#4c72b0;fill-opacity:0.65;stroke:#4c72b0;stroke-opacity:0.65;" x="224.527857" xlink:href="#m883e9cf87a" y="497.924066"/>
     <use style="fill:#4c72b0;fill-opacity:0.65;stroke:#4c72b0;stroke-opacity:0.65;" x="155.799755" xlink:href="#m883e9cf87a" y="485.11641"/>
     <use style="fill:#4c72b0;fill-opacity:0.65;stroke:#4c72b0;stroke-opacity:0.65;" x="371.177255" xlink:href="#m883e9cf87a" y="451.648054"/>
     <use style="fill:#4c72b0;fill-opacity:0.65;stroke:#4c72b0;stroke-opacity:0.65;" x="215.721336" xlink:href="#m883e9cf87a" y="492.356246"/>
     <use style="fill:#4c72b0;fill-opacity:0.65;stroke:#4c72b0;stroke-opacity:0.65;" x="304.958966" xlink:href="#m883e9cf87a" y="480.131769"/>
     <use style="fill:#4c72b0;fill-opacity:0.65;stroke:#4c72b0;stroke-opacity:0.65;" x="335.026676" xlink:href="#m883e9cf87a" y="484.814232"/>
     <use style="fill:#4c72b0;fill-opacity:0.65;stroke:#4c72b0;stroke-opacity:0.65;" x="300.621792" xlink:href="#m883e9cf87a" y="505.59648"/>
     <use style="fill:#4c72b0;fill-opacity:0.65;stroke:#4c72b0;stroke-opacity:0.65;" x="264.200374" xlink:href="#m883e9cf87a" y="515.924376"/>
     <use style="fill:#4c72b0;fill-opacity:0.65;stroke:#4c72b0;stroke-opacity:0.65;" x="196.599826" xlink:href="#m883e9cf87a" y="514.779854"/>
     <use style="fill:#4c72b0;fill-opacity:0.65;stroke:#4c72b0;stroke-opacity:0.65;" x="249.426528" xlink:href="#m883e9cf87a" y="493.445285"/>
     <use style="fill:#4c72b0;fill-opacity:0.65;stroke:#4c72b0;stroke-opacity:0.65;" x="286.499665" xlink:href="#m883e9cf87a" y="515.906116"/>
     <use style="fill:#4c72b0;fill-opacity:0.65;stroke:#4c72b0;stroke-opacity:0.65;" x="217.924518" xlink:href="#m883e9cf87a" y="513.947665"/>
     <use style="fill:#4c72b0;fill-opacity:0.65;stroke:#4c72b0;stroke-opacity:0.65;" x="270.715469" xlink:href="#m883e9cf87a" y="514.636257"/>
     <use style="fill:#4c72b0;fill-opacity:0.65;stroke:#4c72b0;stroke-opacity:0.65;" x="260.62282" xlink:href="#m883e9cf87a" y="474.664899"/>
     <use style="fill:#4c72b0;fill-opacity:0.65;stroke:#4c72b0;stroke-opacity:0.65;" x="210.958568" xlink:href="#m883e9cf87a" y="500.089759"/>
     <use style="fill:#4c72b0;fill-opacity:0.65;stroke:#4c72b0;stroke-opacity:0.65;" x="315.654426" xlink:href="#m883e9cf87a" y="475.26594"/>
     <use style="fill:#4c72b0;fill-opacity:0.65;stroke:#4c72b0;stroke-opacity:0.65;" x="235.825945" xlink:href="#m883e9cf87a" y="483.803496"/>
     <use style="fill:#4c72b0;fill-opacity:0.65;stroke:#4c72b0;stroke-opacity:0.65;" x="207.321737" xlink:href="#m883e9cf87a" y="510.765204"/>
     <use style="fill:#4c72b0;fill-opacity:0.65;stroke:#4c72b0;stroke-opacity:0.65;" x="247.462499" xlink:href="#m883e9cf87a" y="465.201396"/>
     <use style="fill:#4c72b0;fill-opacity:0.65;stroke:#4c72b0;stroke-opacity:0.65;" x="309.999762" xlink:href="#m883e9cf87a" y="488.540229"/>
     <use style="fill:#4c72b0;fill-opacity:0.65;stroke:#4c72b0;stroke-opacity:0.65;" x="251.070051" xlink:href="#m883e9cf87a" y="522.201611"/>
     <use style="fill:#4c72b0;fill-opacity:0.65;stroke:#4c72b0;stroke-opacity:0.65;" x="168.196023" xlink:href="#m883e9cf87a" y="508.571233"/>
     <use style="fill:#4c72b0;fill-opacity:0.65;stroke:#4c72b0;stroke-opacity:0.65;" x="134.531044" xlink:href="#m883e9cf87a" y="508.664968"/>
     <use style="fill:#4c72b0;fill-opacity:0.65;stroke:#4c72b0;stroke-opacity:0.65;" x="240.822735" xlink:href="#m883e9cf87a" y="521.995368"/>
     <use style="fill:#4c72b0;fill-opacity:0.65;stroke:#4c72b0;stroke-opacity:0.65;" x="280.345449" xlink:href="#m883e9cf87a" y="487.413141"/>
     <use style="fill:#4c72b0;fill-opacity:0.65;stroke:#4c72b0;stroke-opacity:0.65;" x="242.702937" xlink:href="#m883e9cf87a" y="533.248878"/>
     <use style="fill:#4c72b0;fill-opacity:0.65;stroke:#4c72b0;stroke-opacity:0.65;" x="279.610151" xlink:href="#m883e9cf87a" y="514.170152"/>
     <use style="fill:#4c72b0;fill-opacity:0.65;stroke:#4c72b0;stroke-opacity:0.65;" x="333.571117" xlink:href="#m883e9cf87a" y="446.689942"/>
     <use style="fill:#4c72b0;fill-opacity:0.65;stroke:#4c72b0;stroke-opacity:0.65;" x="245.583884" xlink:href="#m883e9cf87a" y="444.333926"/>
     <use style="fill:#4c72b0;fill-opacity:0.65;stroke:#4c72b0;stroke-opacity:0.65;" x="406.825215" xlink:href="#m883e9cf87a" y="481.598897"/>
     <use style="fill:#4c72b0;fill-opacity:0.65;stroke:#4c72b0;stroke-opacity:0.65;" x="268.486569" xlink:href="#m883e9cf87a" y="495.738683"/>
     <use style="fill:#4c72b0;fill-opacity:0.65;stroke:#4c72b0;stroke-opacity:0.65;" x="444.883271" xlink:href="#m883e9cf87a" y="502.726708"/>
     <use style="fill:#4c72b0;fill-opacity:0.65;stroke:#4c72b0;stroke-opacity:0.65;" x="369.081282" xlink:href="#m883e9cf87a" y="471.422189"/>
     <use style="fill:#4c72b0;fill-opacity:0.65;stroke:#4c72b0;stroke-opacity:0.65;" x="203.57254" xlink:href="#m883e9cf87a" y="543.704265"/>
     <use style="fill:#4c72b0;fill-opacity:0.65;stroke:#4c72b0;stroke-opacity:0.65;" x="208.319741" xlink:href="#m883e9cf87a" y="525.400044"/>
     <use style="fill:#4c72b0;fill-opacity:0.65;stroke:#4c72b0;stroke-opacity:0.65;" x="232.612516" xlink:href="#m883e9cf87a" y="479.422007"/>
     <use style="fill:#4c72b0;fill-opacity:0.65;stroke:#4c72b0;stroke-opacity:0.65;" x="235.901985" xlink:href="#m883e9cf87a" y="506.153464"/>
     <use style="fill:#4c72b0;fill-opacity:0.65;stroke:#4c72b0;stroke-opacity:0.65;" x="167.328794" xlink:href="#m883e9cf87a" y="537.68549"/>
     <use style="fill:#4c72b0;fill-opacity:0.65;stroke:#4c72b0;stroke-opacity:0.65;" x="160.654191" xlink:href="#m883e9cf87a" y="530.978567"/>
     <use style="fill:#4c72b0;fill-opacity:0.65;stroke:#4c72b0;stroke-opacity:0.65;" x="181.756268" xlink:href="#m883e9cf87a" y="547.231084"/>
     <use style="fill:#4c72b0;fill-opacity:0.65;stroke:#4c72b0;stroke-opacity:0.65;" x="265.026384" xlink:href="#m883e9cf87a" y="506.086707"/>
     <use style="fill:#4c72b0;fill-opacity:0.65;stroke:#4c72b0;stroke-opacity:0.65;" x="138.61776" xlink:href="#m883e9cf87a" y="453.048178"/>
     <use style="fill:#4c72b0;fill-opacity:0.65;stroke:#4c72b0;stroke-opacity:0.65;" x="295.625389" xlink:href="#m883e9cf87a" y="478.112053"/>
     <use style="fill:#4c72b0;fill-opacity:0.65;stroke:#4c72b0;stroke-opacity:0.65;" x="595.318331" xlink:href="#m883e9cf87a" y="457.986828"/>
     <use style="fill:#4c72b0;fill-opacity:0.65;stroke:#4c72b0;stroke-opacity:0.65;" x="209.176231" xlink:href="#m883e9cf87a" y="438.97632"/>
     <use style="fill:#4c72b0;fill-opacity:0.65;stroke:#4c72b0;stroke-opacity:0.65;" x="241.315395" xlink:href="#m883e9cf87a" y="527.382998"/>
     <use style="fill:#4c72b0;fill-opacity:0.65;stroke:#4c72b0;stroke-opacity:0.65;" x="241.643739" xlink:href="#m883e9cf87a" y="491.08304"/>
     <use style="fill:#4c72b0;fill-opacity:0.65;stroke:#4c72b0;stroke-opacity:0.65;" x="202.681268" xlink:href="#m883e9cf87a" y="509.443574"/>
     <use style="fill:#4c72b0;fill-opacity:0.65;stroke:#4c72b0;stroke-opacity:0.65;" x="185.503681" xlink:href="#m883e9cf87a" y="531.489398"/>
     <use style="fill:#4c72b0;fill-opacity:0.65;stroke:#4c72b0;stroke-opacity:0.65;" x="195.367643" xlink:href="#m883e9cf87a" y="502.515986"/>
     <use style="fill:#4c72b0;fill-opacity:0.65;stroke:#4c72b0;stroke-opacity:0.65;" x="232.411662" xlink:href="#m883e9cf87a" y="493.611969"/>
     <use style="fill:#4c72b0;fill-opacity:0.65;stroke:#4c72b0;stroke-opacity:0.65;" x="193.324886" xlink:href="#m883e9cf87a" y="584.964627"/>
     <use style="fill:#4c72b0;fill-opacity:0.65;stroke:#4c72b0;stroke-opacity:0.65;" x="231.148361" xlink:href="#m883e9cf87a" y="518.744987"/>
     <use style="fill:#4c72b0;fill-opacity:0.65;stroke:#4c72b0;stroke-opacity:0.65;" x="239.932261" xlink:href="#m883e9cf87a" y="519.48779"/>
     <use style="fill:#4c72b0;fill-opacity:0.65;stroke:#4c72b0;stroke-opacity:0.65;" x="184.729567" xlink:href="#m883e9cf87a" y="511.667352"/>
     <use style="fill:#4c72b0;fill-opacity:0.65;stroke:#4c72b0;stroke-opacity:0.65;" x="222.529299" xlink:href="#m883e9cf87a" y="505.607664"/>
     <use style="fill:#4c72b0;fill-opacity:0.65;stroke:#4c72b0;stroke-opacity:0.65;" x="189.853263" xlink:href="#m883e9cf87a" y="482.33936"/>
     <use style="fill:#4c72b0;fill-opacity:0.65;stroke:#4c72b0;stroke-opacity:0.65;" x="277.678743" xlink:href="#m883e9cf87a" y="483.272887"/>
    </g>
   </g>
   <g id="PolyCollection_1">
    <defs>
     <path d="M 111.288324 -207.402682 
L 111.288324 -186.706697 
L 116.412291 -187.72117 
L 121.536258 -188.737424 
L 126.660225 -189.823746 
L 131.784192 -190.876074 
L 136.908159 -191.88233 
L 142.032126 -192.904664 
L 147.156092 -193.904436 
L 152.280059 -194.966186 
L 157.404026 -195.991504 
L 162.527993 -197.091145 
L 167.65196 -198.156835 
L 172.775927 -199.222729 
L 177.899894 -200.264331 
L 183.023861 -201.199471 
L 188.147828 -202.085991 
L 193.271795 -203.145754 
L 198.395762 -204.105806 
L 203.519729 -205.041882 
L 208.643696 -205.910645 
L 213.767663 -206.778049 
L 218.89163 -207.638543 
L 224.015597 -208.429304 
L 229.139564 -209.165521 
L 234.26353 -209.982618 
L 239.387497 -210.88407 
L 244.511464 -211.584022 
L 249.635431 -212.315455 
L 254.759398 -213.058026 
L 259.883365 -213.716915 
L 265.007332 -214.26036 
L 270.131299 -214.759615 
L 275.255266 -215.315771 
L 280.379233 -215.948689 
L 285.5032 -216.513925 
L 290.627167 -216.907938 
L 295.751134 -217.343206 
L 300.875101 -217.758542 
L 305.999068 -218.255455 
L 311.123035 -218.747326 
L 316.247002 -219.165512 
L 321.370968 -219.501444 
L 326.494935 -219.938815 
L 331.618902 -220.409387 
L 336.742869 -220.857221 
L 341.866836 -221.39662 
L 346.990803 -221.890237 
L 352.11477 -222.378167 
L 357.238737 -222.762835 
L 362.362704 -223.239628 
L 367.486671 -223.676874 
L 372.610638 -224.155704 
L 377.734605 -224.52069 
L 382.858572 -224.7718 
L 387.982539 -225.11814 
L 393.106506 -225.434794 
L 398.230473 -225.84985 
L 403.35444 -226.267645 
L 408.478407 -226.685441 
L 413.602373 -226.966331 
L 418.72634 -227.379912 
L 423.850307 -227.795367 
L 428.974274 -228.210822 
L 434.098241 -228.62646 
L 439.222208 -229.042407 
L 444.346175 -229.458353 
L 449.470142 -229.864886 
L 454.594109 -230.258854 
L 459.718076 -230.690719 
L 464.842043 -231.119006 
L 469.96601 -231.534461 
L 475.089977 -231.919592 
L 480.213944 -232.29188 
L 485.337911 -232.655892 
L 490.461878 -233.033779 
L 495.585845 -233.389177 
L 500.709811 -233.717895 
L 505.833778 -234.146636 
L 510.957745 -234.51839 
L 516.081712 -234.89143 
L 521.205679 -235.262213 
L 526.329646 -235.596158 
L 531.453613 -235.888781 
L 536.57758 -236.21496 
L 541.701547 -236.54231 
L 546.825514 -236.876231 
L 551.949481 -237.244159 
L 557.073448 -237.613437 
L 562.197415 -238.021604 
L 567.321382 -238.463613 
L 572.445349 -238.77335 
L 577.569316 -239.089985 
L 582.693283 -239.457385 
L 587.817249 -239.824786 
L 592.941216 -240.192186 
L 598.065183 -240.559587 
L 603.18915 -240.927321 
L 608.313117 -241.29679 
L 613.437084 -241.666259 
L 618.561051 -242.035728 
L 618.561051 -292.39052 
L 618.561051 -292.39052 
L 613.437084 -291.354523 
L 608.313117 -290.318527 
L 603.18915 -289.25384 
L 598.065183 -288.171683 
L 592.941216 -287.089144 
L 587.817249 -286.006605 
L 582.693283 -284.924066 
L 577.569316 -283.843925 
L 572.445349 -282.764459 
L 567.321382 -281.684993 
L 562.197415 -280.604854 
L 557.073448 -279.52373 
L 551.949481 -278.442607 
L 546.825514 -277.380223 
L 541.701547 -276.358792 
L 536.57758 -275.337361 
L 531.453613 -274.31593 
L 526.329646 -273.294499 
L 521.205679 -272.273068 
L 516.081712 -271.251637 
L 510.957745 -270.230206 
L 505.833778 -269.208775 
L 500.709811 -268.187344 
L 495.585845 -267.168871 
L 490.461878 -266.195 
L 485.337911 -265.221129 
L 480.213944 -264.117736 
L 475.089977 -263.076879 
L 469.96601 -262.056704 
L 464.842043 -261.033806 
L 459.718076 -260.010909 
L 454.594109 -258.988011 
L 449.470142 -257.92325 
L 444.346175 -256.831581 
L 439.222208 -255.739913 
L 434.098241 -254.648244 
L 428.974274 -253.599165 
L 423.850307 -252.606367 
L 418.72634 -251.613569 
L 413.602373 -250.620771 
L 408.478407 -249.627973 
L 403.35444 -248.635175 
L 398.230473 -247.642377 
L 393.106506 -246.649579 
L 387.982539 -245.656781 
L 382.858572 -244.663983 
L 377.734605 -243.622436 
L 372.610638 -242.499359 
L 367.486671 -241.375926 
L 362.362704 -240.264513 
L 357.238737 -239.291292 
L 352.11477 -238.31807 
L 346.990803 -237.24744 
L 341.866836 -236.153331 
L 336.742869 -235.062066 
L 331.618902 -234.011072 
L 326.494935 -232.91636 
L 321.370968 -231.877978 
L 316.247002 -230.865394 
L 311.123035 -229.871444 
L 305.999068 -228.929086 
L 300.875101 -228.010602 
L 295.751134 -227.018777 
L 290.627167 -226.066309 
L 285.5032 -225.167786 
L 280.379233 -224.259972 
L 275.255266 -223.432138 
L 270.131299 -222.777655 
L 265.007332 -221.825901 
L 259.883365 -220.913751 
L 254.759398 -220.341736 
L 249.635431 -219.601965 
L 244.511464 -218.995024 
L 239.387497 -218.472534 
L 234.26353 -217.847866 
L 229.139564 -217.295175 
L 224.015597 -216.812903 
L 218.89163 -216.194961 
L 213.767663 -215.766813 
L 208.643696 -215.278511 
L 203.519729 -214.784122 
L 198.395762 -214.291378 
L 193.271795 -213.950411 
L 188.147828 -213.563285 
L 183.023861 -213.131179 
L 177.899894 -212.750927 
L 172.775927 -212.349287 
L 167.65196 -211.862702 
L 162.527993 -211.457246 
L 157.404026 -211.05179 
L 152.280059 -210.713504 
L 147.156092 -210.249432 
L 142.032126 -209.835332 
L 136.908159 -209.448449 
L 131.784192 -209.024508 
L 126.660225 -208.622012 
L 121.536258 -208.213595 
L 116.412291 -207.808139 
L 111.288324 -207.402682 
z
" id="ma5ad267d69" style="stroke:#ffffff;stroke-opacity:0.15;stroke-width:2;"/>
    </defs>
    <g clip-path="url(#pab18a149b6)">
     <use style="fill:#4c72b0;fill-opacity:0.15;stroke:#ffffff;stroke-opacity:0.15;stroke-width:2;" x="0" xlink:href="#ma5ad267d69" y="720.570187"/>
    </g>
   </g>
   <g id="line2d_12">
    <path clip-path="url(#pab18a149b6)" d="M 111.288324 522.812271 
L 116.412291 522.135952 
L 121.536258 521.459632 
L 126.660225 520.783313 
L 131.784192 520.106994 
L 136.908159 519.430675 
L 142.032126 518.754355 
L 147.156092 518.078036 
L 152.280059 517.401717 
L 157.404026 516.725397 
L 162.527993 516.049078 
L 167.65196 515.372759 
L 172.775927 514.69644 
L 177.899894 514.02012 
L 183.023861 513.343801 
L 188.147828 512.667482 
L 193.271795 511.991162 
L 198.395762 511.314843 
L 203.519729 510.638524 
L 208.643696 509.962205 
L 213.767663 509.285885 
L 218.89163 508.609566 
L 224.015597 507.933247 
L 229.139564 507.256927 
L 234.26353 506.580608 
L 239.387497 505.904289 
L 244.511464 505.22797 
L 249.635431 504.55165 
L 254.759398 503.875331 
L 259.883365 503.199012 
L 265.007332 502.522692 
L 270.131299 501.846373 
L 275.255266 501.170054 
L 280.379233 500.493735 
L 285.5032 499.817415 
L 290.627167 499.141096 
L 295.751134 498.464777 
L 300.875101 497.788457 
L 305.999068 497.112138 
L 311.123035 496.435819 
L 316.247002 495.7595 
L 321.370968 495.08318 
L 326.494935 494.406861 
L 331.618902 493.730542 
L 336.742869 493.054223 
L 341.866836 492.377903 
L 346.990803 491.701584 
L 352.11477 491.025265 
L 357.238737 490.348945 
L 362.362704 489.672626 
L 367.486671 488.996307 
L 372.610638 488.319988 
L 377.734605 487.643668 
L 382.858572 486.967349 
L 387.982539 486.29103 
L 393.106506 485.61471 
L 398.230473 484.938391 
L 403.35444 484.262072 
L 408.478407 483.585753 
L 413.602373 482.909433 
L 418.72634 482.233114 
L 423.850307 481.556795 
L 428.974274 480.880475 
L 434.098241 480.204156 
L 439.222208 479.527837 
L 444.346175 478.851518 
L 449.470142 478.175198 
L 454.594109 477.498879 
L 459.718076 476.82256 
L 464.842043 476.14624 
L 469.96601 475.469921 
L 475.089977 474.793602 
L 480.213944 474.117283 
L 485.337911 473.440963 
L 490.461878 472.764644 
L 495.585845 472.088325 
L 500.709811 471.412005 
L 505.833778 470.735686 
L 510.957745 470.059367 
L 516.081712 469.383048 
L 521.205679 468.706728 
L 526.329646 468.030409 
L 531.453613 467.35409 
L 536.57758 466.677771 
L 541.701547 466.001451 
L 546.825514 465.325132 
L 551.949481 464.648813 
L 557.073448 463.972493 
L 562.197415 463.296174 
L 567.321382 462.619855 
L 572.445349 461.943536 
L 577.569316 461.267216 
L 582.693283 460.590897 
L 587.817249 459.914578 
L 592.941216 459.238258 
L 598.065183 458.561939 
L 603.18915 457.88562 
L 608.313117 457.209301 
L 613.437084 456.532981 
L 618.561051 455.856662 
" style="fill:none;stroke:#4c72b0;stroke-linecap:round;stroke-width:4.5;"/>
   </g>
   <g id="line2d_13">
    <path clip-path="url(#pab18a149b6)" d="M 134.531044 626.518909 
L 595.318331 132.337091 
" style="fill:none;stroke:#808080;stroke-dasharray:11.1,4.8;stroke-dashoffset:0;stroke-width:3;"/>
   </g>
   <g id="patch_3">
    <path d="M 85.924688 651.228 
L 85.924688 107.628 
" style="fill:none;stroke:#ffffff;stroke-linecap:square;stroke-linejoin:miter;stroke-width:2.5;"/>
   </g>
   <g id="patch_4">
    <path d="M 643.924688 651.228 
L 643.924688 107.628 
" style="fill:none;stroke:#ffffff;stroke-linecap:square;stroke-linejoin:miter;stroke-width:2.5;"/>
   </g>
   <g id="patch_5">
    <path d="M 85.924688 651.228 
L 643.924688 651.228 
" style="fill:none;stroke:#ffffff;stroke-linecap:square;stroke-linejoin:miter;stroke-width:2.5;"/>
   </g>
   <g id="patch_6">
    <path d="M 85.924688 107.628 
L 643.924688 107.628 
" style="fill:none;stroke:#ffffff;stroke-linecap:square;stroke-linejoin:miter;stroke-width:2.5;"/>
   </g>
   <g id="text_14">
    <!-- Bangkok (159 data points), BS per Person as Features -->
    <defs>
     <path d="M 7.328125 0 
L 7.328125 71.578125 
L 34.1875 71.578125 
Q 42.390625 71.578125 47.34375 69.40625 
Q 52.296875 67.234375 55.09375 62.71875 
Q 57.90625 58.203125 57.90625 53.265625 
Q 57.90625 48.6875 55.421875 44.625 
Q 52.9375 40.578125 47.90625 38.09375 
Q 54.390625 36.1875 57.875 31.59375 
Q 61.375 27 61.375 20.75 
Q 61.375 15.71875 59.25 11.390625 
Q 57.125 7.078125 54 4.734375 
Q 50.875 2.390625 46.15625 1.1875 
Q 41.453125 0 34.625 0 
z
M 16.796875 41.5 
L 32.28125 41.5 
Q 38.578125 41.5 41.3125 42.328125 
Q 44.921875 43.40625 46.75 45.890625 
Q 48.578125 48.390625 48.578125 52.15625 
Q 48.578125 55.71875 46.875 58.421875 
Q 45.171875 61.140625 41.984375 62.140625 
Q 38.8125 63.140625 31.109375 63.140625 
L 16.796875 63.140625 
z
M 16.796875 8.453125 
L 34.625 8.453125 
Q 39.203125 8.453125 41.0625 8.796875 
Q 44.34375 9.375 46.53125 10.734375 
Q 48.734375 12.109375 50.140625 14.71875 
Q 51.5625 17.328125 51.5625 20.75 
Q 51.5625 24.75 49.515625 27.703125 
Q 47.46875 30.671875 43.828125 31.859375 
Q 40.1875 33.0625 33.34375 33.0625 
L 16.796875 33.0625 
z
" id="ArialMT-42"/>
     <path d="M 6.640625 0 
L 6.640625 71.578125 
L 15.4375 71.578125 
L 15.4375 30.765625 
L 36.234375 51.859375 
L 47.609375 51.859375 
L 27.78125 32.625 
L 49.609375 0 
L 38.765625 0 
L 21.625 26.515625 
L 15.4375 20.5625 
L 15.4375 0 
z
" id="ArialMT-6b"/>
     <path d="M 23.390625 -21.046875 
Q 16.109375 -11.859375 11.078125 0.4375 
Q 6.0625 12.75 6.0625 25.921875 
Q 6.0625 37.546875 9.8125 48.1875 
Q 14.203125 60.546875 23.390625 72.796875 
L 29.6875 72.796875 
Q 23.78125 62.640625 21.875 58.296875 
Q 18.890625 51.5625 17.1875 44.234375 
Q 15.09375 35.109375 15.09375 25.875 
Q 15.09375 2.390625 29.6875 -21.046875 
z
" id="ArialMT-28"/>
     <path d="M 5.46875 16.546875 
L 13.921875 17.328125 
Q 14.984375 11.375 18.015625 8.6875 
Q 21.046875 6 25.78125 6 
Q 29.828125 6 32.875 7.859375 
Q 35.9375 9.71875 37.890625 12.8125 
Q 39.84375 15.921875 41.15625 21.1875 
Q 42.484375 26.46875 42.484375 31.9375 
Q 42.484375 32.515625 42.4375 33.6875 
Q 39.796875 29.5 35.234375 26.875 
Q 30.671875 24.265625 25.34375 24.265625 
Q 16.453125 24.265625 10.296875 30.703125 
Q 4.15625 37.15625 4.15625 47.703125 
Q 4.15625 58.59375 10.578125 65.234375 
Q 17 71.875 26.65625 71.875 
Q 33.640625 71.875 39.421875 68.109375 
Q 45.21875 64.359375 48.21875 57.390625 
Q 51.21875 50.4375 51.21875 37.25 
Q 51.21875 23.53125 48.234375 15.40625 
Q 45.265625 7.28125 39.375 3.03125 
Q 33.5 -1.21875 25.59375 -1.21875 
Q 17.1875 -1.21875 11.859375 3.4375 
Q 6.546875 8.109375 5.46875 16.546875 
z
M 41.453125 48.140625 
Q 41.453125 55.71875 37.421875 60.15625 
Q 33.40625 64.59375 27.734375 64.59375 
Q 21.875 64.59375 17.53125 59.8125 
Q 13.1875 55.03125 13.1875 47.40625 
Q 13.1875 40.578125 17.3125 36.296875 
Q 21.4375 32.03125 27.484375 32.03125 
Q 33.59375 32.03125 37.515625 36.296875 
Q 41.453125 40.578125 41.453125 48.140625 
z
" id="ArialMT-39"/>
     <path d="M 12.359375 -21.046875 
L 6.0625 -21.046875 
Q 20.65625 2.390625 20.65625 25.875 
Q 20.65625 35.0625 18.5625 44.09375 
Q 16.890625 51.421875 13.921875 58.15625 
Q 12.015625 62.546875 6.0625 72.796875 
L 12.359375 72.796875 
Q 21.53125 60.546875 25.921875 48.1875 
Q 29.6875 37.546875 29.6875 25.921875 
Q 29.6875 12.75 24.625 0.4375 
Q 19.578125 -11.859375 12.359375 -21.046875 
z
" id="ArialMT-29"/>
     <path d="M 4.5 23 
L 13.421875 23.78125 
Q 14.0625 18.40625 16.375 14.96875 
Q 18.703125 11.53125 23.578125 9.40625 
Q 28.46875 7.28125 34.578125 7.28125 
Q 39.984375 7.28125 44.140625 8.890625 
Q 48.296875 10.5 50.3125 13.296875 
Q 52.34375 16.109375 52.34375 19.4375 
Q 52.34375 22.796875 50.390625 25.3125 
Q 48.4375 27.828125 43.953125 29.546875 
Q 41.0625 30.671875 31.203125 33.03125 
Q 21.34375 35.40625 17.390625 37.5 
Q 12.25 40.1875 9.734375 44.15625 
Q 7.234375 48.140625 7.234375 53.078125 
Q 7.234375 58.5 10.296875 63.203125 
Q 13.375 67.921875 19.28125 70.359375 
Q 25.203125 72.796875 32.421875 72.796875 
Q 40.375 72.796875 46.453125 70.234375 
Q 52.546875 67.671875 55.8125 62.6875 
Q 59.078125 57.71875 59.328125 51.421875 
L 50.25 50.734375 
Q 49.515625 57.515625 45.28125 60.984375 
Q 41.0625 64.453125 32.8125 64.453125 
Q 24.21875 64.453125 20.28125 61.296875 
Q 16.359375 58.15625 16.359375 53.71875 
Q 16.359375 49.859375 19.140625 47.359375 
Q 21.875 44.875 33.421875 42.265625 
Q 44.96875 39.65625 49.265625 37.703125 
Q 55.515625 34.8125 58.484375 30.390625 
Q 61.46875 25.984375 61.46875 20.21875 
Q 61.46875 14.5 58.203125 9.4375 
Q 54.9375 4.390625 48.796875 1.578125 
Q 42.671875 -1.21875 35.015625 -1.21875 
Q 25.296875 -1.21875 18.71875 1.609375 
Q 12.15625 4.4375 8.421875 10.125 
Q 4.6875 15.828125 4.5 23 
z
" id="ArialMT-53"/>
     <path d="M 8.203125 0 
L 8.203125 71.578125 
L 56.5 71.578125 
L 56.5 63.140625 
L 17.671875 63.140625 
L 17.671875 40.96875 
L 51.265625 40.96875 
L 51.265625 32.515625 
L 17.671875 32.515625 
L 17.671875 0 
z
" id="ArialMT-46"/>
    </defs>
    <g style="fill:#262626;" transform="translate(73.446563 24.9525)scale(0.24 -0.24)">
     <use xlink:href="#ArialMT-42"/>
     <use x="66.699219" xlink:href="#ArialMT-61"/>
     <use x="122.314453" xlink:href="#ArialMT-6e"/>
     <use x="177.929688" xlink:href="#ArialMT-67"/>
     <use x="233.544922" xlink:href="#ArialMT-6b"/>
     <use x="283.544922" xlink:href="#ArialMT-6f"/>
     <use x="339.160156" xlink:href="#ArialMT-6b"/>
     <use x="389.160156" xlink:href="#ArialMT-20"/>
     <use x="416.943359" xlink:href="#ArialMT-28"/>
     <use x="450.244141" xlink:href="#ArialMT-31"/>
     <use x="505.859375" xlink:href="#ArialMT-35"/>
     <use x="561.474609" xlink:href="#ArialMT-39"/>
     <use x="617.089844" xlink:href="#ArialMT-20"/>
     <use x="644.873047" xlink:href="#ArialMT-64"/>
     <use x="700.488281" xlink:href="#ArialMT-61"/>
     <use x="756.103516" xlink:href="#ArialMT-74"/>
     <use x="783.886719" xlink:href="#ArialMT-61"/>
     <use x="839.501953" xlink:href="#ArialMT-20"/>
     <use x="867.285156" xlink:href="#ArialMT-70"/>
     <use x="922.900391" xlink:href="#ArialMT-6f"/>
     <use x="978.515625" xlink:href="#ArialMT-69"/>
     <use x="1000.732422" xlink:href="#ArialMT-6e"/>
     <use x="1056.347656" xlink:href="#ArialMT-74"/>
     <use x="1084.130859" xlink:href="#ArialMT-73"/>
     <use x="1134.130859" xlink:href="#ArialMT-29"/>
     <use x="1167.431641" xlink:href="#ArialMT-2c"/>
     <use x="1195.214844" xlink:href="#ArialMT-20"/>
     <use x="1222.998047" xlink:href="#ArialMT-42"/>
     <use x="1289.697266" xlink:href="#ArialMT-53"/>
     <use x="1356.396484" xlink:href="#ArialMT-20"/>
     <use x="1384.179688" xlink:href="#ArialMT-70"/>
     <use x="1439.794922" xlink:href="#ArialMT-65"/>
     <use x="1495.410156" xlink:href="#ArialMT-72"/>
     <use x="1528.710938" xlink:href="#ArialMT-20"/>
     <use x="1556.494141" xlink:href="#ArialMT-50"/>
     <use x="1623.193359" xlink:href="#ArialMT-65"/>
     <use x="1678.808594" xlink:href="#ArialMT-72"/>
     <use x="1712.109375" xlink:href="#ArialMT-73"/>
     <use x="1762.109375" xlink:href="#ArialMT-6f"/>
     <use x="1817.724609" xlink:href="#ArialMT-6e"/>
     <use x="1873.339844" xlink:href="#ArialMT-20"/>
     <use x="1901.123047" xlink:href="#ArialMT-61"/>
     <use x="1956.738281" xlink:href="#ArialMT-73"/>
     <use x="2006.738281" xlink:href="#ArialMT-20"/>
     <use x="2034.521484" xlink:href="#ArialMT-46"/>
     <use x="2095.605469" xlink:href="#ArialMT-65"/>
     <use x="2151.220703" xlink:href="#ArialMT-61"/>
     <use x="2206.835938" xlink:href="#ArialMT-74"/>
     <use x="2234.619141" xlink:href="#ArialMT-75"/>
     <use x="2290.234375" xlink:href="#ArialMT-72"/>
     <use x="2323.535156" xlink:href="#ArialMT-65"/>
     <use x="2379.150391" xlink:href="#ArialMT-73"/>
    </g>
    <!-- R-squared: 0.1231 -->
    <defs>
     <path d="M 7.859375 0 
L 7.859375 71.578125 
L 39.59375 71.578125 
Q 49.171875 71.578125 54.140625 69.640625 
Q 59.125 67.71875 62.109375 62.828125 
Q 65.09375 57.953125 65.09375 52.046875 
Q 65.09375 44.4375 60.15625 39.203125 
Q 55.21875 33.984375 44.921875 32.5625 
Q 48.6875 30.765625 50.640625 29 
Q 54.78125 25.203125 58.5 19.484375 
L 70.953125 0 
L 59.03125 0 
L 49.5625 14.890625 
Q 45.40625 21.34375 42.71875 24.75 
Q 40.046875 28.171875 37.921875 29.53125 
Q 35.796875 30.90625 33.59375 31.453125 
Q 31.984375 31.78125 28.328125 31.78125 
L 17.328125 31.78125 
L 17.328125 0 
z
M 17.328125 39.984375 
L 37.703125 39.984375 
Q 44.1875 39.984375 47.84375 41.328125 
Q 51.515625 42.671875 53.421875 45.625 
Q 55.328125 48.578125 55.328125 52.046875 
Q 55.328125 57.125 51.640625 60.390625 
Q 47.953125 63.671875 39.984375 63.671875 
L 17.328125 63.671875 
z
" id="ArialMT-52"/>
     <path d="M 3.171875 21.484375 
L 3.171875 30.328125 
L 30.171875 30.328125 
L 30.171875 21.484375 
z
" id="ArialMT-2d"/>
     <path d="M 39.65625 -19.875 
L 39.65625 5.515625 
Q 37.59375 2.640625 33.90625 0.734375 
Q 30.21875 -1.171875 26.078125 -1.171875 
Q 16.84375 -1.171875 10.171875 6.203125 
Q 3.515625 13.578125 3.515625 26.421875 
Q 3.515625 34.234375 6.21875 40.421875 
Q 8.9375 46.625 14.078125 49.828125 
Q 19.234375 53.03125 25.390625 53.03125 
Q 35.015625 53.03125 40.53125 44.921875 
L 40.53125 51.859375 
L 48.4375 51.859375 
L 48.4375 -19.875 
z
M 12.546875 26.078125 
Q 12.546875 16.0625 16.75 11.0625 
Q 20.953125 6.0625 26.8125 6.0625 
Q 32.421875 6.0625 36.46875 10.8125 
Q 40.53125 15.578125 40.53125 25.296875 
Q 40.53125 35.640625 36.25 40.859375 
Q 31.984375 46.09375 26.21875 46.09375 
Q 20.515625 46.09375 16.53125 41.234375 
Q 12.546875 36.375 12.546875 26.078125 
z
" id="ArialMT-71"/>
     <path d="M 9.03125 41.84375 
L 9.03125 51.859375 
L 19.046875 51.859375 
L 19.046875 41.84375 
z
M 9.03125 0 
L 9.03125 10.015625 
L 19.046875 10.015625 
L 19.046875 0 
z
" id="ArialMT-3a"/>
     <path d="M 9.078125 0 
L 9.078125 10.015625 
L 19.09375 10.015625 
L 19.09375 0 
z
" id="ArialMT-2e"/>
     <path d="M 4.203125 18.890625 
L 12.984375 20.0625 
Q 14.5 12.59375 18.140625 9.296875 
Q 21.78125 6 27 6 
Q 33.203125 6 37.46875 10.296875 
Q 41.75 14.59375 41.75 20.953125 
Q 41.75 27 37.796875 30.921875 
Q 33.84375 34.859375 27.734375 34.859375 
Q 25.25 34.859375 21.53125 33.890625 
L 22.515625 41.609375 
Q 23.390625 41.5 23.921875 41.5 
Q 29.546875 41.5 34.03125 44.421875 
Q 38.53125 47.359375 38.53125 53.46875 
Q 38.53125 58.296875 35.25 61.46875 
Q 31.984375 64.65625 26.8125 64.65625 
Q 21.6875 64.65625 18.265625 61.421875 
Q 14.84375 58.203125 13.875 51.765625 
L 5.078125 53.328125 
Q 6.6875 62.15625 12.390625 67.015625 
Q 18.109375 71.875 26.609375 71.875 
Q 32.46875 71.875 37.390625 69.359375 
Q 42.328125 66.84375 44.9375 62.5 
Q 47.5625 58.15625 47.5625 53.265625 
Q 47.5625 48.640625 45.0625 44.828125 
Q 42.578125 41.015625 37.703125 38.765625 
Q 44.046875 37.3125 47.5625 32.6875 
Q 51.078125 28.078125 51.078125 21.140625 
Q 51.078125 11.765625 44.234375 5.25 
Q 37.40625 -1.265625 26.953125 -1.265625 
Q 17.53125 -1.265625 11.296875 4.34375 
Q 5.078125 9.96875 4.203125 18.890625 
z
" id="ArialMT-33"/>
    </defs>
    <g style="fill:#262626;" transform="translate(265.534688 50.70375)scale(0.24 -0.24)">
     <use xlink:href="#ArialMT-52"/>
     <use x="72.216797" xlink:href="#ArialMT-2d"/>
     <use x="105.517578" xlink:href="#ArialMT-73"/>
     <use x="155.517578" xlink:href="#ArialMT-71"/>
     <use x="211.132812" xlink:href="#ArialMT-75"/>
     <use x="266.748047" xlink:href="#ArialMT-61"/>
     <use x="322.363281" xlink:href="#ArialMT-72"/>
     <use x="355.664062" xlink:href="#ArialMT-65"/>
     <use x="411.279297" xlink:href="#ArialMT-64"/>
     <use x="466.894531" xlink:href="#ArialMT-3a"/>
     <use x="494.677734" xlink:href="#ArialMT-20"/>
     <use x="522.460938" xlink:href="#ArialMT-30"/>
     <use x="578.076172" xlink:href="#ArialMT-2e"/>
     <use x="605.859375" xlink:href="#ArialMT-31"/>
     <use x="661.474609" xlink:href="#ArialMT-32"/>
     <use x="717.089844" xlink:href="#ArialMT-33"/>
     <use x="772.705078" xlink:href="#ArialMT-31"/>
    </g>
    <!-- Pearson: 0.3508, p-value: 0.0 -->
    <defs>
     <path d="M 17.671875 38.8125 
Q 12.203125 40.828125 9.5625 44.53125 
Q 6.9375 48.25 6.9375 53.421875 
Q 6.9375 61.234375 12.546875 66.546875 
Q 18.171875 71.875 27.484375 71.875 
Q 36.859375 71.875 42.578125 66.421875 
Q 48.296875 60.984375 48.296875 53.171875 
Q 48.296875 48.1875 45.671875 44.5 
Q 43.0625 40.828125 37.75 38.8125 
Q 44.34375 36.671875 47.78125 31.875 
Q 51.21875 27.09375 51.21875 20.453125 
Q 51.21875 11.28125 44.71875 5.03125 
Q 38.234375 -1.21875 27.640625 -1.21875 
Q 17.046875 -1.21875 10.546875 5.046875 
Q 4.046875 11.328125 4.046875 20.703125 
Q 4.046875 27.6875 7.59375 32.390625 
Q 11.140625 37.109375 17.671875 38.8125 
z
M 15.921875 53.71875 
Q 15.921875 48.640625 19.1875 45.40625 
Q 22.46875 42.1875 27.6875 42.1875 
Q 32.765625 42.1875 36.015625 45.375 
Q 39.265625 48.578125 39.265625 53.21875 
Q 39.265625 58.0625 35.90625 61.359375 
Q 32.5625 64.65625 27.59375 64.65625 
Q 22.5625 64.65625 19.234375 61.421875 
Q 15.921875 58.203125 15.921875 53.71875 
z
M 13.09375 20.65625 
Q 13.09375 16.890625 14.875 13.375 
Q 16.65625 9.859375 20.171875 7.921875 
Q 23.6875 6 27.734375 6 
Q 34.03125 6 38.125 10.046875 
Q 42.234375 14.109375 42.234375 20.359375 
Q 42.234375 26.703125 38.015625 30.859375 
Q 33.796875 35.015625 27.4375 35.015625 
Q 21.234375 35.015625 17.15625 30.90625 
Q 13.09375 26.8125 13.09375 20.65625 
z
" id="ArialMT-38"/>
     <path d="M 21 0 
L 1.265625 51.859375 
L 10.546875 51.859375 
L 21.6875 20.796875 
Q 23.484375 15.765625 25 10.359375 
Q 26.171875 14.453125 28.265625 20.21875 
L 39.796875 51.859375 
L 48.828125 51.859375 
L 29.203125 0 
z
" id="ArialMT-76"/>
    </defs>
    <g style="fill:#262626;" transform="translate(207.495937 76.17375)scale(0.24 -0.24)">
     <use xlink:href="#ArialMT-50"/>
     <use x="66.699219" xlink:href="#ArialMT-65"/>
     <use x="122.314453" xlink:href="#ArialMT-61"/>
     <use x="177.929688" xlink:href="#ArialMT-72"/>
     <use x="211.230469" xlink:href="#ArialMT-73"/>
     <use x="261.230469" xlink:href="#ArialMT-6f"/>
     <use x="316.845703" xlink:href="#ArialMT-6e"/>
     <use x="372.460938" xlink:href="#ArialMT-3a"/>
     <use x="400.244141" xlink:href="#ArialMT-20"/>
     <use x="428.027344" xlink:href="#ArialMT-30"/>
     <use x="483.642578" xlink:href="#ArialMT-2e"/>
     <use x="511.425781" xlink:href="#ArialMT-33"/>
     <use x="567.041016" xlink:href="#ArialMT-35"/>
     <use x="622.65625" xlink:href="#ArialMT-30"/>
     <use x="678.271484" xlink:href="#ArialMT-38"/>
     <use x="733.886719" xlink:href="#ArialMT-2c"/>
     <use x="761.669922" xlink:href="#ArialMT-20"/>
     <use x="789.453125" xlink:href="#ArialMT-70"/>
     <use x="845.068359" xlink:href="#ArialMT-2d"/>
     <use x="878.369141" xlink:href="#ArialMT-76"/>
     <use x="928.369141" xlink:href="#ArialMT-61"/>
     <use x="983.984375" xlink:href="#ArialMT-6c"/>
     <use x="1006.201172" xlink:href="#ArialMT-75"/>
     <use x="1061.816406" xlink:href="#ArialMT-65"/>
     <use x="1117.431641" xlink:href="#ArialMT-3a"/>
     <use x="1145.214844" xlink:href="#ArialMT-20"/>
     <use x="1172.998047" xlink:href="#ArialMT-30"/>
     <use x="1228.613281" xlink:href="#ArialMT-2e"/>
     <use x="1256.396484" xlink:href="#ArialMT-30"/>
    </g>
    <!-- Spearman: 0.3387, p-value: 0.0 -->
    <defs>
     <path d="M 6.59375 0 
L 6.59375 51.859375 
L 14.453125 51.859375 
L 14.453125 44.578125 
Q 16.890625 48.390625 20.9375 50.703125 
Q 25 53.03125 30.171875 53.03125 
Q 35.9375 53.03125 39.625 50.640625 
Q 43.3125 48.25 44.828125 43.953125 
Q 50.984375 53.03125 60.84375 53.03125 
Q 68.5625 53.03125 72.703125 48.75 
Q 76.859375 44.484375 76.859375 35.59375 
L 76.859375 0 
L 68.109375 0 
L 68.109375 32.671875 
Q 68.109375 37.9375 67.25 40.25 
Q 66.40625 42.578125 64.15625 43.984375 
Q 61.921875 45.40625 58.890625 45.40625 
Q 53.421875 45.40625 49.796875 41.765625 
Q 46.1875 38.140625 46.1875 30.125 
L 46.1875 0 
L 37.40625 0 
L 37.40625 33.6875 
Q 37.40625 39.546875 35.25 42.46875 
Q 33.109375 45.40625 28.21875 45.40625 
Q 24.515625 45.40625 21.359375 43.453125 
Q 18.21875 41.5 16.796875 37.734375 
Q 15.375 33.984375 15.375 26.90625 
L 15.375 0 
z
" id="ArialMT-6d"/>
     <path d="M 4.734375 62.203125 
L 4.734375 70.65625 
L 51.078125 70.65625 
L 51.078125 63.8125 
Q 44.234375 56.546875 37.515625 44.484375 
Q 30.8125 32.421875 27.15625 19.671875 
Q 24.515625 10.6875 23.78125 0 
L 14.75 0 
Q 14.890625 8.453125 18.0625 20.40625 
Q 21.234375 32.375 27.171875 43.484375 
Q 33.109375 54.59375 39.796875 62.203125 
z
" id="ArialMT-37"/>
    </defs>
    <g style="fill:#262626;" transform="translate(196.827188 101.90925)scale(0.24 -0.24)">
     <use xlink:href="#ArialMT-53"/>
     <use x="66.699219" xlink:href="#ArialMT-70"/>
     <use x="122.314453" xlink:href="#ArialMT-65"/>
     <use x="177.929688" xlink:href="#ArialMT-61"/>
     <use x="233.544922" xlink:href="#ArialMT-72"/>
     <use x="266.845703" xlink:href="#ArialMT-6d"/>
     <use x="350.146484" xlink:href="#ArialMT-61"/>
     <use x="405.761719" xlink:href="#ArialMT-6e"/>
     <use x="461.376953" xlink:href="#ArialMT-3a"/>
     <use x="489.160156" xlink:href="#ArialMT-20"/>
     <use x="516.943359" xlink:href="#ArialMT-30"/>
     <use x="572.558594" xlink:href="#ArialMT-2e"/>
     <use x="600.341797" xlink:href="#ArialMT-33"/>
     <use x="655.957031" xlink:href="#ArialMT-33"/>
     <use x="711.572266" xlink:href="#ArialMT-38"/>
     <use x="767.1875" xlink:href="#ArialMT-37"/>
     <use x="822.802734" xlink:href="#ArialMT-2c"/>
     <use x="850.585938" xlink:href="#ArialMT-20"/>
     <use x="878.369141" xlink:href="#ArialMT-70"/>
     <use x="933.984375" xlink:href="#ArialMT-2d"/>
     <use x="967.285156" xlink:href="#ArialMT-76"/>
     <use x="1017.285156" xlink:href="#ArialMT-61"/>
     <use x="1072.900391" xlink:href="#ArialMT-6c"/>
     <use x="1095.117188" xlink:href="#ArialMT-75"/>
     <use x="1150.732422" xlink:href="#ArialMT-65"/>
     <use x="1206.347656" xlink:href="#ArialMT-3a"/>
     <use x="1234.130859" xlink:href="#ArialMT-20"/>
     <use x="1261.914062" xlink:href="#ArialMT-30"/>
     <use x="1317.529297" xlink:href="#ArialMT-2e"/>
     <use x="1345.3125" xlink:href="#ArialMT-30"/>
    </g>
   </g>
  </g>
 </g>
 <defs>
  <clipPath id="pab18a149b6">
   <rect height="543.6" width="558" x="85.924688" y="107.628"/>
  </clipPath>
 </defs>
</svg>
