<?xml version="1.0" encoding="utf-8" standalone="no"?>
<!DOCTYPE svg PUBLIC "-//W3C//DTD SVG 1.1//EN"
  "http://www.w3.org/Graphics/SVG/1.1/DTD/svg11.dtd">
<!-- Created with matplotlib (http://matplotlib.org/) -->
<svg height="720.570187pt" version="1.1" viewBox="0 0 672.930938 720.570187" width="672.930938pt" xmlns="http://www.w3.org/2000/svg" xmlns:xlink="http://www.w3.org/1999/xlink">
 <defs>
  <style type="text/css">
*{stroke-linecap:butt;stroke-linejoin:round;}
  </style>
 </defs>
 <g id="figure_1">
  <g id="patch_1">
   <path d="M 0 720.570187 
L 672.930938 720.570187 
L 672.930938 0 
L 0 0 
z
" style="fill:#ffffff;"/>
  </g>
  <g id="axes_1">
   <g id="patch_2">
    <path d="M 85.924688 651.228 
L 643.924688 651.228 
L 643.924688 107.628 
L 85.924688 107.628 
z
" style="fill:#eaeaf2;"/>
   </g>
   <g id="matplotlib.axis_1">
    <g id="xtick_1">
     <g id="line2d_1">
      <path clip-path="url(#p843867a60f)" d="M 103.294144 651.228 
L 103.294144 107.628 
" style="fill:none;stroke:#ffffff;stroke-linecap:round;stroke-width:2;"/>
     </g>
     <g id="text_1">
      <!-- 0 -->
      <defs>
       <path d="M 4.15625 35.296875 
Q 4.15625 48 6.765625 55.734375 
Q 9.375 63.484375 14.515625 67.671875 
Q 19.671875 71.875 27.484375 71.875 
Q 33.25 71.875 37.59375 69.546875 
Q 41.9375 67.234375 44.765625 62.859375 
Q 47.609375 58.5 49.21875 52.21875 
Q 50.828125 45.953125 50.828125 35.296875 
Q 50.828125 22.703125 48.234375 14.96875 
Q 45.65625 7.234375 40.5 3 
Q 35.359375 -1.21875 27.484375 -1.21875 
Q 17.140625 -1.21875 11.234375 6.203125 
Q 4.15625 15.140625 4.15625 35.296875 
z
M 13.1875 35.296875 
Q 13.1875 17.671875 17.3125 11.828125 
Q 21.4375 6 27.484375 6 
Q 33.546875 6 37.671875 11.859375 
Q 41.796875 17.71875 41.796875 35.296875 
Q 41.796875 52.984375 37.671875 58.78125 
Q 33.546875 64.59375 27.390625 64.59375 
Q 21.34375 64.59375 17.71875 59.46875 
Q 13.1875 52.9375 13.1875 35.296875 
z
" id="ArialMT-30"/>
      </defs>
      <g style="fill:#262626;" transform="translate(97.177112 682.475187)scale(0.22 -0.22)">
       <use xlink:href="#ArialMT-30"/>
      </g>
     </g>
    </g>
    <g id="xtick_2">
     <g id="line2d_2">
      <path clip-path="url(#p843867a60f)" d="M 190.926212 651.228 
L 190.926212 107.628 
" style="fill:none;stroke:#ffffff;stroke-linecap:round;stroke-width:2;"/>
     </g>
     <g id="text_2">
      <!-- 20 -->
      <defs>
       <path d="M 50.34375 8.453125 
L 50.34375 0 
L 3.03125 0 
Q 2.9375 3.171875 4.046875 6.109375 
Q 5.859375 10.9375 9.828125 15.625 
Q 13.8125 20.3125 21.34375 26.46875 
Q 33.015625 36.03125 37.109375 41.625 
Q 41.21875 47.21875 41.21875 52.203125 
Q 41.21875 57.421875 37.46875 61 
Q 33.734375 64.59375 27.734375 64.59375 
Q 21.390625 64.59375 17.578125 60.78125 
Q 13.765625 56.984375 13.71875 50.25 
L 4.6875 51.171875 
Q 5.609375 61.28125 11.65625 66.578125 
Q 17.71875 71.875 27.9375 71.875 
Q 38.234375 71.875 44.234375 66.15625 
Q 50.25 60.453125 50.25 52 
Q 50.25 47.703125 48.484375 43.546875 
Q 46.734375 39.40625 42.65625 34.8125 
Q 38.578125 30.21875 29.109375 22.21875 
Q 21.1875 15.578125 18.9375 13.203125 
Q 16.703125 10.84375 15.234375 8.453125 
z
" id="ArialMT-32"/>
      </defs>
      <g style="fill:#262626;" transform="translate(178.69215 682.475187)scale(0.22 -0.22)">
       <use xlink:href="#ArialMT-32"/>
       <use x="55.615234" xlink:href="#ArialMT-30"/>
      </g>
     </g>
    </g>
    <g id="xtick_3">
     <g id="line2d_3">
      <path clip-path="url(#p843867a60f)" d="M 278.558281 651.228 
L 278.558281 107.628 
" style="fill:none;stroke:#ffffff;stroke-linecap:round;stroke-width:2;"/>
     </g>
     <g id="text_3">
      <!-- 40 -->
      <defs>
       <path d="M 32.328125 0 
L 32.328125 17.140625 
L 1.265625 17.140625 
L 1.265625 25.203125 
L 33.9375 71.578125 
L 41.109375 71.578125 
L 41.109375 25.203125 
L 50.78125 25.203125 
L 50.78125 17.140625 
L 41.109375 17.140625 
L 41.109375 0 
z
M 32.328125 25.203125 
L 32.328125 57.46875 
L 9.90625 25.203125 
z
" id="ArialMT-34"/>
      </defs>
      <g style="fill:#262626;" transform="translate(266.324218 682.475187)scale(0.22 -0.22)">
       <use xlink:href="#ArialMT-34"/>
       <use x="55.615234" xlink:href="#ArialMT-30"/>
      </g>
     </g>
    </g>
    <g id="xtick_4">
     <g id="line2d_4">
      <path clip-path="url(#p843867a60f)" d="M 366.19035 651.228 
L 366.19035 107.628 
" style="fill:none;stroke:#ffffff;stroke-linecap:round;stroke-width:2;"/>
     </g>
     <g id="text_4">
      <!-- 60 -->
      <defs>
       <path d="M 49.75 54.046875 
L 41.015625 53.375 
Q 39.84375 58.546875 37.703125 60.890625 
Q 34.125 64.65625 28.90625 64.65625 
Q 24.703125 64.65625 21.53125 62.3125 
Q 17.390625 59.28125 14.984375 53.46875 
Q 12.59375 47.65625 12.5 36.921875 
Q 15.671875 41.75 20.265625 44.09375 
Q 24.859375 46.4375 29.890625 46.4375 
Q 38.671875 46.4375 44.84375 39.96875 
Q 51.03125 33.5 51.03125 23.25 
Q 51.03125 16.5 48.125 10.71875 
Q 45.21875 4.9375 40.140625 1.859375 
Q 35.0625 -1.21875 28.609375 -1.21875 
Q 17.625 -1.21875 10.6875 6.859375 
Q 3.765625 14.9375 3.765625 33.5 
Q 3.765625 54.25 11.421875 63.671875 
Q 18.109375 71.875 29.4375 71.875 
Q 37.890625 71.875 43.28125 67.140625 
Q 48.6875 62.40625 49.75 54.046875 
z
M 13.875 23.1875 
Q 13.875 18.65625 15.796875 14.5 
Q 17.71875 10.359375 21.1875 8.171875 
Q 24.65625 6 28.46875 6 
Q 34.03125 6 38.03125 10.484375 
Q 42.046875 14.984375 42.046875 22.703125 
Q 42.046875 30.125 38.078125 34.390625 
Q 34.125 38.671875 28.125 38.671875 
Q 22.171875 38.671875 18.015625 34.390625 
Q 13.875 30.125 13.875 23.1875 
z
" id="ArialMT-36"/>
      </defs>
      <g style="fill:#262626;" transform="translate(353.956287 682.475187)scale(0.22 -0.22)">
       <use xlink:href="#ArialMT-36"/>
       <use x="55.615234" xlink:href="#ArialMT-30"/>
      </g>
     </g>
    </g>
    <g id="xtick_5">
     <g id="line2d_5">
      <path clip-path="url(#p843867a60f)" d="M 453.822418 651.228 
L 453.822418 107.628 
" style="fill:none;stroke:#ffffff;stroke-linecap:round;stroke-width:2;"/>
     </g>
     <g id="text_5">
      <!-- 80 -->
      <defs>
       <path d="M 17.671875 38.8125 
Q 12.203125 40.828125 9.5625 44.53125 
Q 6.9375 48.25 6.9375 53.421875 
Q 6.9375 61.234375 12.546875 66.546875 
Q 18.171875 71.875 27.484375 71.875 
Q 36.859375 71.875 42.578125 66.421875 
Q 48.296875 60.984375 48.296875 53.171875 
Q 48.296875 48.1875 45.671875 44.5 
Q 43.0625 40.828125 37.75 38.8125 
Q 44.34375 36.671875 47.78125 31.875 
Q 51.21875 27.09375 51.21875 20.453125 
Q 51.21875 11.28125 44.71875 5.03125 
Q 38.234375 -1.21875 27.640625 -1.21875 
Q 17.046875 -1.21875 10.546875 5.046875 
Q 4.046875 11.328125 4.046875 20.703125 
Q 4.046875 27.6875 7.59375 32.390625 
Q 11.140625 37.109375 17.671875 38.8125 
z
M 15.921875 53.71875 
Q 15.921875 48.640625 19.1875 45.40625 
Q 22.46875 42.1875 27.6875 42.1875 
Q 32.765625 42.1875 36.015625 45.375 
Q 39.265625 48.578125 39.265625 53.21875 
Q 39.265625 58.0625 35.90625 61.359375 
Q 32.5625 64.65625 27.59375 64.65625 
Q 22.5625 64.65625 19.234375 61.421875 
Q 15.921875 58.203125 15.921875 53.71875 
z
M 13.09375 20.65625 
Q 13.09375 16.890625 14.875 13.375 
Q 16.65625 9.859375 20.171875 7.921875 
Q 23.6875 6 27.734375 6 
Q 34.03125 6 38.125 10.046875 
Q 42.234375 14.109375 42.234375 20.359375 
Q 42.234375 26.703125 38.015625 30.859375 
Q 33.796875 35.015625 27.4375 35.015625 
Q 21.234375 35.015625 17.15625 30.90625 
Q 13.09375 26.8125 13.09375 20.65625 
z
" id="ArialMT-38"/>
      </defs>
      <g style="fill:#262626;" transform="translate(441.588356 682.475187)scale(0.22 -0.22)">
       <use xlink:href="#ArialMT-38"/>
       <use x="55.615234" xlink:href="#ArialMT-30"/>
      </g>
     </g>
    </g>
    <g id="xtick_6">
     <g id="line2d_6">
      <path clip-path="url(#p843867a60f)" d="M 541.454487 651.228 
L 541.454487 107.628 
" style="fill:none;stroke:#ffffff;stroke-linecap:round;stroke-width:2;"/>
     </g>
     <g id="text_6">
      <!-- 100 -->
      <defs>
       <path d="M 37.25 0 
L 28.46875 0 
L 28.46875 56 
Q 25.296875 52.984375 20.140625 49.953125 
Q 14.984375 46.921875 10.890625 45.40625 
L 10.890625 53.90625 
Q 18.265625 57.375 23.78125 62.296875 
Q 29.296875 67.234375 31.59375 71.875 
L 37.25 71.875 
z
" id="ArialMT-31"/>
      </defs>
      <g style="fill:#262626;" transform="translate(523.103393 682.475187)scale(0.22 -0.22)">
       <use xlink:href="#ArialMT-31"/>
       <use x="55.615234" xlink:href="#ArialMT-30"/>
       <use x="111.230469" xlink:href="#ArialMT-30"/>
      </g>
     </g>
    </g>
    <g id="xtick_7">
     <g id="line2d_7">
      <path clip-path="url(#p843867a60f)" d="M 629.086555 651.228 
L 629.086555 107.628 
" style="fill:none;stroke:#ffffff;stroke-linecap:round;stroke-width:2;"/>
     </g>
     <g id="text_7">
      <!-- 120 -->
      <g style="fill:#262626;" transform="translate(610.735462 682.475187)scale(0.22 -0.22)">
       <use xlink:href="#ArialMT-31"/>
       <use x="55.615234" xlink:href="#ArialMT-32"/>
       <use x="111.230469" xlink:href="#ArialMT-30"/>
      </g>
     </g>
    </g>
    <g id="text_8">
     <!-- Dengue Cases per 10,000 People -->
     <defs>
      <path d="M 7.71875 0 
L 7.71875 71.578125 
L 32.375 71.578125 
Q 40.71875 71.578125 45.125 70.5625 
Q 51.265625 69.140625 55.609375 65.4375 
Q 61.28125 60.640625 64.078125 53.1875 
Q 66.890625 45.75 66.890625 36.1875 
Q 66.890625 28.03125 64.984375 21.734375 
Q 63.09375 15.4375 60.109375 11.296875 
Q 57.125 7.171875 53.578125 4.796875 
Q 50.046875 2.4375 45.046875 1.21875 
Q 40.046875 0 33.546875 0 
z
M 17.1875 8.453125 
L 32.46875 8.453125 
Q 39.546875 8.453125 43.578125 9.765625 
Q 47.609375 11.078125 50 13.484375 
Q 53.375 16.84375 55.25 22.53125 
Q 57.125 28.21875 57.125 36.328125 
Q 57.125 47.5625 53.4375 53.59375 
Q 49.75 59.625 44.484375 61.671875 
Q 40.671875 63.140625 32.234375 63.140625 
L 17.1875 63.140625 
z
" id="ArialMT-44"/>
      <path d="M 42.09375 16.703125 
L 51.171875 15.578125 
Q 49.03125 7.625 43.21875 3.21875 
Q 37.40625 -1.171875 28.375 -1.171875 
Q 17 -1.171875 10.328125 5.828125 
Q 3.65625 12.84375 3.65625 25.484375 
Q 3.65625 38.578125 10.390625 45.796875 
Q 17.140625 53.03125 27.875 53.03125 
Q 38.28125 53.03125 44.875 45.953125 
Q 51.46875 38.875 51.46875 26.03125 
Q 51.46875 25.25 51.421875 23.6875 
L 12.75 23.6875 
Q 13.234375 15.140625 17.578125 10.59375 
Q 21.921875 6.0625 28.421875 6.0625 
Q 33.25 6.0625 36.671875 8.59375 
Q 40.09375 11.140625 42.09375 16.703125 
z
M 13.234375 30.90625 
L 42.1875 30.90625 
Q 41.609375 37.453125 38.875 40.71875 
Q 34.671875 45.796875 27.984375 45.796875 
Q 21.921875 45.796875 17.796875 41.75 
Q 13.671875 37.703125 13.234375 30.90625 
z
" id="ArialMT-65"/>
      <path d="M 6.59375 0 
L 6.59375 51.859375 
L 14.5 51.859375 
L 14.5 44.484375 
Q 20.21875 53.03125 31 53.03125 
Q 35.6875 53.03125 39.625 51.34375 
Q 43.5625 49.65625 45.515625 46.921875 
Q 47.46875 44.1875 48.25 40.4375 
Q 48.734375 37.984375 48.734375 31.890625 
L 48.734375 0 
L 39.9375 0 
L 39.9375 31.546875 
Q 39.9375 36.921875 38.90625 39.578125 
Q 37.890625 42.234375 35.28125 43.8125 
Q 32.671875 45.40625 29.15625 45.40625 
Q 23.53125 45.40625 19.453125 41.84375 
Q 15.375 38.28125 15.375 28.328125 
L 15.375 0 
z
" id="ArialMT-6e"/>
      <path d="M 4.984375 -4.296875 
L 13.53125 -5.5625 
Q 14.0625 -9.515625 16.5 -11.328125 
Q 19.78125 -13.765625 25.4375 -13.765625 
Q 31.546875 -13.765625 34.859375 -11.328125 
Q 38.1875 -8.890625 39.359375 -4.5 
Q 40.046875 -1.8125 39.984375 6.78125 
Q 34.234375 0 25.640625 0 
Q 14.9375 0 9.078125 7.71875 
Q 3.21875 15.4375 3.21875 26.21875 
Q 3.21875 33.640625 5.90625 39.90625 
Q 8.59375 46.1875 13.6875 49.609375 
Q 18.796875 53.03125 25.6875 53.03125 
Q 34.859375 53.03125 40.828125 45.609375 
L 40.828125 51.859375 
L 48.921875 51.859375 
L 48.921875 7.03125 
Q 48.921875 -5.078125 46.453125 -10.125 
Q 44 -15.1875 38.640625 -18.109375 
Q 33.296875 -21.046875 25.484375 -21.046875 
Q 16.21875 -21.046875 10.5 -16.875 
Q 4.78125 -12.703125 4.984375 -4.296875 
z
M 12.25 26.859375 
Q 12.25 16.65625 16.296875 11.96875 
Q 20.359375 7.28125 26.46875 7.28125 
Q 32.515625 7.28125 36.609375 11.9375 
Q 40.71875 16.609375 40.71875 26.5625 
Q 40.71875 36.078125 36.5 40.90625 
Q 32.28125 45.75 26.3125 45.75 
Q 20.453125 45.75 16.34375 40.984375 
Q 12.25 36.234375 12.25 26.859375 
z
" id="ArialMT-67"/>
      <path d="M 40.578125 0 
L 40.578125 7.625 
Q 34.515625 -1.171875 24.125 -1.171875 
Q 19.53125 -1.171875 15.546875 0.578125 
Q 11.578125 2.34375 9.640625 5 
Q 7.71875 7.671875 6.9375 11.53125 
Q 6.390625 14.109375 6.390625 19.734375 
L 6.390625 51.859375 
L 15.1875 51.859375 
L 15.1875 23.09375 
Q 15.1875 16.21875 15.71875 13.8125 
Q 16.546875 10.359375 19.234375 8.375 
Q 21.921875 6.390625 25.875 6.390625 
Q 29.828125 6.390625 33.296875 8.421875 
Q 36.765625 10.453125 38.203125 13.9375 
Q 39.65625 17.4375 39.65625 24.078125 
L 39.65625 51.859375 
L 48.4375 51.859375 
L 48.4375 0 
z
" id="ArialMT-75"/>
      <path id="ArialMT-20"/>
      <path d="M 58.796875 25.09375 
L 68.265625 22.703125 
Q 65.28125 11.03125 57.546875 4.90625 
Q 49.8125 -1.21875 38.625 -1.21875 
Q 27.046875 -1.21875 19.796875 3.484375 
Q 12.546875 8.203125 8.765625 17.140625 
Q 4.984375 26.078125 4.984375 36.328125 
Q 4.984375 47.515625 9.25 55.828125 
Q 13.53125 64.15625 21.40625 68.46875 
Q 29.296875 72.796875 38.765625 72.796875 
Q 49.515625 72.796875 56.828125 67.328125 
Q 64.15625 61.859375 67.046875 51.953125 
L 57.71875 49.75 
Q 55.21875 57.5625 50.484375 61.125 
Q 45.75 64.703125 38.578125 64.703125 
Q 30.328125 64.703125 24.78125 60.734375 
Q 19.234375 56.78125 16.984375 50.109375 
Q 14.75 43.453125 14.75 36.375 
Q 14.75 27.25 17.40625 20.4375 
Q 20.0625 13.625 25.671875 10.25 
Q 31.296875 6.890625 37.84375 6.890625 
Q 45.796875 6.890625 51.3125 11.46875 
Q 56.84375 16.0625 58.796875 25.09375 
z
" id="ArialMT-43"/>
      <path d="M 40.4375 6.390625 
Q 35.546875 2.25 31.03125 0.53125 
Q 26.515625 -1.171875 21.34375 -1.171875 
Q 12.796875 -1.171875 8.203125 3 
Q 3.609375 7.171875 3.609375 13.671875 
Q 3.609375 17.484375 5.34375 20.625 
Q 7.078125 23.78125 9.890625 25.6875 
Q 12.703125 27.59375 16.21875 28.5625 
Q 18.796875 29.25 24.03125 29.890625 
Q 34.671875 31.15625 39.703125 32.90625 
Q 39.75 34.71875 39.75 35.203125 
Q 39.75 40.578125 37.25 42.78125 
Q 33.890625 45.75 27.25 45.75 
Q 21.046875 45.75 18.09375 43.578125 
Q 15.140625 41.40625 13.71875 35.890625 
L 5.125 37.0625 
Q 6.296875 42.578125 8.984375 45.96875 
Q 11.671875 49.359375 16.75 51.1875 
Q 21.828125 53.03125 28.515625 53.03125 
Q 35.15625 53.03125 39.296875 51.46875 
Q 43.453125 49.90625 45.40625 47.53125 
Q 47.359375 45.171875 48.140625 41.546875 
Q 48.578125 39.3125 48.578125 33.453125 
L 48.578125 21.734375 
Q 48.578125 9.46875 49.140625 6.21875 
Q 49.703125 2.984375 51.375 0 
L 42.1875 0 
Q 40.828125 2.734375 40.4375 6.390625 
z
M 39.703125 26.03125 
Q 34.90625 24.078125 25.34375 22.703125 
Q 19.921875 21.921875 17.671875 20.9375 
Q 15.4375 19.96875 14.203125 18.09375 
Q 12.984375 16.21875 12.984375 13.921875 
Q 12.984375 10.40625 15.640625 8.0625 
Q 18.3125 5.71875 23.4375 5.71875 
Q 28.515625 5.71875 32.46875 7.9375 
Q 36.421875 10.15625 38.28125 14.015625 
Q 39.703125 17 39.703125 22.796875 
z
" id="ArialMT-61"/>
      <path d="M 3.078125 15.484375 
L 11.765625 16.84375 
Q 12.5 11.625 15.84375 8.84375 
Q 19.1875 6.0625 25.203125 6.0625 
Q 31.25 6.0625 34.171875 8.515625 
Q 37.109375 10.984375 37.109375 14.3125 
Q 37.109375 17.28125 34.515625 19 
Q 32.71875 20.171875 25.53125 21.96875 
Q 15.875 24.421875 12.140625 26.203125 
Q 8.40625 27.984375 6.46875 31.125 
Q 4.546875 34.28125 4.546875 38.09375 
Q 4.546875 41.546875 6.125 44.5 
Q 7.71875 47.46875 10.453125 49.421875 
Q 12.5 50.921875 16.03125 51.96875 
Q 19.578125 53.03125 23.640625 53.03125 
Q 29.734375 53.03125 34.34375 51.265625 
Q 38.96875 49.515625 41.15625 46.5 
Q 43.359375 43.5 44.1875 38.484375 
L 35.59375 37.3125 
Q 35.015625 41.3125 32.203125 43.546875 
Q 29.390625 45.796875 24.265625 45.796875 
Q 18.21875 45.796875 15.625 43.796875 
Q 13.03125 41.796875 13.03125 39.109375 
Q 13.03125 37.40625 14.109375 36.03125 
Q 15.1875 34.625 17.484375 33.6875 
Q 18.796875 33.203125 25.25 31.453125 
Q 34.578125 28.953125 38.25 27.359375 
Q 41.9375 25.78125 44.03125 22.75 
Q 46.140625 19.734375 46.140625 15.234375 
Q 46.140625 10.84375 43.578125 6.953125 
Q 41.015625 3.078125 36.171875 0.953125 
Q 31.34375 -1.171875 25.25 -1.171875 
Q 15.140625 -1.171875 9.84375 3.03125 
Q 4.546875 7.234375 3.078125 15.484375 
z
" id="ArialMT-73"/>
      <path d="M 6.59375 -19.875 
L 6.59375 51.859375 
L 14.59375 51.859375 
L 14.59375 45.125 
Q 17.4375 49.078125 21 51.046875 
Q 24.5625 53.03125 29.640625 53.03125 
Q 36.28125 53.03125 41.359375 49.609375 
Q 46.4375 46.1875 49.015625 39.953125 
Q 51.609375 33.734375 51.609375 26.3125 
Q 51.609375 18.359375 48.75 11.984375 
Q 45.90625 5.609375 40.453125 2.21875 
Q 35.015625 -1.171875 29 -1.171875 
Q 24.609375 -1.171875 21.109375 0.6875 
Q 17.625 2.546875 15.375 5.375 
L 15.375 -19.875 
z
M 14.546875 25.640625 
Q 14.546875 15.625 18.59375 10.84375 
Q 22.65625 6.0625 28.421875 6.0625 
Q 34.28125 6.0625 38.453125 11.015625 
Q 42.625 15.96875 42.625 26.375 
Q 42.625 36.28125 38.546875 41.203125 
Q 34.46875 46.140625 28.8125 46.140625 
Q 23.1875 46.140625 18.859375 40.890625 
Q 14.546875 35.640625 14.546875 25.640625 
z
" id="ArialMT-70"/>
      <path d="M 6.5 0 
L 6.5 51.859375 
L 14.40625 51.859375 
L 14.40625 44 
Q 17.4375 49.515625 20 51.265625 
Q 22.5625 53.03125 25.640625 53.03125 
Q 30.078125 53.03125 34.671875 50.203125 
L 31.640625 42.046875 
Q 28.421875 43.953125 25.203125 43.953125 
Q 22.3125 43.953125 20.015625 42.21875 
Q 17.71875 40.484375 16.75 37.40625 
Q 15.28125 32.71875 15.28125 27.15625 
L 15.28125 0 
z
" id="ArialMT-72"/>
      <path d="M 8.890625 0 
L 8.890625 10.015625 
L 18.890625 10.015625 
L 18.890625 0 
Q 18.890625 -5.515625 16.9375 -8.90625 
Q 14.984375 -12.3125 10.75 -14.15625 
L 8.296875 -10.40625 
Q 11.078125 -9.1875 12.390625 -6.8125 
Q 13.71875 -4.4375 13.875 0 
z
" id="ArialMT-2c"/>
      <path d="M 7.71875 0 
L 7.71875 71.578125 
L 34.71875 71.578125 
Q 41.84375 71.578125 45.609375 70.90625 
Q 50.875 70.015625 54.4375 67.546875 
Q 58.015625 65.09375 60.1875 60.640625 
Q 62.359375 56.203125 62.359375 50.875 
Q 62.359375 41.75 56.546875 35.421875 
Q 50.734375 29.109375 35.546875 29.109375 
L 17.1875 29.109375 
L 17.1875 0 
z
M 17.1875 37.546875 
L 35.6875 37.546875 
Q 44.875 37.546875 48.734375 40.96875 
Q 52.59375 44.390625 52.59375 50.59375 
Q 52.59375 55.078125 50.3125 58.265625 
Q 48.046875 61.46875 44.34375 62.5 
Q 41.9375 63.140625 35.5 63.140625 
L 17.1875 63.140625 
z
" id="ArialMT-50"/>
      <path d="M 3.328125 25.921875 
Q 3.328125 40.328125 11.328125 47.265625 
Q 18.015625 53.03125 27.640625 53.03125 
Q 38.328125 53.03125 45.109375 46.015625 
Q 51.90625 39.015625 51.90625 26.65625 
Q 51.90625 16.65625 48.90625 10.90625 
Q 45.90625 5.171875 40.15625 2 
Q 34.421875 -1.171875 27.640625 -1.171875 
Q 16.75 -1.171875 10.03125 5.8125 
Q 3.328125 12.796875 3.328125 25.921875 
z
M 12.359375 25.921875 
Q 12.359375 15.96875 16.703125 11.015625 
Q 21.046875 6.0625 27.640625 6.0625 
Q 34.1875 6.0625 38.53125 11.03125 
Q 42.875 16.015625 42.875 26.21875 
Q 42.875 35.84375 38.5 40.796875 
Q 34.125 45.75 27.640625 45.75 
Q 21.046875 45.75 16.703125 40.8125 
Q 12.359375 35.890625 12.359375 25.921875 
z
" id="ArialMT-6f"/>
      <path d="M 6.390625 0 
L 6.390625 71.578125 
L 15.1875 71.578125 
L 15.1875 0 
z
" id="ArialMT-6c"/>
     </defs>
     <g style="fill:#262626;" transform="translate(184.140938 708.318937)scale(0.24 -0.24)">
      <use xlink:href="#ArialMT-44"/>
      <use x="72.216797" xlink:href="#ArialMT-65"/>
      <use x="127.832031" xlink:href="#ArialMT-6e"/>
      <use x="183.447266" xlink:href="#ArialMT-67"/>
      <use x="239.0625" xlink:href="#ArialMT-75"/>
      <use x="294.677734" xlink:href="#ArialMT-65"/>
      <use x="350.292969" xlink:href="#ArialMT-20"/>
      <use x="378.076172" xlink:href="#ArialMT-43"/>
      <use x="450.292969" xlink:href="#ArialMT-61"/>
      <use x="505.908203" xlink:href="#ArialMT-73"/>
      <use x="555.908203" xlink:href="#ArialMT-65"/>
      <use x="611.523438" xlink:href="#ArialMT-73"/>
      <use x="661.523438" xlink:href="#ArialMT-20"/>
      <use x="689.306641" xlink:href="#ArialMT-70"/>
      <use x="744.921875" xlink:href="#ArialMT-65"/>
      <use x="800.537109" xlink:href="#ArialMT-72"/>
      <use x="833.837891" xlink:href="#ArialMT-20"/>
      <use x="861.621094" xlink:href="#ArialMT-31"/>
      <use x="917.236328" xlink:href="#ArialMT-30"/>
      <use x="972.851562" xlink:href="#ArialMT-2c"/>
      <use x="1000.634766" xlink:href="#ArialMT-30"/>
      <use x="1056.25" xlink:href="#ArialMT-30"/>
      <use x="1111.865234" xlink:href="#ArialMT-30"/>
      <use x="1167.480469" xlink:href="#ArialMT-20"/>
      <use x="1195.263672" xlink:href="#ArialMT-50"/>
      <use x="1261.962891" xlink:href="#ArialMT-65"/>
      <use x="1317.578125" xlink:href="#ArialMT-6f"/>
      <use x="1373.193359" xlink:href="#ArialMT-70"/>
      <use x="1428.808594" xlink:href="#ArialMT-6c"/>
      <use x="1451.025391" xlink:href="#ArialMT-65"/>
     </g>
    </g>
   </g>
   <g id="matplotlib.axis_2">
    <g id="ytick_1">
     <g id="line2d_8">
      <path clip-path="url(#p843867a60f)" d="M 85.924688 566.080925 
L 643.924688 566.080925 
" style="fill:none;stroke:#ffffff;stroke-linecap:round;stroke-width:2;"/>
     </g>
     <g id="text_9">
      <!-- 20 -->
      <g style="fill:#262626;" transform="translate(45.956563 573.954519)scale(0.22 -0.22)">
       <use xlink:href="#ArialMT-32"/>
       <use x="55.615234" xlink:href="#ArialMT-30"/>
      </g>
     </g>
    </g>
    <g id="ytick_2">
     <g id="line2d_9">
      <path clip-path="url(#p843867a60f)" d="M 85.924688 472.075607 
L 643.924688 472.075607 
" style="fill:none;stroke:#ffffff;stroke-linecap:round;stroke-width:2;"/>
     </g>
     <g id="text_10">
      <!-- 40 -->
      <g style="fill:#262626;" transform="translate(45.956563 479.949201)scale(0.22 -0.22)">
       <use xlink:href="#ArialMT-34"/>
       <use x="55.615234" xlink:href="#ArialMT-30"/>
      </g>
     </g>
    </g>
    <g id="ytick_3">
     <g id="line2d_10">
      <path clip-path="url(#p843867a60f)" d="M 85.924688 378.07029 
L 643.924688 378.07029 
" style="fill:none;stroke:#ffffff;stroke-linecap:round;stroke-width:2;"/>
     </g>
     <g id="text_11">
      <!-- 60 -->
      <g style="fill:#262626;" transform="translate(45.956563 385.943883)scale(0.22 -0.22)">
       <use xlink:href="#ArialMT-36"/>
       <use x="55.615234" xlink:href="#ArialMT-30"/>
      </g>
     </g>
    </g>
    <g id="ytick_4">
     <g id="line2d_11">
      <path clip-path="url(#p843867a60f)" d="M 85.924688 284.064972 
L 643.924688 284.064972 
" style="fill:none;stroke:#ffffff;stroke-linecap:round;stroke-width:2;"/>
     </g>
     <g id="text_12">
      <!-- 80 -->
      <g style="fill:#262626;" transform="translate(45.956563 291.938566)scale(0.22 -0.22)">
       <use xlink:href="#ArialMT-38"/>
       <use x="55.615234" xlink:href="#ArialMT-30"/>
      </g>
     </g>
    </g>
    <g id="ytick_5">
     <g id="line2d_12">
      <path clip-path="url(#p843867a60f)" d="M 85.924688 190.059654 
L 643.924688 190.059654 
" style="fill:none;stroke:#ffffff;stroke-linecap:round;stroke-width:2;"/>
     </g>
     <g id="text_13">
      <!-- 100 -->
      <g style="fill:#262626;" transform="translate(33.7225 197.933248)scale(0.22 -0.22)">
       <use xlink:href="#ArialMT-31"/>
       <use x="55.615234" xlink:href="#ArialMT-30"/>
       <use x="111.230469" xlink:href="#ArialMT-30"/>
      </g>
     </g>
    </g>
    <g id="text_14">
     <!-- Predicted Dengue Cases -->
     <defs>
      <path d="M 40.234375 0 
L 40.234375 6.546875 
Q 35.296875 -1.171875 25.734375 -1.171875 
Q 19.53125 -1.171875 14.328125 2.25 
Q 9.125 5.671875 6.265625 11.796875 
Q 3.421875 17.921875 3.421875 25.875 
Q 3.421875 33.640625 6 39.96875 
Q 8.59375 46.296875 13.765625 49.65625 
Q 18.953125 53.03125 25.34375 53.03125 
Q 30.03125 53.03125 33.6875 51.046875 
Q 37.359375 49.078125 39.65625 45.90625 
L 39.65625 71.578125 
L 48.390625 71.578125 
L 48.390625 0 
z
M 12.453125 25.875 
Q 12.453125 15.921875 16.640625 10.984375 
Q 20.84375 6.0625 26.5625 6.0625 
Q 32.328125 6.0625 36.34375 10.765625 
Q 40.375 15.484375 40.375 25.140625 
Q 40.375 35.796875 36.265625 40.765625 
Q 32.171875 45.75 26.171875 45.75 
Q 20.3125 45.75 16.375 40.96875 
Q 12.453125 36.1875 12.453125 25.875 
z
" id="ArialMT-64"/>
      <path d="M 6.640625 61.46875 
L 6.640625 71.578125 
L 15.4375 71.578125 
L 15.4375 61.46875 
z
M 6.640625 0 
L 6.640625 51.859375 
L 15.4375 51.859375 
L 15.4375 0 
z
" id="ArialMT-69"/>
      <path d="M 40.4375 19 
L 49.078125 17.875 
Q 47.65625 8.9375 41.8125 3.875 
Q 35.984375 -1.171875 27.484375 -1.171875 
Q 16.84375 -1.171875 10.375 5.78125 
Q 3.90625 12.75 3.90625 25.734375 
Q 3.90625 34.125 6.6875 40.421875 
Q 9.46875 46.734375 15.15625 49.875 
Q 20.84375 53.03125 27.546875 53.03125 
Q 35.984375 53.03125 41.359375 48.75 
Q 46.734375 44.484375 48.25 36.625 
L 39.703125 35.296875 
Q 38.484375 40.53125 35.375 43.15625 
Q 32.28125 45.796875 27.875 45.796875 
Q 21.234375 45.796875 17.078125 41.03125 
Q 12.9375 36.28125 12.9375 25.984375 
Q 12.9375 15.53125 16.9375 10.796875 
Q 20.953125 6.0625 27.390625 6.0625 
Q 32.5625 6.0625 36.03125 9.234375 
Q 39.5 12.40625 40.4375 19 
z
" id="ArialMT-63"/>
      <path d="M 25.78125 7.859375 
L 27.046875 0.09375 
Q 23.34375 -0.6875 20.40625 -0.6875 
Q 15.625 -0.6875 12.984375 0.828125 
Q 10.359375 2.34375 9.28125 4.8125 
Q 8.203125 7.28125 8.203125 15.1875 
L 8.203125 45.015625 
L 1.765625 45.015625 
L 1.765625 51.859375 
L 8.203125 51.859375 
L 8.203125 64.703125 
L 16.9375 69.96875 
L 16.9375 51.859375 
L 25.78125 51.859375 
L 25.78125 45.015625 
L 16.9375 45.015625 
L 16.9375 14.703125 
Q 16.9375 10.9375 17.40625 9.859375 
Q 17.875 8.796875 18.921875 8.15625 
Q 19.96875 7.515625 21.921875 7.515625 
Q 23.390625 7.515625 25.78125 7.859375 
z
" id="ArialMT-74"/>
     </defs>
     <g style="fill:#262626;" transform="translate(24.67125 512.832375)rotate(-90)scale(0.24 -0.24)">
      <use xlink:href="#ArialMT-50"/>
      <use x="66.699219" xlink:href="#ArialMT-72"/>
      <use x="100" xlink:href="#ArialMT-65"/>
      <use x="155.615234" xlink:href="#ArialMT-64"/>
      <use x="211.230469" xlink:href="#ArialMT-69"/>
      <use x="233.447266" xlink:href="#ArialMT-63"/>
      <use x="283.447266" xlink:href="#ArialMT-74"/>
      <use x="311.230469" xlink:href="#ArialMT-65"/>
      <use x="366.845703" xlink:href="#ArialMT-64"/>
      <use x="422.460938" xlink:href="#ArialMT-20"/>
      <use x="450.244141" xlink:href="#ArialMT-44"/>
      <use x="522.460938" xlink:href="#ArialMT-65"/>
      <use x="578.076172" xlink:href="#ArialMT-6e"/>
      <use x="633.691406" xlink:href="#ArialMT-67"/>
      <use x="689.306641" xlink:href="#ArialMT-75"/>
      <use x="744.921875" xlink:href="#ArialMT-65"/>
      <use x="800.537109" xlink:href="#ArialMT-20"/>
      <use x="828.320312" xlink:href="#ArialMT-43"/>
      <use x="900.537109" xlink:href="#ArialMT-61"/>
      <use x="956.152344" xlink:href="#ArialMT-73"/>
      <use x="1006.152344" xlink:href="#ArialMT-65"/>
      <use x="1061.767578" xlink:href="#ArialMT-73"/>
     </g>
    </g>
   </g>
   <g id="PathCollection_1">
    <defs>
     <path d="M 0 6 
C 1.591219 6 3.117479 5.367802 4.242641 4.242641 
C 5.367802 3.117479 6 1.591219 6 0 
C 6 -1.591219 5.367802 -3.117479 4.242641 -4.242641 
C 3.117479 -5.367802 1.591219 -6 0 -6 
C -1.591219 -6 -3.117479 -5.367802 -4.242641 -4.242641 
C -5.367802 -3.117479 -6 -1.591219 -6 0 
C -6 1.591219 -5.367802 3.117479 -4.242641 4.242641 
C -3.117479 5.367802 -1.591219 6 0 6 
z
" id="madc50bd375" style="stroke:#4c72b0;stroke-opacity:0.65;"/>
    </defs>
    <g clip-path="url(#p843867a60f)">
     <use style="fill:#4c72b0;fill-opacity:0.65;stroke:#4c72b0;stroke-opacity:0.65;" x="487.504527" xlink:href="#madc50bd375" y="379.441865"/>
     <use style="fill:#4c72b0;fill-opacity:0.65;stroke:#4c72b0;stroke-opacity:0.65;" x="441.116272" xlink:href="#madc50bd375" y="370.099264"/>
     <use style="fill:#4c72b0;fill-opacity:0.65;stroke:#4c72b0;stroke-opacity:0.65;" x="403.016946" xlink:href="#madc50bd375" y="374.782475"/>
     <use style="fill:#4c72b0;fill-opacity:0.65;stroke:#4c72b0;stroke-opacity:0.65;" x="269.406051" xlink:href="#madc50bd375" y="412.535453"/>
     <use style="fill:#4c72b0;fill-opacity:0.65;stroke:#4c72b0;stroke-opacity:0.65;" x="424.172116" xlink:href="#madc50bd375" y="377.725555"/>
     <use style="fill:#4c72b0;fill-opacity:0.65;stroke:#4c72b0;stroke-opacity:0.65;" x="372.186652" xlink:href="#madc50bd375" y="337.998401"/>
     <use style="fill:#4c72b0;fill-opacity:0.65;stroke:#4c72b0;stroke-opacity:0.65;" x="259.14153" xlink:href="#madc50bd375" y="379.556788"/>
     <use style="fill:#4c72b0;fill-opacity:0.65;stroke:#4c72b0;stroke-opacity:0.65;" x="284.075459" xlink:href="#madc50bd375" y="404.649002"/>
     <use style="fill:#4c72b0;fill-opacity:0.65;stroke:#4c72b0;stroke-opacity:0.65;" x="348.027629" xlink:href="#madc50bd375" y="461.152"/>
     <use style="fill:#4c72b0;fill-opacity:0.65;stroke:#4c72b0;stroke-opacity:0.65;" x="381.819039" xlink:href="#madc50bd375" y="402.36141"/>
     <use style="fill:#4c72b0;fill-opacity:0.65;stroke:#4c72b0;stroke-opacity:0.65;" x="420.771761" xlink:href="#madc50bd375" y="381.000141"/>
     <use style="fill:#4c72b0;fill-opacity:0.65;stroke:#4c72b0;stroke-opacity:0.65;" x="401.976283" xlink:href="#madc50bd375" y="396.432164"/>
     <use style="fill:#4c72b0;fill-opacity:0.65;stroke:#4c72b0;stroke-opacity:0.65;" x="180.150186" xlink:href="#madc50bd375" y="484.910841"/>
     <use style="fill:#4c72b0;fill-opacity:0.65;stroke:#4c72b0;stroke-opacity:0.65;" x="322.175847" xlink:href="#madc50bd375" y="418.781342"/>
     <use style="fill:#4c72b0;fill-opacity:0.65;stroke:#4c72b0;stroke-opacity:0.65;" x="369.795962" xlink:href="#madc50bd375" y="419.106752"/>
     <use style="fill:#4c72b0;fill-opacity:0.65;stroke:#4c72b0;stroke-opacity:0.65;" x="338.382219" xlink:href="#madc50bd375" y="434.408173"/>
     <use style="fill:#4c72b0;fill-opacity:0.65;stroke:#4c72b0;stroke-opacity:0.65;" x="413.978362" xlink:href="#madc50bd375" y="433.014548"/>
     <use style="fill:#4c72b0;fill-opacity:0.65;stroke:#4c72b0;stroke-opacity:0.65;" x="331.678879" xlink:href="#madc50bd375" y="367.948855"/>
     <use style="fill:#4c72b0;fill-opacity:0.65;stroke:#4c72b0;stroke-opacity:0.65;" x="436.208236" xlink:href="#madc50bd375" y="383.020521"/>
     <use style="fill:#4c72b0;fill-opacity:0.65;stroke:#4c72b0;stroke-opacity:0.65;" x="371.62403" xlink:href="#madc50bd375" y="413.194182"/>
     <use style="fill:#4c72b0;fill-opacity:0.65;stroke:#4c72b0;stroke-opacity:0.65;" x="462.058398" xlink:href="#madc50bd375" y="363.978585"/>
     <use style="fill:#4c72b0;fill-opacity:0.65;stroke:#4c72b0;stroke-opacity:0.65;" x="442.552152" xlink:href="#madc50bd375" y="469.076038"/>
     <use style="fill:#4c72b0;fill-opacity:0.65;stroke:#4c72b0;stroke-opacity:0.65;" x="490.453665" xlink:href="#madc50bd375" y="434.356329"/>
     <use style="fill:#4c72b0;fill-opacity:0.65;stroke:#4c72b0;stroke-opacity:0.65;" x="361.552686" xlink:href="#madc50bd375" y="423.816547"/>
     <use style="fill:#4c72b0;fill-opacity:0.65;stroke:#4c72b0;stroke-opacity:0.65;" x="381.79606" xlink:href="#madc50bd375" y="428.336743"/>
     <use style="fill:#4c72b0;fill-opacity:0.65;stroke:#4c72b0;stroke-opacity:0.65;" x="384.166158" xlink:href="#madc50bd375" y="462.581412"/>
     <use style="fill:#4c72b0;fill-opacity:0.65;stroke:#4c72b0;stroke-opacity:0.65;" x="420.484607" xlink:href="#madc50bd375" y="431.939373"/>
     <use style="fill:#4c72b0;fill-opacity:0.65;stroke:#4c72b0;stroke-opacity:0.65;" x="339.212001" xlink:href="#madc50bd375" y="446.999637"/>
     <use style="fill:#4c72b0;fill-opacity:0.65;stroke:#4c72b0;stroke-opacity:0.65;" x="311.319266" xlink:href="#madc50bd375" y="424.363197"/>
     <use style="fill:#4c72b0;fill-opacity:0.65;stroke:#4c72b0;stroke-opacity:0.65;" x="248.955426" xlink:href="#madc50bd375" y="448.042165"/>
     <use style="fill:#4c72b0;fill-opacity:0.65;stroke:#4c72b0;stroke-opacity:0.65;" x="377.804238" xlink:href="#madc50bd375" y="434.685468"/>
     <use style="fill:#4c72b0;fill-opacity:0.65;stroke:#4c72b0;stroke-opacity:0.65;" x="282.404439" xlink:href="#madc50bd375" y="469.936366"/>
     <use style="fill:#4c72b0;fill-opacity:0.65;stroke:#4c72b0;stroke-opacity:0.65;" x="406.076936" xlink:href="#madc50bd375" y="428.7069"/>
     <use style="fill:#4c72b0;fill-opacity:0.65;stroke:#4c72b0;stroke-opacity:0.65;" x="367.853293" xlink:href="#madc50bd375" y="409.988318"/>
     <use style="fill:#4c72b0;fill-opacity:0.65;stroke:#4c72b0;stroke-opacity:0.65;" x="241.903743" xlink:href="#madc50bd375" y="398.583771"/>
     <use style="fill:#4c72b0;fill-opacity:0.65;stroke:#4c72b0;stroke-opacity:0.65;" x="344.041585" xlink:href="#madc50bd375" y="375.710999"/>
     <use style="fill:#4c72b0;fill-opacity:0.65;stroke:#4c72b0;stroke-opacity:0.65;" x="555.407645" xlink:href="#madc50bd375" y="420.65452"/>
     <use style="fill:#4c72b0;fill-opacity:0.65;stroke:#4c72b0;stroke-opacity:0.65;" x="514.56378" xlink:href="#madc50bd375" y="408.890883"/>
     <use style="fill:#4c72b0;fill-opacity:0.65;stroke:#4c72b0;stroke-opacity:0.65;" x="429.720389" xlink:href="#madc50bd375" y="369.511694"/>
     <use style="fill:#4c72b0;fill-opacity:0.65;stroke:#4c72b0;stroke-opacity:0.65;" x="415.310665" xlink:href="#madc50bd375" y="374.711127"/>
     <use style="fill:#4c72b0;fill-opacity:0.65;stroke:#4c72b0;stroke-opacity:0.65;" x="279.483274" xlink:href="#madc50bd375" y="434.957969"/>
     <use style="fill:#4c72b0;fill-opacity:0.65;stroke:#4c72b0;stroke-opacity:0.65;" x="287.354425" xlink:href="#madc50bd375" y="395.059216"/>
     <use style="fill:#4c72b0;fill-opacity:0.65;stroke:#4c72b0;stroke-opacity:0.65;" x="305.521994" xlink:href="#madc50bd375" y="448.004736"/>
     <use style="fill:#4c72b0;fill-opacity:0.65;stroke:#4c72b0;stroke-opacity:0.65;" x="350.84236" xlink:href="#madc50bd375" y="440.963938"/>
     <use style="fill:#4c72b0;fill-opacity:0.65;stroke:#4c72b0;stroke-opacity:0.65;" x="293.316699" xlink:href="#madc50bd375" y="483.096714"/>
     <use style="fill:#4c72b0;fill-opacity:0.65;stroke:#4c72b0;stroke-opacity:0.65;" x="192.836448" xlink:href="#madc50bd375" y="492.390349"/>
     <use style="fill:#4c72b0;fill-opacity:0.65;stroke:#4c72b0;stroke-opacity:0.65;" x="288.583405" xlink:href="#madc50bd375" y="483.756132"/>
     <use style="fill:#4c72b0;fill-opacity:0.65;stroke:#4c72b0;stroke-opacity:0.65;" x="339.711595" xlink:href="#madc50bd375" y="511.210787"/>
     <use style="fill:#4c72b0;fill-opacity:0.65;stroke:#4c72b0;stroke-opacity:0.65;" x="283.45365" xlink:href="#madc50bd375" y="459.319504"/>
     <use style="fill:#4c72b0;fill-opacity:0.65;stroke:#4c72b0;stroke-opacity:0.65;" x="323.095539" xlink:href="#madc50bd375" y="456.808969"/>
     <use style="fill:#4c72b0;fill-opacity:0.65;stroke:#4c72b0;stroke-opacity:0.65;" x="271.082998" xlink:href="#madc50bd375" y="441.055719"/>
     <use style="fill:#4c72b0;fill-opacity:0.65;stroke:#4c72b0;stroke-opacity:0.65;" x="210.390025" xlink:href="#madc50bd375" y="435.250327"/>
     <use style="fill:#4c72b0;fill-opacity:0.65;stroke:#4c72b0;stroke-opacity:0.65;" x="240.33345" xlink:href="#madc50bd375" y="348.005658"/>
     <use style="fill:#4c72b0;fill-opacity:0.65;stroke:#4c72b0;stroke-opacity:0.65;" x="279.116061" xlink:href="#madc50bd375" y="429.74104"/>
     <use style="fill:#4c72b0;fill-opacity:0.65;stroke:#4c72b0;stroke-opacity:0.65;" x="203.492231" xlink:href="#madc50bd375" y="417.693364"/>
     <use style="fill:#4c72b0;fill-opacity:0.65;stroke:#4c72b0;stroke-opacity:0.65;" x="179.836129" xlink:href="#madc50bd375" y="449.699066"/>
     <use style="fill:#4c72b0;fill-opacity:0.65;stroke:#4c72b0;stroke-opacity:0.65;" x="220.005857" xlink:href="#madc50bd375" y="442.972547"/>
     <use style="fill:#4c72b0;fill-opacity:0.65;stroke:#4c72b0;stroke-opacity:0.65;" x="236.78917" xlink:href="#madc50bd375" y="430.426542"/>
     <use style="fill:#4c72b0;fill-opacity:0.65;stroke:#4c72b0;stroke-opacity:0.65;" x="181.284638" xlink:href="#madc50bd375" y="467.235407"/>
     <use style="fill:#4c72b0;fill-opacity:0.65;stroke:#4c72b0;stroke-opacity:0.65;" x="288.676574" xlink:href="#madc50bd375" y="448.412602"/>
     <use style="fill:#4c72b0;fill-opacity:0.65;stroke:#4c72b0;stroke-opacity:0.65;" x="264.54059" xlink:href="#madc50bd375" y="466.59153"/>
     <use style="fill:#4c72b0;fill-opacity:0.65;stroke:#4c72b0;stroke-opacity:0.65;" x="223.631131" xlink:href="#madc50bd375" y="414.208919"/>
     <use style="fill:#4c72b0;fill-opacity:0.65;stroke:#4c72b0;stroke-opacity:0.65;" x="199.197912" xlink:href="#madc50bd375" y="443.968654"/>
     <use style="fill:#4c72b0;fill-opacity:0.65;stroke:#4c72b0;stroke-opacity:0.65;" x="234.525211" xlink:href="#madc50bd375" y="423.22275"/>
     <use style="fill:#4c72b0;fill-opacity:0.65;stroke:#4c72b0;stroke-opacity:0.65;" x="269.457634" xlink:href="#madc50bd375" y="441.834997"/>
     <use style="fill:#4c72b0;fill-opacity:0.65;stroke:#4c72b0;stroke-opacity:0.65;" x="270.396643" xlink:href="#madc50bd375" y="415.922904"/>
     <use style="fill:#4c72b0;fill-opacity:0.65;stroke:#4c72b0;stroke-opacity:0.65;" x="250.179944" xlink:href="#madc50bd375" y="411.29383"/>
     <use style="fill:#4c72b0;fill-opacity:0.65;stroke:#4c72b0;stroke-opacity:0.65;" x="266.602851" xlink:href="#madc50bd375" y="431.712471"/>
     <use style="fill:#4c72b0;fill-opacity:0.65;stroke:#4c72b0;stroke-opacity:0.65;" x="314.515633" xlink:href="#madc50bd375" y="438.819708"/>
     <use style="fill:#4c72b0;fill-opacity:0.65;stroke:#4c72b0;stroke-opacity:0.65;" x="371.838443" xlink:href="#madc50bd375" y="378.108995"/>
     <use style="fill:#4c72b0;fill-opacity:0.65;stroke:#4c72b0;stroke-opacity:0.65;" x="220.245378" xlink:href="#madc50bd375" y="485.260431"/>
     <use style="fill:#4c72b0;fill-opacity:0.65;stroke:#4c72b0;stroke-opacity:0.65;" x="339.60534" xlink:href="#madc50bd375" y="421.760195"/>
     <use style="fill:#4c72b0;fill-opacity:0.65;stroke:#4c72b0;stroke-opacity:0.65;" x="293.748832" xlink:href="#madc50bd375" y="454.507588"/>
     <use style="fill:#4c72b0;fill-opacity:0.65;stroke:#4c72b0;stroke-opacity:0.65;" x="330.849944" xlink:href="#madc50bd375" y="344.661068"/>
     <use style="fill:#4c72b0;fill-opacity:0.65;stroke:#4c72b0;stroke-opacity:0.65;" x="334.114306" xlink:href="#madc50bd375" y="440.591724"/>
     <use style="fill:#4c72b0;fill-opacity:0.65;stroke:#4c72b0;stroke-opacity:0.65;" x="269.409176" xlink:href="#madc50bd375" y="473.585678"/>
     <use style="fill:#4c72b0;fill-opacity:0.65;stroke:#4c72b0;stroke-opacity:0.65;" x="261.801761" xlink:href="#madc50bd375" y="401.250455"/>
     <use style="fill:#4c72b0;fill-opacity:0.65;stroke:#4c72b0;stroke-opacity:0.65;" x="285.509115" xlink:href="#madc50bd375" y="440.247063"/>
     <use style="fill:#4c72b0;fill-opacity:0.65;stroke:#4c72b0;stroke-opacity:0.65;" x="327.035595" xlink:href="#madc50bd375" y="434.386121"/>
     <use style="fill:#4c72b0;fill-opacity:0.65;stroke:#4c72b0;stroke-opacity:0.65;" x="252.923642" xlink:href="#madc50bd375" y="452.038651"/>
     <use style="fill:#4c72b0;fill-opacity:0.65;stroke:#4c72b0;stroke-opacity:0.65;" x="311.162047" xlink:href="#madc50bd375" y="440.677504"/>
     <use style="fill:#4c72b0;fill-opacity:0.65;stroke:#4c72b0;stroke-opacity:0.65;" x="288.339236" xlink:href="#madc50bd375" y="427.292541"/>
     <use style="fill:#4c72b0;fill-opacity:0.65;stroke:#4c72b0;stroke-opacity:0.65;" x="389.509767" xlink:href="#madc50bd375" y="404.838757"/>
     <use style="fill:#4c72b0;fill-opacity:0.65;stroke:#4c72b0;stroke-opacity:0.65;" x="395.215692" xlink:href="#madc50bd375" y="419.554413"/>
     <use style="fill:#4c72b0;fill-opacity:0.65;stroke:#4c72b0;stroke-opacity:0.65;" x="320.266583" xlink:href="#madc50bd375" y="435.134169"/>
     <use style="fill:#4c72b0;fill-opacity:0.65;stroke:#4c72b0;stroke-opacity:0.65;" x="530.223551" xlink:href="#madc50bd375" y="443.389465"/>
     <use style="fill:#4c72b0;fill-opacity:0.65;stroke:#4c72b0;stroke-opacity:0.65;" x="509.335569" xlink:href="#madc50bd375" y="411.462227"/>
     <use style="fill:#4c72b0;fill-opacity:0.65;stroke:#4c72b0;stroke-opacity:0.65;" x="595.263652" xlink:href="#madc50bd375" y="435.335167"/>
     <use style="fill:#4c72b0;fill-opacity:0.65;stroke:#4c72b0;stroke-opacity:0.65;" x="276.782233" xlink:href="#madc50bd375" y="425.537691"/>
     <use style="fill:#4c72b0;fill-opacity:0.65;stroke:#4c72b0;stroke-opacity:0.65;" x="157.869275" xlink:href="#madc50bd375" y="420.027492"/>
     <use style="fill:#4c72b0;fill-opacity:0.65;stroke:#4c72b0;stroke-opacity:0.65;" x="178.70137" xlink:href="#madc50bd375" y="448.854666"/>
     <use style="fill:#4c72b0;fill-opacity:0.65;stroke:#4c72b0;stroke-opacity:0.65;" x="323.934945" xlink:href="#madc50bd375" y="428.625083"/>
     <use style="fill:#4c72b0;fill-opacity:0.65;stroke:#4c72b0;stroke-opacity:0.65;" x="277.816561" xlink:href="#madc50bd375" y="437.937736"/>
     <use style="fill:#4c72b0;fill-opacity:0.65;stroke:#4c72b0;stroke-opacity:0.65;" x="146.509958" xlink:href="#madc50bd375" y="417.075053"/>
     <use style="fill:#4c72b0;fill-opacity:0.65;stroke:#4c72b0;stroke-opacity:0.65;" x="223.360759" xlink:href="#madc50bd375" y="447.035606"/>
     <use style="fill:#4c72b0;fill-opacity:0.65;stroke:#4c72b0;stroke-opacity:0.65;" x="134.585723" xlink:href="#madc50bd375" y="486.746651"/>
     <use style="fill:#4c72b0;fill-opacity:0.65;stroke:#4c72b0;stroke-opacity:0.65;" x="228.703313" xlink:href="#madc50bd375" y="487.600803"/>
     <use style="fill:#4c72b0;fill-opacity:0.65;stroke:#4c72b0;stroke-opacity:0.65;" x="152.803787" xlink:href="#madc50bd375" y="500.216516"/>
     <use style="fill:#4c72b0;fill-opacity:0.65;stroke:#4c72b0;stroke-opacity:0.65;" x="189.645336" xlink:href="#madc50bd375" y="491.548135"/>
     <use style="fill:#4c72b0;fill-opacity:0.65;stroke:#4c72b0;stroke-opacity:0.65;" x="154.38163" xlink:href="#madc50bd375" y="467.486084"/>
     <use style="fill:#4c72b0;fill-opacity:0.65;stroke:#4c72b0;stroke-opacity:0.65;" x="160.780413" xlink:href="#madc50bd375" y="530.452919"/>
     <use style="fill:#4c72b0;fill-opacity:0.65;stroke:#4c72b0;stroke-opacity:0.65;" x="208.747897" xlink:href="#madc50bd375" y="487.317722"/>
     <use style="fill:#4c72b0;fill-opacity:0.65;stroke:#4c72b0;stroke-opacity:0.65;" x="342.964147" xlink:href="#madc50bd375" y="444.699919"/>
     <use style="fill:#4c72b0;fill-opacity:0.65;stroke:#4c72b0;stroke-opacity:0.65;" x="225.018875" xlink:href="#madc50bd375" y="452.152393"/>
     <use style="fill:#4c72b0;fill-opacity:0.65;stroke:#4c72b0;stroke-opacity:0.65;" x="307.326899" xlink:href="#madc50bd375" y="563.66192"/>
     <use style="fill:#4c72b0;fill-opacity:0.65;stroke:#4c72b0;stroke-opacity:0.65;" x="190.350302" xlink:href="#madc50bd375" y="503.287148"/>
     <use style="fill:#4c72b0;fill-opacity:0.65;stroke:#4c72b0;stroke-opacity:0.65;" x="185.73259" xlink:href="#madc50bd375" y="467.711642"/>
     <use style="fill:#4c72b0;fill-opacity:0.65;stroke:#4c72b0;stroke-opacity:0.65;" x="314.243188" xlink:href="#madc50bd375" y="412.334717"/>
     <use style="fill:#4c72b0;fill-opacity:0.65;stroke:#4c72b0;stroke-opacity:0.65;" x="174.795505" xlink:href="#madc50bd375" y="546.471128"/>
     <use style="fill:#4c72b0;fill-opacity:0.65;stroke:#4c72b0;stroke-opacity:0.65;" x="332.697465" xlink:href="#madc50bd375" y="544.244616"/>
     <use style="fill:#4c72b0;fill-opacity:0.65;stroke:#4c72b0;stroke-opacity:0.65;" x="202.20167" xlink:href="#madc50bd375" y="587.309021"/>
     <use style="fill:#4c72b0;fill-opacity:0.65;stroke:#4c72b0;stroke-opacity:0.65;" x="262.336011" xlink:href="#madc50bd375" y="494.404994"/>
     <use style="fill:#4c72b0;fill-opacity:0.65;stroke:#4c72b0;stroke-opacity:0.65;" x="232.65261" xlink:href="#madc50bd375" y="471.255213"/>
     <use style="fill:#4c72b0;fill-opacity:0.65;stroke:#4c72b0;stroke-opacity:0.65;" x="226.083609" xlink:href="#madc50bd375" y="458.940674"/>
     <use style="fill:#4c72b0;fill-opacity:0.65;stroke:#4c72b0;stroke-opacity:0.65;" x="230.837459" xlink:href="#madc50bd375" y="470.013669"/>
     <use style="fill:#4c72b0;fill-opacity:0.65;stroke:#4c72b0;stroke-opacity:0.65;" x="305.11677" xlink:href="#madc50bd375" y="421.005712"/>
     <use style="fill:#4c72b0;fill-opacity:0.65;stroke:#4c72b0;stroke-opacity:0.65;" x="265.633939" xlink:href="#madc50bd375" y="459.789957"/>
     <use style="fill:#4c72b0;fill-opacity:0.65;stroke:#4c72b0;stroke-opacity:0.65;" x="298.472089" xlink:href="#madc50bd375" y="441.508376"/>
     <use style="fill:#4c72b0;fill-opacity:0.65;stroke:#4c72b0;stroke-opacity:0.65;" x="252.198408" xlink:href="#madc50bd375" y="456.524316"/>
     <use style="fill:#4c72b0;fill-opacity:0.65;stroke:#4c72b0;stroke-opacity:0.65;" x="234.814583" xlink:href="#madc50bd375" y="451.191778"/>
     <use style="fill:#4c72b0;fill-opacity:0.65;stroke:#4c72b0;stroke-opacity:0.65;" x="255.568408" xlink:href="#madc50bd375" y="453.431064"/>
     <use style="fill:#4c72b0;fill-opacity:0.65;stroke:#4c72b0;stroke-opacity:0.65;" x="298.286967" xlink:href="#madc50bd375" y="440.701425"/>
     <use style="fill:#4c72b0;fill-opacity:0.65;stroke:#4c72b0;stroke-opacity:0.65;" x="284.923974" xlink:href="#madc50bd375" y="469.608333"/>
     <use style="fill:#4c72b0;fill-opacity:0.65;stroke:#4c72b0;stroke-opacity:0.65;" x="163.368477" xlink:href="#madc50bd375" y="463.782105"/>
     <use style="fill:#4c72b0;fill-opacity:0.65;stroke:#4c72b0;stroke-opacity:0.65;" x="305.03257" xlink:href="#madc50bd375" y="428.014957"/>
     <use style="fill:#4c72b0;fill-opacity:0.65;stroke:#4c72b0;stroke-opacity:0.65;" x="197.463108" xlink:href="#madc50bd375" y="447.532041"/>
     <use style="fill:#4c72b0;fill-opacity:0.65;stroke:#4c72b0;stroke-opacity:0.65;" x="351.219474" xlink:href="#madc50bd375" y="418.998268"/>
     <use style="fill:#4c72b0;fill-opacity:0.65;stroke:#4c72b0;stroke-opacity:0.65;" x="230.828535" xlink:href="#madc50bd375" y="431.392382"/>
     <use style="fill:#4c72b0;fill-opacity:0.65;stroke:#4c72b0;stroke-opacity:0.65;" x="282.812528" xlink:href="#madc50bd375" y="470.498327"/>
     <use style="fill:#4c72b0;fill-opacity:0.65;stroke:#4c72b0;stroke-opacity:0.65;" x="343.185985" xlink:href="#madc50bd375" y="459.097405"/>
     <use style="fill:#4c72b0;fill-opacity:0.65;stroke:#4c72b0;stroke-opacity:0.65;" x="367.415423" xlink:href="#madc50bd375" y="433.618654"/>
     <use style="fill:#4c72b0;fill-opacity:0.65;stroke:#4c72b0;stroke-opacity:0.65;" x="380.790951" xlink:href="#madc50bd375" y="472.380474"/>
     <use style="fill:#4c72b0;fill-opacity:0.65;stroke:#4c72b0;stroke-opacity:0.65;" x="329.871355" xlink:href="#madc50bd375" y="476.490581"/>
     <use style="fill:#4c72b0;fill-opacity:0.65;stroke:#4c72b0;stroke-opacity:0.65;" x="176.179147" xlink:href="#madc50bd375" y="457.293463"/>
     <use style="fill:#4c72b0;fill-opacity:0.65;stroke:#4c72b0;stroke-opacity:0.65;" x="147.463533" xlink:href="#madc50bd375" y="468.915858"/>
     <use style="fill:#4c72b0;fill-opacity:0.65;stroke:#4c72b0;stroke-opacity:0.65;" x="250.624454" xlink:href="#madc50bd375" y="506.919492"/>
     <use style="fill:#4c72b0;fill-opacity:0.65;stroke:#4c72b0;stroke-opacity:0.65;" x="191.137035" xlink:href="#madc50bd375" y="468.34681"/>
     <use style="fill:#4c72b0;fill-opacity:0.65;stroke:#4c72b0;stroke-opacity:0.65;" x="183.213951" xlink:href="#madc50bd375" y="567.076599"/>
     <use style="fill:#4c72b0;fill-opacity:0.65;stroke:#4c72b0;stroke-opacity:0.65;" x="447.199064" xlink:href="#madc50bd375" y="417.315249"/>
     <use style="fill:#4c72b0;fill-opacity:0.65;stroke:#4c72b0;stroke-opacity:0.65;" x="416.870572" xlink:href="#madc50bd375" y="486.443444"/>
     <use style="fill:#4c72b0;fill-opacity:0.65;stroke:#4c72b0;stroke-opacity:0.65;" x="471.925727" xlink:href="#madc50bd375" y="455.788533"/>
     <use style="fill:#4c72b0;fill-opacity:0.65;stroke:#4c72b0;stroke-opacity:0.65;" x="307.723542" xlink:href="#madc50bd375" y="455.247333"/>
     <use style="fill:#4c72b0;fill-opacity:0.65;stroke:#4c72b0;stroke-opacity:0.65;" x="320.800258" xlink:href="#madc50bd375" y="487.772921"/>
     <use style="fill:#4c72b0;fill-opacity:0.65;stroke:#4c72b0;stroke-opacity:0.65;" x="187.200759" xlink:href="#madc50bd375" y="464.949962"/>
     <use style="fill:#4c72b0;fill-opacity:0.65;stroke:#4c72b0;stroke-opacity:0.65;" x="255.36275" xlink:href="#madc50bd375" y="480.496152"/>
     <use style="fill:#4c72b0;fill-opacity:0.65;stroke:#4c72b0;stroke-opacity:0.65;" x="221.850773" xlink:href="#madc50bd375" y="459.835354"/>
     <use style="fill:#4c72b0;fill-opacity:0.65;stroke:#4c72b0;stroke-opacity:0.65;" x="430.076252" xlink:href="#madc50bd375" y="350.448148"/>
     <use style="fill:#4c72b0;fill-opacity:0.65;stroke:#4c72b0;stroke-opacity:0.65;" x="362.082091" xlink:href="#madc50bd375" y="458.963335"/>
     <use style="fill:#4c72b0;fill-opacity:0.65;stroke:#4c72b0;stroke-opacity:0.65;" x="328.263211" xlink:href="#madc50bd375" y="433.895047"/>
     <use style="fill:#4c72b0;fill-opacity:0.65;stroke:#4c72b0;stroke-opacity:0.65;" x="304.984154" xlink:href="#madc50bd375" y="415.608104"/>
     <use style="fill:#4c72b0;fill-opacity:0.65;stroke:#4c72b0;stroke-opacity:0.65;" x="299.503645" xlink:href="#madc50bd375" y="438.5427"/>
     <use style="fill:#4c72b0;fill-opacity:0.65;stroke:#4c72b0;stroke-opacity:0.65;" x="371.18686" xlink:href="#madc50bd375" y="458.689777"/>
     <use style="fill:#4c72b0;fill-opacity:0.65;stroke:#4c72b0;stroke-opacity:0.65;" x="469.648946" xlink:href="#madc50bd375" y="398.855352"/>
     <use style="fill:#4c72b0;fill-opacity:0.65;stroke:#4c72b0;stroke-opacity:0.65;" x="371.546748" xlink:href="#madc50bd375" y="462.701511"/>
     <use style="fill:#4c72b0;fill-opacity:0.65;stroke:#4c72b0;stroke-opacity:0.65;" x="406.041057" xlink:href="#madc50bd375" y="440.641975"/>
     <use style="fill:#4c72b0;fill-opacity:0.65;stroke:#4c72b0;stroke-opacity:0.65;" x="363.793753" xlink:href="#madc50bd375" y="439.724849"/>
     <use style="fill:#4c72b0;fill-opacity:0.65;stroke:#4c72b0;stroke-opacity:0.65;" x="253.220694" xlink:href="#madc50bd375" y="451.026877"/>
     <use style="fill:#4c72b0;fill-opacity:0.65;stroke:#4c72b0;stroke-opacity:0.65;" x="319.986279" xlink:href="#madc50bd375" y="482.257926"/>
     <use style="fill:#4c72b0;fill-opacity:0.65;stroke:#4c72b0;stroke-opacity:0.65;" x="248.843022" xlink:href="#madc50bd375" y="428.983054"/>
     <use style="fill:#4c72b0;fill-opacity:0.65;stroke:#4c72b0;stroke-opacity:0.65;" x="268.251303" xlink:href="#madc50bd375" y="442.853886"/>
     <use style="fill:#4c72b0;fill-opacity:0.65;stroke:#4c72b0;stroke-opacity:0.65;" x="343.214178" xlink:href="#madc50bd375" y="473.148852"/>
     <use style="fill:#4c72b0;fill-opacity:0.65;stroke:#4c72b0;stroke-opacity:0.65;" x="365.699765" xlink:href="#madc50bd375" y="445.454035"/>
     <use style="fill:#4c72b0;fill-opacity:0.65;stroke:#4c72b0;stroke-opacity:0.65;" x="345.706505" xlink:href="#madc50bd375" y="424.422473"/>
     <use style="fill:#4c72b0;fill-opacity:0.65;stroke:#4c72b0;stroke-opacity:0.65;" x="260.213036" xlink:href="#madc50bd375" y="468.794064"/>
     <use style="fill:#4c72b0;fill-opacity:0.65;stroke:#4c72b0;stroke-opacity:0.65;" x="414.101268" xlink:href="#madc50bd375" y="505.190239"/>
     <use style="fill:#4c72b0;fill-opacity:0.65;stroke:#4c72b0;stroke-opacity:0.65;" x="320.049125" xlink:href="#madc50bd375" y="484.080382"/>
     <use style="fill:#4c72b0;fill-opacity:0.65;stroke:#4c72b0;stroke-opacity:0.65;" x="249.819166" xlink:href="#madc50bd375" y="478.683948"/>
    </g>
   </g>
   <g id="PolyCollection_1">
    <defs>
     <path d="M 111.288324 -253.602568 
L 111.288324 -226.240587 
L 116.412291 -227.597024 
L 121.536258 -228.951157 
L 126.660225 -230.272582 
L 131.784192 -231.521002 
L 136.908159 -232.750638 
L 142.032126 -234.054244 
L 147.156092 -235.332226 
L 152.280059 -236.594565 
L 157.404026 -237.813803 
L 162.527993 -239.113479 
L 167.65196 -240.378202 
L 172.775927 -241.640093 
L 177.899894 -242.901984 
L 183.023861 -244.164263 
L 188.147828 -245.466246 
L 193.271795 -246.693648 
L 198.395762 -247.948105 
L 203.519729 -249.205364 
L 208.643696 -250.42854 
L 213.767663 -251.698126 
L 218.89163 -252.831892 
L 224.015597 -254.053047 
L 229.139564 -255.395803 
L 234.26353 -256.768125 
L 239.387497 -257.809384 
L 244.511464 -258.936763 
L 249.635431 -260.234901 
L 254.759398 -261.328243 
L 259.883365 -262.390167 
L 265.007332 -263.56432 
L 270.131299 -264.650978 
L 275.255266 -265.768545 
L 280.379233 -266.876929 
L 285.5032 -267.896825 
L 290.627167 -268.842854 
L 295.751134 -270.02337 
L 300.875101 -271.209549 
L 305.999068 -272.12133 
L 311.123035 -273.181862 
L 316.247002 -274.216624 
L 321.370968 -275.129935 
L 326.494935 -276.041232 
L 331.618902 -276.88252 
L 336.742869 -277.754375 
L 341.866836 -278.596349 
L 346.990803 -279.379154 
L 352.11477 -280.215723 
L 357.238737 -281.052674 
L 362.362704 -281.993745 
L 367.486671 -282.733076 
L 372.610638 -283.571433 
L 377.734605 -284.358748 
L 382.858572 -285.141752 
L 387.982539 -285.899087 
L 393.106506 -286.714605 
L 398.230473 -287.401698 
L 403.35444 -288.134912 
L 408.478407 -288.940108 
L 413.602373 -289.646592 
L 418.72634 -290.430477 
L 423.850307 -291.144368 
L 428.974274 -291.910736 
L 434.098241 -292.667537 
L 439.222208 -293.427563 
L 444.346175 -294.116377 
L 449.470142 -294.799345 
L 454.594109 -295.483566 
L 459.718076 -296.253768 
L 464.842043 -297.092246 
L 469.96601 -297.949058 
L 475.089977 -298.761725 
L 480.213944 -299.524932 
L 485.337911 -300.286274 
L 490.461878 -300.970951 
L 495.585845 -301.633024 
L 500.709811 -302.299635 
L 505.833778 -302.981851 
L 510.957745 -303.664257 
L 516.081712 -304.385485 
L 521.205679 -305.149552 
L 526.329646 -305.91513 
L 531.453613 -306.581706 
L 536.57758 -307.30286 
L 541.701547 -308.064618 
L 546.825514 -308.814895 
L 551.949481 -309.485925 
L 557.073448 -310.156954 
L 562.197415 -310.830346 
L 567.321382 -311.504187 
L 572.445349 -312.178028 
L 577.569316 -312.852907 
L 582.693283 -313.519224 
L 587.817249 -314.189573 
L 592.941216 -314.859923 
L 598.065183 -315.530272 
L 603.18915 -316.200621 
L 608.313117 -316.87097 
L 613.437084 -317.54132 
L 618.561051 -318.212458 
L 618.561051 -359.727566 
L 618.561051 -359.727566 
L 613.437084 -358.40393 
L 608.313117 -357.080295 
L 603.18915 -355.75666 
L 598.065183 -354.433024 
L 592.941216 -353.109389 
L 587.817249 -351.785753 
L 582.693283 -350.462118 
L 577.569316 -349.138482 
L 572.445349 -347.814847 
L 567.321382 -346.491212 
L 562.197415 -345.167487 
L 557.073448 -343.842503 
L 551.949481 -342.519707 
L 546.825514 -341.258136 
L 541.701547 -339.996565 
L 536.57758 -338.776514 
L 531.453613 -337.476919 
L 526.329646 -336.219693 
L 521.205679 -334.960912 
L 516.081712 -333.70056 
L 510.957745 -332.440208 
L 505.833778 -331.179857 
L 500.709811 -329.919505 
L 495.585845 -328.629681 
L 490.461878 -327.322471 
L 485.337911 -326.015147 
L 480.213944 -324.753243 
L 475.089977 -323.455589 
L 469.96601 -322.096906 
L 464.842043 -320.785851 
L 459.718076 -319.499472 
L 454.594109 -318.246401 
L 449.470142 -316.863429 
L 444.346175 -315.565009 
L 439.222208 -314.247355 
L 434.098241 -312.954704 
L 428.974274 -311.692085 
L 423.850307 -310.432468 
L 418.72634 -309.131366 
L 413.602373 -307.830264 
L 408.478407 -306.546416 
L 403.35444 -305.27817 
L 398.230473 -304.083223 
L 393.106506 -302.911634 
L 387.982539 -301.761671 
L 382.858572 -300.543567 
L 377.734605 -299.222428 
L 372.610638 -298.090184 
L 367.486671 -296.957156 
L 362.362704 -295.663596 
L 357.238737 -294.453415 
L 352.11477 -293.245329 
L 346.990803 -292.075909 
L 341.866836 -290.951648 
L 336.742869 -289.85111 
L 331.618902 -288.807245 
L 326.494935 -287.5143 
L 321.370968 -286.233196 
L 316.247002 -285.200861 
L 311.123035 -284.198111 
L 305.999068 -283.128527 
L 300.875101 -282.061004 
L 295.751134 -281.105475 
L 290.627167 -280.356883 
L 285.5032 -279.40777 
L 280.379233 -278.39455 
L 275.255266 -277.43565 
L 270.131299 -276.440085 
L 265.007332 -275.681663 
L 259.883365 -274.925487 
L 254.759398 -273.976737 
L 249.635431 -273.162608 
L 244.511464 -272.481713 
L 239.387497 -271.748241 
L 234.26353 -270.937152 
L 229.139564 -270.227304 
L 224.015597 -269.544391 
L 218.89163 -268.857678 
L 213.767663 -268.094599 
L 208.643696 -267.342707 
L 203.519729 -266.584705 
L 198.395762 -265.827921 
L 193.271795 -265.102018 
L 188.147828 -264.358851 
L 183.023861 -263.682797 
L 177.899894 -262.875081 
L 172.775927 -262.139797 
L 167.65196 -261.404514 
L 162.527993 -260.669267 
L 157.404026 -259.935151 
L 152.280059 -259.201034 
L 147.156092 -258.466917 
L 142.032126 -257.7328 
L 136.908159 -257.045577 
L 131.784192 -256.402653 
L 126.660225 -255.731037 
L 121.536258 -255.014183 
L 116.412291 -254.308375 
L 111.288324 -253.602568 
z
" id="m4a83ad2db1" style="stroke:#ffffff;stroke-opacity:0.15;stroke-width:2;"/>
    </defs>
    <g clip-path="url(#p843867a60f)">
     <use style="fill:#4c72b0;fill-opacity:0.15;stroke:#ffffff;stroke-opacity:0.15;stroke-width:2;" x="0" xlink:href="#m4a83ad2db1" y="720.570187"/>
    </g>
   </g>
   <g id="line2d_13">
    <path clip-path="url(#p843867a60f)" d="M 111.288324 479.949815 
L 116.412291 478.972082 
L 121.536258 477.994348 
L 126.660225 477.016615 
L 131.784192 476.038882 
L 136.908159 475.061149 
L 142.032126 474.083416 
L 147.156092 473.105683 
L 152.280059 472.12795 
L 157.404026 471.150217 
L 162.527993 470.172483 
L 167.65196 469.19475 
L 172.775927 468.217017 
L 177.899894 467.239284 
L 183.023861 466.261551 
L 188.147828 465.283818 
L 193.271795 464.306085 
L 198.395762 463.328352 
L 203.519729 462.350618 
L 208.643696 461.372885 
L 213.767663 460.395152 
L 218.89163 459.417419 
L 224.015597 458.439686 
L 229.139564 457.461953 
L 234.26353 456.48422 
L 239.387497 455.506487 
L 244.511464 454.528753 
L 249.635431 453.55102 
L 254.759398 452.573287 
L 259.883365 451.595554 
L 265.007332 450.617821 
L 270.131299 449.640088 
L 275.255266 448.662355 
L 280.379233 447.684622 
L 285.5032 446.706888 
L 290.627167 445.729155 
L 295.751134 444.751422 
L 300.875101 443.773689 
L 305.999068 442.795956 
L 311.123035 441.818223 
L 316.247002 440.84049 
L 321.370968 439.862756 
L 326.494935 438.885023 
L 331.618902 437.90729 
L 336.742869 436.929557 
L 341.866836 435.951824 
L 346.990803 434.974091 
L 352.11477 433.996358 
L 357.238737 433.018625 
L 362.362704 432.040891 
L 367.486671 431.063158 
L 372.610638 430.085425 
L 377.734605 429.107692 
L 382.858572 428.129959 
L 387.982539 427.152226 
L 393.106506 426.174493 
L 398.230473 425.19676 
L 403.35444 424.219026 
L 408.478407 423.241293 
L 413.602373 422.26356 
L 418.72634 421.285827 
L 423.850307 420.308094 
L 428.974274 419.330361 
L 434.098241 418.352628 
L 439.222208 417.374895 
L 444.346175 416.397161 
L 449.470142 415.419428 
L 454.594109 414.441695 
L 459.718076 413.463962 
L 464.842043 412.486229 
L 469.96601 411.508496 
L 475.089977 410.530763 
L 480.213944 409.55303 
L 485.337911 408.575296 
L 490.461878 407.597563 
L 495.585845 406.61983 
L 500.709811 405.642097 
L 505.833778 404.664364 
L 510.957745 403.686631 
L 516.081712 402.708898 
L 521.205679 401.731165 
L 526.329646 400.753431 
L 531.453613 399.775698 
L 536.57758 398.797965 
L 541.701547 397.820232 
L 546.825514 396.842499 
L 551.949481 395.864766 
L 557.073448 394.887033 
L 562.197415 393.9093 
L 567.321382 392.931566 
L 572.445349 391.953833 
L 577.569316 390.9761 
L 582.693283 389.998367 
L 587.817249 389.020634 
L 592.941216 388.042901 
L 598.065183 387.065168 
L 603.18915 386.087435 
L 608.313117 385.109701 
L 613.437084 384.131968 
L 618.561051 383.154235 
" style="fill:none;stroke:#4c72b0;stroke-linecap:round;stroke-width:4.5;"/>
   </g>
   <g id="line2d_14">
    <path clip-path="url(#p843867a60f)" d="M 134.585723 626.518909 
L 595.263652 132.337091 
" style="fill:none;stroke:#808080;stroke-dasharray:11.1,4.8;stroke-dashoffset:0;stroke-width:3;"/>
   </g>
   <g id="patch_3">
    <path d="M 85.924688 651.228 
L 85.924688 107.628 
" style="fill:none;stroke:#ffffff;stroke-linecap:square;stroke-linejoin:miter;stroke-width:2.5;"/>
   </g>
   <g id="patch_4">
    <path d="M 643.924688 651.228 
L 643.924688 107.628 
" style="fill:none;stroke:#ffffff;stroke-linecap:square;stroke-linejoin:miter;stroke-width:2.5;"/>
   </g>
   <g id="patch_5">
    <path d="M 85.924688 651.228 
L 643.924687 651.228 
" style="fill:none;stroke:#ffffff;stroke-linecap:square;stroke-linejoin:miter;stroke-width:2.5;"/>
   </g>
   <g id="patch_6">
    <path d="M 85.924688 107.628 
L 643.924687 107.628 
" style="fill:none;stroke:#ffffff;stroke-linecap:square;stroke-linejoin:miter;stroke-width:2.5;"/>
   </g>
   <g id="text_15">
    <!-- Nakhon-Si (167 data points), BS per Person as Features -->
    <defs>
     <path d="M 7.625 0 
L 7.625 71.578125 
L 17.328125 71.578125 
L 54.9375 15.375 
L 54.9375 71.578125 
L 64.015625 71.578125 
L 64.015625 0 
L 54.296875 0 
L 16.703125 56.25 
L 16.703125 0 
z
" id="ArialMT-4e"/>
     <path d="M 6.640625 0 
L 6.640625 71.578125 
L 15.4375 71.578125 
L 15.4375 30.765625 
L 36.234375 51.859375 
L 47.609375 51.859375 
L 27.78125 32.625 
L 49.609375 0 
L 38.765625 0 
L 21.625 26.515625 
L 15.4375 20.5625 
L 15.4375 0 
z
" id="ArialMT-6b"/>
     <path d="M 6.59375 0 
L 6.59375 71.578125 
L 15.375 71.578125 
L 15.375 45.90625 
Q 21.53125 53.03125 30.90625 53.03125 
Q 36.671875 53.03125 40.921875 50.75 
Q 45.171875 48.484375 47 44.484375 
Q 48.828125 40.484375 48.828125 32.859375 
L 48.828125 0 
L 40.046875 0 
L 40.046875 32.859375 
Q 40.046875 39.453125 37.1875 42.453125 
Q 34.328125 45.453125 29.109375 45.453125 
Q 25.203125 45.453125 21.75 43.421875 
Q 18.3125 41.40625 16.84375 37.9375 
Q 15.375 34.46875 15.375 28.375 
L 15.375 0 
z
" id="ArialMT-68"/>
     <path d="M 3.171875 21.484375 
L 3.171875 30.328125 
L 30.171875 30.328125 
L 30.171875 21.484375 
z
" id="ArialMT-2d"/>
     <path d="M 4.5 23 
L 13.421875 23.78125 
Q 14.0625 18.40625 16.375 14.96875 
Q 18.703125 11.53125 23.578125 9.40625 
Q 28.46875 7.28125 34.578125 7.28125 
Q 39.984375 7.28125 44.140625 8.890625 
Q 48.296875 10.5 50.3125 13.296875 
Q 52.34375 16.109375 52.34375 19.4375 
Q 52.34375 22.796875 50.390625 25.3125 
Q 48.4375 27.828125 43.953125 29.546875 
Q 41.0625 30.671875 31.203125 33.03125 
Q 21.34375 35.40625 17.390625 37.5 
Q 12.25 40.1875 9.734375 44.15625 
Q 7.234375 48.140625 7.234375 53.078125 
Q 7.234375 58.5 10.296875 63.203125 
Q 13.375 67.921875 19.28125 70.359375 
Q 25.203125 72.796875 32.421875 72.796875 
Q 40.375 72.796875 46.453125 70.234375 
Q 52.546875 67.671875 55.8125 62.6875 
Q 59.078125 57.71875 59.328125 51.421875 
L 50.25 50.734375 
Q 49.515625 57.515625 45.28125 60.984375 
Q 41.0625 64.453125 32.8125 64.453125 
Q 24.21875 64.453125 20.28125 61.296875 
Q 16.359375 58.15625 16.359375 53.71875 
Q 16.359375 49.859375 19.140625 47.359375 
Q 21.875 44.875 33.421875 42.265625 
Q 44.96875 39.65625 49.265625 37.703125 
Q 55.515625 34.8125 58.484375 30.390625 
Q 61.46875 25.984375 61.46875 20.21875 
Q 61.46875 14.5 58.203125 9.4375 
Q 54.9375 4.390625 48.796875 1.578125 
Q 42.671875 -1.21875 35.015625 -1.21875 
Q 25.296875 -1.21875 18.71875 1.609375 
Q 12.15625 4.4375 8.421875 10.125 
Q 4.6875 15.828125 4.5 23 
z
" id="ArialMT-53"/>
     <path d="M 23.390625 -21.046875 
Q 16.109375 -11.859375 11.078125 0.4375 
Q 6.0625 12.75 6.0625 25.921875 
Q 6.0625 37.546875 9.8125 48.1875 
Q 14.203125 60.546875 23.390625 72.796875 
L 29.6875 72.796875 
Q 23.78125 62.640625 21.875 58.296875 
Q 18.890625 51.5625 17.1875 44.234375 
Q 15.09375 35.109375 15.09375 25.875 
Q 15.09375 2.390625 29.6875 -21.046875 
z
" id="ArialMT-28"/>
     <path d="M 4.734375 62.203125 
L 4.734375 70.65625 
L 51.078125 70.65625 
L 51.078125 63.8125 
Q 44.234375 56.546875 37.515625 44.484375 
Q 30.8125 32.421875 27.15625 19.671875 
Q 24.515625 10.6875 23.78125 0 
L 14.75 0 
Q 14.890625 8.453125 18.0625 20.40625 
Q 21.234375 32.375 27.171875 43.484375 
Q 33.109375 54.59375 39.796875 62.203125 
z
" id="ArialMT-37"/>
     <path d="M 12.359375 -21.046875 
L 6.0625 -21.046875 
Q 20.65625 2.390625 20.65625 25.875 
Q 20.65625 35.0625 18.5625 44.09375 
Q 16.890625 51.421875 13.921875 58.15625 
Q 12.015625 62.546875 6.0625 72.796875 
L 12.359375 72.796875 
Q 21.53125 60.546875 25.921875 48.1875 
Q 29.6875 37.546875 29.6875 25.921875 
Q 29.6875 12.75 24.625 0.4375 
Q 19.578125 -11.859375 12.359375 -21.046875 
z
" id="ArialMT-29"/>
     <path d="M 7.328125 0 
L 7.328125 71.578125 
L 34.1875 71.578125 
Q 42.390625 71.578125 47.34375 69.40625 
Q 52.296875 67.234375 55.09375 62.71875 
Q 57.90625 58.203125 57.90625 53.265625 
Q 57.90625 48.6875 55.421875 44.625 
Q 52.9375 40.578125 47.90625 38.09375 
Q 54.390625 36.1875 57.875 31.59375 
Q 61.375 27 61.375 20.75 
Q 61.375 15.71875 59.25 11.390625 
Q 57.125 7.078125 54 4.734375 
Q 50.875 2.390625 46.15625 1.1875 
Q 41.453125 0 34.625 0 
z
M 16.796875 41.5 
L 32.28125 41.5 
Q 38.578125 41.5 41.3125 42.328125 
Q 44.921875 43.40625 46.75 45.890625 
Q 48.578125 48.390625 48.578125 52.15625 
Q 48.578125 55.71875 46.875 58.421875 
Q 45.171875 61.140625 41.984375 62.140625 
Q 38.8125 63.140625 31.109375 63.140625 
L 16.796875 63.140625 
z
M 16.796875 8.453125 
L 34.625 8.453125 
Q 39.203125 8.453125 41.0625 8.796875 
Q 44.34375 9.375 46.53125 10.734375 
Q 48.734375 12.109375 50.140625 14.71875 
Q 51.5625 17.328125 51.5625 20.75 
Q 51.5625 24.75 49.515625 27.703125 
Q 47.46875 30.671875 43.828125 31.859375 
Q 40.1875 33.0625 33.34375 33.0625 
L 16.796875 33.0625 
z
" id="ArialMT-42"/>
     <path d="M 8.203125 0 
L 8.203125 71.578125 
L 56.5 71.578125 
L 56.5 63.140625 
L 17.671875 63.140625 
L 17.671875 40.96875 
L 51.265625 40.96875 
L 51.265625 32.515625 
L 17.671875 32.515625 
L 17.671875 0 
z
" id="ArialMT-46"/>
    </defs>
    <g style="fill:#262626;" transform="translate(64.118438 24.9525)scale(0.24 -0.24)">
     <use xlink:href="#ArialMT-4e"/>
     <use x="72.216797" xlink:href="#ArialMT-61"/>
     <use x="127.832031" xlink:href="#ArialMT-6b"/>
     <use x="177.832031" xlink:href="#ArialMT-68"/>
     <use x="233.447266" xlink:href="#ArialMT-6f"/>
     <use x="289.0625" xlink:href="#ArialMT-6e"/>
     <use x="344.677734" xlink:href="#ArialMT-2d"/>
     <use x="377.978516" xlink:href="#ArialMT-53"/>
     <use x="444.677734" xlink:href="#ArialMT-69"/>
     <use x="466.894531" xlink:href="#ArialMT-20"/>
     <use x="494.677734" xlink:href="#ArialMT-28"/>
     <use x="527.978516" xlink:href="#ArialMT-31"/>
     <use x="583.59375" xlink:href="#ArialMT-36"/>
     <use x="639.208984" xlink:href="#ArialMT-37"/>
     <use x="694.824219" xlink:href="#ArialMT-20"/>
     <use x="722.607422" xlink:href="#ArialMT-64"/>
     <use x="778.222656" xlink:href="#ArialMT-61"/>
     <use x="833.837891" xlink:href="#ArialMT-74"/>
     <use x="861.621094" xlink:href="#ArialMT-61"/>
     <use x="917.236328" xlink:href="#ArialMT-20"/>
     <use x="945.019531" xlink:href="#ArialMT-70"/>
     <use x="1000.634766" xlink:href="#ArialMT-6f"/>
     <use x="1056.25" xlink:href="#ArialMT-69"/>
     <use x="1078.466797" xlink:href="#ArialMT-6e"/>
     <use x="1134.082031" xlink:href="#ArialMT-74"/>
     <use x="1161.865234" xlink:href="#ArialMT-73"/>
     <use x="1211.865234" xlink:href="#ArialMT-29"/>
     <use x="1245.166016" xlink:href="#ArialMT-2c"/>
     <use x="1272.949219" xlink:href="#ArialMT-20"/>
     <use x="1300.732422" xlink:href="#ArialMT-42"/>
     <use x="1367.431641" xlink:href="#ArialMT-53"/>
     <use x="1434.130859" xlink:href="#ArialMT-20"/>
     <use x="1461.914062" xlink:href="#ArialMT-70"/>
     <use x="1517.529297" xlink:href="#ArialMT-65"/>
     <use x="1573.144531" xlink:href="#ArialMT-72"/>
     <use x="1606.445312" xlink:href="#ArialMT-20"/>
     <use x="1634.228516" xlink:href="#ArialMT-50"/>
     <use x="1700.927734" xlink:href="#ArialMT-65"/>
     <use x="1756.542969" xlink:href="#ArialMT-72"/>
     <use x="1789.84375" xlink:href="#ArialMT-73"/>
     <use x="1839.84375" xlink:href="#ArialMT-6f"/>
     <use x="1895.458984" xlink:href="#ArialMT-6e"/>
     <use x="1951.074219" xlink:href="#ArialMT-20"/>
     <use x="1978.857422" xlink:href="#ArialMT-61"/>
     <use x="2034.472656" xlink:href="#ArialMT-73"/>
     <use x="2084.472656" xlink:href="#ArialMT-20"/>
     <use x="2112.255859" xlink:href="#ArialMT-46"/>
     <use x="2173.339844" xlink:href="#ArialMT-65"/>
     <use x="2228.955078" xlink:href="#ArialMT-61"/>
     <use x="2284.570312" xlink:href="#ArialMT-74"/>
     <use x="2312.353516" xlink:href="#ArialMT-75"/>
     <use x="2367.96875" xlink:href="#ArialMT-72"/>
     <use x="2401.269531" xlink:href="#ArialMT-65"/>
     <use x="2456.884766" xlink:href="#ArialMT-73"/>
    </g>
    <!-- R-squared: 0.1779 -->
    <defs>
     <path d="M 7.859375 0 
L 7.859375 71.578125 
L 39.59375 71.578125 
Q 49.171875 71.578125 54.140625 69.640625 
Q 59.125 67.71875 62.109375 62.828125 
Q 65.09375 57.953125 65.09375 52.046875 
Q 65.09375 44.4375 60.15625 39.203125 
Q 55.21875 33.984375 44.921875 32.5625 
Q 48.6875 30.765625 50.640625 29 
Q 54.78125 25.203125 58.5 19.484375 
L 70.953125 0 
L 59.03125 0 
L 49.5625 14.890625 
Q 45.40625 21.34375 42.71875 24.75 
Q 40.046875 28.171875 37.921875 29.53125 
Q 35.796875 30.90625 33.59375 31.453125 
Q 31.984375 31.78125 28.328125 31.78125 
L 17.328125 31.78125 
L 17.328125 0 
z
M 17.328125 39.984375 
L 37.703125 39.984375 
Q 44.1875 39.984375 47.84375 41.328125 
Q 51.515625 42.671875 53.421875 45.625 
Q 55.328125 48.578125 55.328125 52.046875 
Q 55.328125 57.125 51.640625 60.390625 
Q 47.953125 63.671875 39.984375 63.671875 
L 17.328125 63.671875 
z
" id="ArialMT-52"/>
     <path d="M 39.65625 -19.875 
L 39.65625 5.515625 
Q 37.59375 2.640625 33.90625 0.734375 
Q 30.21875 -1.171875 26.078125 -1.171875 
Q 16.84375 -1.171875 10.171875 6.203125 
Q 3.515625 13.578125 3.515625 26.421875 
Q 3.515625 34.234375 6.21875 40.421875 
Q 8.9375 46.625 14.078125 49.828125 
Q 19.234375 53.03125 25.390625 53.03125 
Q 35.015625 53.03125 40.53125 44.921875 
L 40.53125 51.859375 
L 48.4375 51.859375 
L 48.4375 -19.875 
z
M 12.546875 26.078125 
Q 12.546875 16.0625 16.75 11.0625 
Q 20.953125 6.0625 26.8125 6.0625 
Q 32.421875 6.0625 36.46875 10.8125 
Q 40.53125 15.578125 40.53125 25.296875 
Q 40.53125 35.640625 36.25 40.859375 
Q 31.984375 46.09375 26.21875 46.09375 
Q 20.515625 46.09375 16.53125 41.234375 
Q 12.546875 36.375 12.546875 26.078125 
z
" id="ArialMT-71"/>
     <path d="M 9.03125 41.84375 
L 9.03125 51.859375 
L 19.046875 51.859375 
L 19.046875 41.84375 
z
M 9.03125 0 
L 9.03125 10.015625 
L 19.046875 10.015625 
L 19.046875 0 
z
" id="ArialMT-3a"/>
     <path d="M 9.078125 0 
L 9.078125 10.015625 
L 19.09375 10.015625 
L 19.09375 0 
z
" id="ArialMT-2e"/>
     <path d="M 5.46875 16.546875 
L 13.921875 17.328125 
Q 14.984375 11.375 18.015625 8.6875 
Q 21.046875 6 25.78125 6 
Q 29.828125 6 32.875 7.859375 
Q 35.9375 9.71875 37.890625 12.8125 
Q 39.84375 15.921875 41.15625 21.1875 
Q 42.484375 26.46875 42.484375 31.9375 
Q 42.484375 32.515625 42.4375 33.6875 
Q 39.796875 29.5 35.234375 26.875 
Q 30.671875 24.265625 25.34375 24.265625 
Q 16.453125 24.265625 10.296875 30.703125 
Q 4.15625 37.15625 4.15625 47.703125 
Q 4.15625 58.59375 10.578125 65.234375 
Q 17 71.875 26.65625 71.875 
Q 33.640625 71.875 39.421875 68.109375 
Q 45.21875 64.359375 48.21875 57.390625 
Q 51.21875 50.4375 51.21875 37.25 
Q 51.21875 23.53125 48.234375 15.40625 
Q 45.265625 7.28125 39.375 3.03125 
Q 33.5 -1.21875 25.59375 -1.21875 
Q 17.1875 -1.21875 11.859375 3.4375 
Q 6.546875 8.109375 5.46875 16.546875 
z
M 41.453125 48.140625 
Q 41.453125 55.71875 37.421875 60.15625 
Q 33.40625 64.59375 27.734375 64.59375 
Q 21.875 64.59375 17.53125 59.8125 
Q 13.1875 55.03125 13.1875 47.40625 
Q 13.1875 40.578125 17.3125 36.296875 
Q 21.4375 32.03125 27.484375 32.03125 
Q 33.59375 32.03125 37.515625 36.296875 
Q 41.453125 40.578125 41.453125 48.140625 
z
" id="ArialMT-39"/>
    </defs>
    <g style="fill:#262626;" transform="translate(265.534688 50.70375)scale(0.24 -0.24)">
     <use xlink:href="#ArialMT-52"/>
     <use x="72.216797" xlink:href="#ArialMT-2d"/>
     <use x="105.517578" xlink:href="#ArialMT-73"/>
     <use x="155.517578" xlink:href="#ArialMT-71"/>
     <use x="211.132812" xlink:href="#ArialMT-75"/>
     <use x="266.748047" xlink:href="#ArialMT-61"/>
     <use x="322.363281" xlink:href="#ArialMT-72"/>
     <use x="355.664062" xlink:href="#ArialMT-65"/>
     <use x="411.279297" xlink:href="#ArialMT-64"/>
     <use x="466.894531" xlink:href="#ArialMT-3a"/>
     <use x="494.677734" xlink:href="#ArialMT-20"/>
     <use x="522.460938" xlink:href="#ArialMT-30"/>
     <use x="578.076172" xlink:href="#ArialMT-2e"/>
     <use x="605.859375" xlink:href="#ArialMT-31"/>
     <use x="661.474609" xlink:href="#ArialMT-37"/>
     <use x="717.089844" xlink:href="#ArialMT-37"/>
     <use x="772.705078" xlink:href="#ArialMT-39"/>
    </g>
    <!-- Pearson: 0.4218, p-value: 0.0 -->
    <defs>
     <path d="M 21 0 
L 1.265625 51.859375 
L 10.546875 51.859375 
L 21.6875 20.796875 
Q 23.484375 15.765625 25 10.359375 
Q 26.171875 14.453125 28.265625 20.21875 
L 39.796875 51.859375 
L 48.828125 51.859375 
L 29.203125 0 
z
" id="ArialMT-76"/>
    </defs>
    <g style="fill:#262626;" transform="translate(207.495937 76.17375)scale(0.24 -0.24)">
     <use xlink:href="#ArialMT-50"/>
     <use x="66.699219" xlink:href="#ArialMT-65"/>
     <use x="122.314453" xlink:href="#ArialMT-61"/>
     <use x="177.929688" xlink:href="#ArialMT-72"/>
     <use x="211.230469" xlink:href="#ArialMT-73"/>
     <use x="261.230469" xlink:href="#ArialMT-6f"/>
     <use x="316.845703" xlink:href="#ArialMT-6e"/>
     <use x="372.460938" xlink:href="#ArialMT-3a"/>
     <use x="400.244141" xlink:href="#ArialMT-20"/>
     <use x="428.027344" xlink:href="#ArialMT-30"/>
     <use x="483.642578" xlink:href="#ArialMT-2e"/>
     <use x="511.425781" xlink:href="#ArialMT-34"/>
     <use x="567.041016" xlink:href="#ArialMT-32"/>
     <use x="622.65625" xlink:href="#ArialMT-31"/>
     <use x="678.271484" xlink:href="#ArialMT-38"/>
     <use x="733.886719" xlink:href="#ArialMT-2c"/>
     <use x="761.669922" xlink:href="#ArialMT-20"/>
     <use x="789.453125" xlink:href="#ArialMT-70"/>
     <use x="845.068359" xlink:href="#ArialMT-2d"/>
     <use x="878.369141" xlink:href="#ArialMT-76"/>
     <use x="928.369141" xlink:href="#ArialMT-61"/>
     <use x="983.984375" xlink:href="#ArialMT-6c"/>
     <use x="1006.201172" xlink:href="#ArialMT-75"/>
     <use x="1061.816406" xlink:href="#ArialMT-65"/>
     <use x="1117.431641" xlink:href="#ArialMT-3a"/>
     <use x="1145.214844" xlink:href="#ArialMT-20"/>
     <use x="1172.998047" xlink:href="#ArialMT-30"/>
     <use x="1228.613281" xlink:href="#ArialMT-2e"/>
     <use x="1256.396484" xlink:href="#ArialMT-30"/>
    </g>
    <!-- Spearman: 0.4384, p-value: 0.0 -->
    <defs>
     <path d="M 6.59375 0 
L 6.59375 51.859375 
L 14.453125 51.859375 
L 14.453125 44.578125 
Q 16.890625 48.390625 20.9375 50.703125 
Q 25 53.03125 30.171875 53.03125 
Q 35.9375 53.03125 39.625 50.640625 
Q 43.3125 48.25 44.828125 43.953125 
Q 50.984375 53.03125 60.84375 53.03125 
Q 68.5625 53.03125 72.703125 48.75 
Q 76.859375 44.484375 76.859375 35.59375 
L 76.859375 0 
L 68.109375 0 
L 68.109375 32.671875 
Q 68.109375 37.9375 67.25 40.25 
Q 66.40625 42.578125 64.15625 43.984375 
Q 61.921875 45.40625 58.890625 45.40625 
Q 53.421875 45.40625 49.796875 41.765625 
Q 46.1875 38.140625 46.1875 30.125 
L 46.1875 0 
L 37.40625 0 
L 37.40625 33.6875 
Q 37.40625 39.546875 35.25 42.46875 
Q 33.109375 45.40625 28.21875 45.40625 
Q 24.515625 45.40625 21.359375 43.453125 
Q 18.21875 41.5 16.796875 37.734375 
Q 15.375 33.984375 15.375 26.90625 
L 15.375 0 
z
" id="ArialMT-6d"/>
     <path d="M 4.203125 18.890625 
L 12.984375 20.0625 
Q 14.5 12.59375 18.140625 9.296875 
Q 21.78125 6 27 6 
Q 33.203125 6 37.46875 10.296875 
Q 41.75 14.59375 41.75 20.953125 
Q 41.75 27 37.796875 30.921875 
Q 33.84375 34.859375 27.734375 34.859375 
Q 25.25 34.859375 21.53125 33.890625 
L 22.515625 41.609375 
Q 23.390625 41.5 23.921875 41.5 
Q 29.546875 41.5 34.03125 44.421875 
Q 38.53125 47.359375 38.53125 53.46875 
Q 38.53125 58.296875 35.25 61.46875 
Q 31.984375 64.65625 26.8125 64.65625 
Q 21.6875 64.65625 18.265625 61.421875 
Q 14.84375 58.203125 13.875 51.765625 
L 5.078125 53.328125 
Q 6.6875 62.15625 12.390625 67.015625 
Q 18.109375 71.875 26.609375 71.875 
Q 32.46875 71.875 37.390625 69.359375 
Q 42.328125 66.84375 44.9375 62.5 
Q 47.5625 58.15625 47.5625 53.265625 
Q 47.5625 48.640625 45.0625 44.828125 
Q 42.578125 41.015625 37.703125 38.765625 
Q 44.046875 37.3125 47.5625 32.6875 
Q 51.078125 28.078125 51.078125 21.140625 
Q 51.078125 11.765625 44.234375 5.25 
Q 37.40625 -1.265625 26.953125 -1.265625 
Q 17.53125 -1.265625 11.296875 4.34375 
Q 5.078125 9.96875 4.203125 18.890625 
z
" id="ArialMT-33"/>
    </defs>
    <g style="fill:#262626;" transform="translate(196.827188 101.90925)scale(0.24 -0.24)">
     <use xlink:href="#ArialMT-53"/>
     <use x="66.699219" xlink:href="#ArialMT-70"/>
     <use x="122.314453" xlink:href="#ArialMT-65"/>
     <use x="177.929688" xlink:href="#ArialMT-61"/>
     <use x="233.544922" xlink:href="#ArialMT-72"/>
     <use x="266.845703" xlink:href="#ArialMT-6d"/>
     <use x="350.146484" xlink:href="#ArialMT-61"/>
     <use x="405.761719" xlink:href="#ArialMT-6e"/>
     <use x="461.376953" xlink:href="#ArialMT-3a"/>
     <use x="489.160156" xlink:href="#ArialMT-20"/>
     <use x="516.943359" xlink:href="#ArialMT-30"/>
     <use x="572.558594" xlink:href="#ArialMT-2e"/>
     <use x="600.341797" xlink:href="#ArialMT-34"/>
     <use x="655.957031" xlink:href="#ArialMT-33"/>
     <use x="711.572266" xlink:href="#ArialMT-38"/>
     <use x="767.1875" xlink:href="#ArialMT-34"/>
     <use x="822.802734" xlink:href="#ArialMT-2c"/>
     <use x="850.585938" xlink:href="#ArialMT-20"/>
     <use x="878.369141" xlink:href="#ArialMT-70"/>
     <use x="933.984375" xlink:href="#ArialMT-2d"/>
     <use x="967.285156" xlink:href="#ArialMT-76"/>
     <use x="1017.285156" xlink:href="#ArialMT-61"/>
     <use x="1072.900391" xlink:href="#ArialMT-6c"/>
     <use x="1095.117188" xlink:href="#ArialMT-75"/>
     <use x="1150.732422" xlink:href="#ArialMT-65"/>
     <use x="1206.347656" xlink:href="#ArialMT-3a"/>
     <use x="1234.130859" xlink:href="#ArialMT-20"/>
     <use x="1261.914062" xlink:href="#ArialMT-30"/>
     <use x="1317.529297" xlink:href="#ArialMT-2e"/>
     <use x="1345.3125" xlink:href="#ArialMT-30"/>
    </g>
   </g>
  </g>
 </g>
 <defs>
  <clipPath id="p843867a60f">
   <rect height="543.6" width="558" x="85.924688" y="107.628"/>
  </clipPath>
 </defs>
</svg>
